<?xml version="1.0" encoding="utf-8"?>
<!-- Generator: Adobe Illustrator 27.5.0, SVG Export Plug-In . SVG Version: 6.00 Build 0)  -->
<svg version="1.1" xmlns="http://www.w3.org/2000/svg" xmlns:xlink="http://www.w3.org/1999/xlink" x="0px" y="0px"
	 viewBox="0 0 500 500" style="enable-background:new 0 0 500 500;" xml:space="preserve">
<g id="BACKGROUND">
	<path style="fill:#FDEDEE;" d="M290.579,461.233H82.231c0,0-94.788-129.513-6.569-191.454
		c64.756-45.467-12.201-129.513,89.158-195.208C266.178,8.876,428.958,53.043,453.878,220.977
		c21.586,145.468-45.048,240.256-45.048,240.256H290.579z"/>
</g>
<g id="OBJECTS">
	<g>
		<g>
			<g>
				<g>
					<g>
						<g>
							<path style="fill:#352C38;" d="M249.636,188.986c0,0-0.127-0.964-0.151-2.765c-0.003-1.796,0.094-4.432,0.565-7.738
								c0.46-3.308,1.388-7.262,2.8-11.699c1.385-4.441,3.195-9.404,5.765-14.573c1.295-2.579,2.785-5.207,4.522-7.814
								c1.764-2.59,3.821-5.131,6.208-7.498c2.392-2.355,5.139-4.544,8.304-6.206c0.796-0.401,1.62-0.762,2.436-1.144
								c0.823-0.366,1.702-0.614,2.558-0.922c0.853-0.324,1.769-0.448,2.656-0.679l0.671-0.154l0.168-0.038l0.198-0.032l0.326-0.049
								l1.307-0.197c1.741-0.268,3.669-0.413,5.517-0.425c1.881,0.063,3.828,0.206,5.754,1.02l0.714,0.33
								c0.233,0.131,0.456,0.302,0.682,0.455c0.469,0.274,0.838,0.748,1.226,1.159c0.688,0.959,1.002,2.145,0.965,3.257
								c-0.043,1.12-0.405,2.118-0.824,3.057c-0.483,0.897-1.022,1.758-1.693,2.495c-1.308,1.5-2.893,2.745-4.706,3.593
								c-1.8,0.848-3.849,1.326-5.912,1.101c-2.069-0.212-3.995-1.294-5.387-2.742l-0.513-0.556
								c-0.094-0.108-0.15-0.152-0.275-0.313l-0.205-0.287c-0.267-0.401-0.561-0.724-0.807-1.19c-0.53-0.888-0.944-1.801-1.228-2.76
								c-0.584-1.918-0.625-3.988-0.181-5.918c0.437-1.936,1.318-3.729,2.439-5.31c2.264-3.167,5.405-5.543,8.789-7.208
								c6.814-3.318,14.779-3.676,21.546-1.338c1.701,0.557,3.328,1.285,4.87,2.087c1.571,0.808,3.038,1.761,4.343,2.916
								c1.261,1.156,2.466,2.603,2.644,4.419c0.087,0.888-0.127,1.797-0.576,2.547c-0.438,0.764-1.101,1.345-1.802,1.801
								c-2.866,1.785-6.553,1.688-9.228,0.079c-1.339-0.811-2.398-1.992-3.102-3.309c-0.707-1.31-1.134-2.759-1.136-4.207
								c-0.009-1.444,0.422-2.839,1.125-4.013c0.701-1.182,1.645-2.154,2.655-2.963c2.035-1.618,4.339-2.602,6.543-3.238
								c4.442-1.271,8.552-1.201,11.801-0.724c3.272,0.466,5.727,1.384,7.347,2.068c0.816,0.34,1.418,0.65,1.822,0.861
								c0.406,0.207,0.616,0.314,0.616,0.314s-0.211-0.105-0.618-0.31c-0.406-0.208-1.009-0.514-1.827-0.847
								c-1.624-0.671-4.083-1.571-7.35-2.012c-3.243-0.453-7.341-0.491-11.745,0.804c-2.185,0.647-4.461,1.642-6.454,3.25
								c-0.99,0.801-1.9,1.771-2.567,2.927c-0.668,1.15-1.063,2.497-1.036,3.881c0.074,2.732,1.587,5.642,4.142,7.154
								c2.547,1.5,6.083,1.526,8.715-0.169c1.313-0.813,2.268-2.285,2.073-3.834c-0.163-1.556-1.269-2.899-2.489-3.98
								c-1.251-1.081-2.7-1.998-4.221-2.755c-1.543-0.777-3.133-1.463-4.794-1.983c-6.609-2.191-14.311-1.729-20.818,1.544
								c-3.23,1.638-6.194,3.958-8.266,6.94c-1.026,1.487-1.807,3.146-2.177,4.888c-0.373,1.738-0.316,3.554,0.226,5.232
								c0.269,0.84,0.665,1.641,1.112,2.362c0.192,0.37,0.54,0.751,0.803,1.126l0.212,0.282l0.202,0.207l0.456,0.47
								c1.237,1.216,2.807,2.04,4.496,2.174c3.395,0.261,6.82-1.664,8.98-4.295c0.567-0.648,0.99-1.383,1.368-2.115
								c0.307-0.75,0.564-1.521,0.556-2.253c-0.012-0.725-0.224-1.364-0.615-1.898c-0.267-0.223-0.447-0.506-0.79-0.675
								c-0.156-0.094-0.295-0.204-0.46-0.29l-0.535-0.218c-1.453-0.565-3.183-0.668-4.87-0.66c-1.736,0.079-3.363,0.245-5.102,0.571
								l-1.299,0.241l-0.324,0.06c-0.038,0.008-0.144,0.025-0.126,0.025l-0.151,0.041l-0.604,0.163
								c-0.796,0.242-1.621,0.372-2.382,0.696c-0.763,0.31-1.548,0.553-2.284,0.902c-0.728,0.368-1.464,0.71-2.176,1.089
								c-2.826,1.575-5.288,3.639-7.445,5.872c-4.32,4.495-7.384,9.697-9.843,14.627c-2.388,4.986-4.216,9.755-5.569,14.072
								c-0.693,2.154-1.256,4.198-1.801,6.082c-0.553,1.886-1.061,3.619-1.52,5.184c-0.942,3.132-1.745,5.599-2.309,7.288
								C249.981,188.079,249.636,188.986,249.636,188.986z"/>
						</g>
						<g>
							<path style="fill:#352C38;" d="M308.806,161.099c0,0,0.288-0.395,0.827-1.137c0.541-0.725,1.342-1.771,2.4-3.068
								c2.116-2.59,5.258-6.197,9.496-10.077c2.127-1.928,4.533-3.924,7.3-5.754c1.397-0.895,2.844-1.801,4.429-2.558
								c0.769-0.415,1.609-0.727,2.422-1.1c0.853-0.294,1.684-0.656,2.581-0.877c3.5-1.044,7.531-1.291,11.25-0.066
								c0.462,0.161,0.921,0.297,1.386,0.482c0.422,0.174,0.856,0.361,1.308,0.578c0.878,0.43,1.744,0.895,2.558,1.579
								c0.399,0.35,0.8,0.761,1.077,1.353c0.143,0.287,0.218,0.651,0.216,1.015c-0.022,0.364-0.126,0.728-0.301,1.008
								c-0.343,0.576-0.809,0.925-1.261,1.208c-0.458,0.277-0.928,0.488-1.401,0.655c-1.893,0.662-3.832,0.872-5.759,0.868
								c-1.922-0.031-3.862-0.285-5.665-1.054c-0.896-0.383-1.754-0.928-2.425-1.694c-0.666-0.771-1.054-1.788-1.067-2.783
								c-0.039-0.999,0.24-1.935,0.591-2.792c0.357-0.861,0.826-1.646,1.335-2.384c1.006-1.474,2.209-2.789,3.402-3.975
								c1.178-1.218,2.471-2.313,3.757-3.296c1.332-0.935,2.683-1.777,4.107-2.359c1.422-0.575,2.879-0.936,4.302-1.014
								c2.873-0.174,5.407,0.895,7.288,2.171c1.894,1.309,3.245,2.817,4.256,4.106c1.003,1.303,1.676,2.408,2.104,3.176
								c0.429,0.768,0.621,1.197,0.621,1.197s-0.197-0.426-0.636-1.188c-0.438-0.761-1.124-1.858-2.141-3.144
								c-1.024-1.272-2.39-2.757-4.283-4.029c-1.878-1.243-4.392-2.259-7.192-2.018c-1.387,0.107-2.799,0.489-4.176,1.08
								c-1.378,0.598-2.684,1.453-3.969,2.396c-1.251,1.003-2.471,2.079-3.622,3.32c-1.185,1.221-2.277,2.516-3.219,3.974
								c-0.921,1.429-1.724,3.084-1.648,4.74c0.039,0.82,0.362,1.584,0.91,2.189c0.558,0.599,1.297,1.052,2.106,1.368
								c1.623,0.64,3.456,0.837,5.258,0.81c1.802-0.045,3.643-0.312,5.279-0.945c0.787-0.311,1.596-0.792,1.861-1.301
								c0.126-0.243,0.114-0.404-0.012-0.663c-0.13-0.253-0.391-0.536-0.704-0.784c-0.637-0.5-1.439-0.907-2.242-1.26
								c-0.392-0.172-0.817-0.338-1.258-0.501c-0.402-0.142-0.837-0.252-1.251-0.381c-3.368-0.97-6.926-0.626-10.096,0.444
								c-3.206,1.022-6.046,2.785-8.59,4.592c-2.536,1.845-4.752,3.855-6.708,5.794c-3.907,3.897-6.728,7.575-8.636,10.163
								c-0.95,1.301-1.663,2.343-2.136,3.055c-0.459,0.707-0.703,1.084-0.703,1.084L308.806,161.099z"/>
						</g>
						<g>
							<path style="fill:#352C38;" d="M364.037,209.868c0,0,0.209,0.596,0.619,1.615c0.396,1.023,1.049,2.45,1.913,4.103
								c0.867,1.651,2.005,3.507,3.457,5.284c0.744,0.869,1.551,1.735,2.47,2.484c0.919,0.741,1.907,1.441,3.004,1.896
								c1.076,0.491,2.223,0.838,3.387,0.937c1.159,0.152,2.322,0.063,3.439-0.089c0.556-0.099,1.094-0.252,1.632-0.358
								c0.524-0.169,1.037-0.335,1.536-0.496c0.97-0.403,1.913-0.759,2.724-1.215c0.413-0.215,0.809-0.422,1.186-0.618
								c0.366-0.219,0.713-0.426,1.039-0.621c0.661-0.38,1.223-0.738,1.665-1.063c0.905-0.62,1.439-0.963,1.439-0.963
								s-0.454,0.434-1.277,1.173c-0.404,0.379-0.922,0.807-1.54,1.271c-0.306,0.238-0.631,0.49-0.974,0.757
								c-0.366,0.236-0.75,0.485-1.151,0.744c-0.79,0.543-1.731,1-2.728,1.477c-0.517,0.204-1.048,0.413-1.591,0.628
								c-0.564,0.159-1.142,0.329-1.739,0.463c-1.206,0.204-2.489,0.385-3.792,0.219c-1.304-0.097-2.605-0.467-3.815-1.006
								c-1.223-0.53-2.302-1.312-3.29-2.133c-0.997-0.823-1.801-1.801-2.558-2.743c-1.454-1.937-2.498-3.933-3.225-5.696
								c-0.744-1.758-1.173-3.287-1.46-4.353C364.129,210.494,364.037,209.868,364.037,209.868z"/>
						</g>
						<g>
							<path style="fill:#352C38;" d="M344.91,190.684c0,0,0.885-0.811,2.465-2.164c1.586-1.35,3.858-3.271,6.708-5.427
								c2.852-2.148,6.24-4.593,10.1-6.881c1.937-1.131,3.987-2.232,6.168-3.175c2.18-0.93,4.498-1.742,6.986-1.991
								c1.245-0.043,2.546-0.065,3.776,0.436c1.199,0.464,2.356,1.271,2.997,2.384l0.274,0.392l0.194,0.427l0.381,0.851
								c0.209,0.561,0.378,1.109,0.53,1.695c0.15,0.573,0.27,1.156,0.317,1.767c0.03,0.602,0.064,1.27-0.369,1.956
								c-0.22,0.341-0.656,0.585-1.043,0.612c-0.389,0.038-0.723-0.048-1.023-0.152c-0.591-0.226-1.076-0.556-1.511-0.918
								c-0.869-0.726-1.562-1.569-2.136-2.452c-1.129-1.763-1.777-3.766-1.587-5.634c0.168-1.889,1.305-3.364,2.484-4.217
								c1.192-0.879,2.396-1.338,3.386-1.65c0.994-0.315,1.797-0.466,2.343-0.571c0.548-0.092,0.84-0.14,0.84-0.14
								s-0.289,0.064-0.831,0.183c-0.538,0.132-1.331,0.324-2.298,0.686c-0.962,0.357-2.124,0.874-3.219,1.773
								c-1.087,0.883-2.037,2.278-2.132,3.985c-0.111,1.697,0.553,3.538,1.671,5.146c0.564,0.802,1.246,1.565,2.044,2.181
								c0.397,0.305,0.832,0.57,1.265,0.723c0.214,0.07,0.428,0.106,0.588,0.083c0.161-0.026,0.247-0.081,0.332-0.207
								c0.173-0.263,0.211-0.794,0.152-1.296c-0.052-0.513-0.173-1.044-0.327-1.572c-0.147-0.516-0.331-1.064-0.54-1.58l-0.35-0.725
								l-0.173-0.364l-0.238-0.315c-0.555-0.918-1.476-1.49-2.448-1.851c-0.986-0.387-2.127-0.339-3.225-0.278
								c-2.234,0.255-4.438,1.048-6.521,1.976c-2.087,0.939-4.073,2.041-5.953,3.177c-3.749,2.3-7.11,4.692-9.918,6.835
								c-2.807,2.147-5.103,3.996-6.679,5.326c-1.583,1.327-2.452,2.108-2.452,2.108L344.91,190.684z"/>
						</g>
						<g>
							<path style="fill:#352C38;" d="M183.416,245.96c0,0-1.044,0.563-2.919,1.454c-1.88,0.877-4.565,2.145-7.882,3.447
								c-3.318,1.291-7.222,2.755-11.554,3.884c-2.169,0.551-4.437,1.041-6.787,1.345c-2.347,0.291-4.792,0.431-7.252-0.018
								c-1.206-0.31-2.461-0.659-3.502-1.49c-1.021-0.787-1.908-1.896-2.209-3.153l-0.152-0.457l-0.066-0.467l-0.125-0.93
								c-0.042-0.599-0.049-1.173-0.028-1.782c0.019-0.594,0.068-1.191,0.199-1.798c0.146-0.593,0.297-1.255,0.94-1.819
								c0.325-0.279,0.848-0.398,1.247-0.308c0.405,0.079,0.712,0.263,0.977,0.454c0.518,0.394,0.893,0.858,1.208,1.337
								c0.629,0.958,1.05,1.975,1.346,2.995c0.573,2.032,0.616,4.157-0.118,5.918c-0.367,0.87-0.914,1.631-1.576,2.177
								c-0.657,0.553-1.381,0.926-2.082,1.175c-1.411,0.492-2.703,0.574-3.744,0.58c-1.046,0.012-1.859-0.101-2.411-0.165
								c-0.55-0.081-0.844-0.124-0.844-0.124s0.296,0.017,0.85,0.05c0.554,0.022,1.368,0.043,2.395-0.026
								c1.021-0.07,2.277-0.238,3.568-0.786c1.28-0.538,2.557-1.588,3.132-3.164c0.584-1.565,0.483-3.499-0.119-5.345
								c-0.306-0.922-0.737-1.842-1.315-2.649c-0.289-0.4-0.622-0.772-0.975-1.037c-0.176-0.125-0.359-0.215-0.497-0.237
								c-0.14-0.018-0.203,0-0.305,0.079c-0.212,0.169-0.411,0.653-0.499,1.143c-0.101,0.498-0.142,1.038-0.151,1.586
								c-0.012,0.532,0.002,1.111,0.049,1.663l0.119,0.79l0.057,0.396l0.133,0.368c0.256,1.034,0.96,1.845,1.778,2.476
								c0.824,0.66,1.926,0.95,2.993,1.218c2.207,0.434,4.555,0.347,6.826,0.091c2.279-0.264,4.511-0.715,6.653-1.229
								c4.278-1.062,8.233-2.276,11.575-3.456c3.342-1.18,6.122-2.199,8.043-2.974C182.317,246.4,183.416,245.96,183.416,245.96z"/>
						</g>
						<g>
							<path style="fill:#352C38;" d="M219.901,86.615c0,0,0.754,0.133,2.153,0.454c1.398,0.324,3.443,0.832,5.998,1.645
								c2.549,0.823,5.629,1.924,8.95,3.664c1.655,0.874,3.371,1.911,5.016,3.24c1.62,1.336,3.243,2.956,4.281,5.08
								c0.557,1.041,0.867,2.221,1.064,3.433c0.092,1.22,0.102,2.496-0.228,3.726c-0.267,1.26-0.693,2.415-1.251,3.63
								c-0.549,1.183-1.304,2.324-2.325,3.258c-1.013,0.933-2.394,1.567-3.852,1.61c-0.728,0.011-1.453-0.129-2.143-0.373
								c-0.682-0.267-1.314-0.653-1.881-1.125c-1.106-0.966-1.934-2.33-2.102-3.866c-0.2-1.539,0.407-3.122,1.408-4.277
								c0.517-0.564,1.09-1.077,1.726-1.487l0.478-0.307l0.12-0.077c0.036-0.021,0.004-0.008,0.096-0.056l0.062-0.029l0.246-0.115
								c0.338-0.147,0.626-0.33,1.046-0.423c1.563-0.489,3.189-0.327,4.655,0.215c1.467,0.543,2.768,1.42,3.932,2.423
								c1.17,1.004,2.197,2.161,3.114,3.397c1.847,2.465,3.28,5.248,4.282,8.198c0.974,2.948,1.559,6.122,1.114,9.322
								c-0.227,1.587-0.749,3.178-1.676,4.552c-0.462,0.688-1.028,1.3-1.652,1.842c-0.34,0.252-0.636,0.491-1.016,0.748
								l-0.991,0.579c-0.767,0.362-1.498,0.736-2.422,0.83c-0.452,0.052-0.961,0.031-1.47-0.173
								c-0.246-0.094-0.484-0.281-0.691-0.453c-0.164-0.211-0.38-0.422-0.458-0.661c-0.428-0.953-0.334-1.865-0.173-2.684
								c0.176-0.826,0.484-1.594,0.887-2.302c0.397-0.711,0.876-1.377,1.457-1.954c0.565-0.59,1.232-1.098,1.98-1.47
								c1.481-0.802,3.332-0.873,4.878-0.331c1.566,0.526,2.835,1.522,3.911,2.594c0.567,0.522,1.016,1.125,1.508,1.694l0.045,0.054
								l0.074,0.107l0.074,0.114l0.147,0.227l0.294,0.453c0.196,0.302,0.401,0.587,0.552,0.97c1.372,2.862,1.612,5.805,1.55,8.638
								c-0.087,2.833-0.536,5.552-1.102,8.153c-1.174,5.199-2.854,9.932-4.545,14.226c-1.697,4.295-3.481,8.13-5.122,11.495
								c-1.645,3.364-3.165,6.252-4.449,8.612c-2.574,4.718-4.192,7.343-4.192,7.343l-1.324-0.807c0,0,1.586-2.594,4.125-7.29
								c1.266-2.349,2.765-5.223,4.385-8.567c1.612-3.346,3.365-7.155,5.07-11.389c1.687-4.236,3.361-8.901,4.525-13.967
								c0.561-2.532,1.003-5.166,1.096-7.856c0.004-0.671,0.056-1.35-0.012-2.02c-0.045-0.672-0.059-1.354-0.195-2.014l-0.16-1.002
								c-0.074-0.328-0.179-0.647-0.267-0.972c-0.15-0.675-0.432-1.246-0.685-1.838c-0.097-0.296-0.31-0.6-0.506-0.902l-0.293-0.455
								l-0.147-0.228l-0.073-0.114c0.004,0.004-0.06-0.09-0.001-0.005l-0.042-0.05c-0.454-0.524-0.871-1.094-1.38-1.561
								c-0.968-0.979-2.085-1.837-3.332-2.255c-1.237-0.426-2.586-0.385-3.756,0.235c-0.589,0.289-1.135,0.696-1.607,1.187
								c-0.486,0.476-0.896,1.042-1.234,1.643c-0.346,0.597-0.605,1.249-0.745,1.901c-0.144,0.642-0.154,1.328,0.054,1.768
								c0.177,0.44,0.582,0.56,1.199,0.508c0.605-0.045,1.269-0.365,1.874-0.644l0.986-0.571l0.826-0.61
								c0.528-0.458,1.007-0.97,1.402-1.552c0.793-1.162,1.259-2.547,1.474-3.978c0.441-2.882-0.056-5.907-0.958-8.732
								c-0.923-2.831-2.273-5.532-4.012-7.909c-1.717-2.365-3.89-4.494-6.491-5.529c-1.282-0.505-2.727-0.627-3.961-0.261
								c-0.303,0.042-0.648,0.241-0.975,0.38l-0.248,0.112l-0.062,0.028c0.053-0.026-0.02,0.016-0.02,0.016l-0.11,0.069
								l-0.439,0.274c-0.585,0.367-1.095,0.818-1.555,1.303c-0.876,0.998-1.383,2.287-1.235,3.572
								c0.121,1.284,0.816,2.478,1.772,3.334c0.49,0.417,1.037,0.76,1.625,0.999c0.595,0.217,1.217,0.345,1.841,0.344
								c1.247-0.026,2.449-0.546,3.378-1.378c0.933-0.833,1.659-1.888,2.195-3.012c0.281-0.558,0.504-1.121,0.722-1.706
								c0.195-0.607,0.414-1.176,0.521-1.765c0.33-1.166,0.328-2.362,0.259-3.514c-0.175-1.141-0.449-2.259-0.969-3.257
								c-0.959-2.036-2.521-3.624-4.081-4.964c-1.586-1.333-3.262-2.393-4.885-3.291c-3.258-1.789-6.308-2.948-8.834-3.818
								c-2.533-0.861-4.566-1.408-5.956-1.759C220.652,86.763,219.901,86.615,219.901,86.615z"/>
						</g>
						<g>
							<path style="fill:#352C38;" d="M249.636,170.827c0,0-0.366-1.033-0.559-2.852c-0.098-0.91-0.154-2.02-0.114-3.317
								c0.051-1.296,0.087-2.788,0.06-4.457c-0.068-3.332-0.315-7.4-1.294-11.911c-0.956-4.49-2.703-9.495-6.065-13.922
								c-1.666-2.214-3.827-4.176-6.375-5.706c-2.55-1.533-5.497-2.593-8.649-3.203c-6.346-1.019-13.388-0.477-20.265,1.383
								c-3.384,0.994-6.782,2.377-9.487,4.677c-1.332,1.149-2.513,2.501-3.256,4.086c-0.775,1.565-1.136,3.33-1.064,5.104
								c0.138,3.57,1.923,7.059,4.492,9.704c2.565,2.639,6.047,4.584,9.722,4.74c1.825,0.09,3.652-0.347,5.246-1.228
								c1.606-0.871,2.95-2.199,4.052-3.692c2.165-3.052,3.391-6.726,4.148-10.409c0.781-3.688,1.11-7.461,0.661-11.111
								c-0.425-3.644-1.761-7.138-3.974-9.925c-2.21-2.792-5.22-4.816-8.428-6.062c-3.212-1.265-6.611-1.825-9.907-1.878
								c-3.297-0.046-6.532,0.398-9.462,1.414c-1.459,0.512-2.846,1.176-4.033,2.063c-1.167,0.884-2.158,2.054-2.405,3.429
								c-0.134,0.697-0.042,1.344,0.145,2.048c0.061,0.362,0.25,0.622,0.362,0.939c0.075,0.146,0.19,0.269,0.282,0.405
								c0.095,0.135,0.188,0.272,0.326,0.362c0.456,0.482,1.131,0.634,1.76,0.689c0.325-0.004,0.649-0.001,0.967-0.085
								c0.323-0.043,0.63-0.153,0.935-0.261c2.435-0.943,4.264-2.858,5.449-4.845c1.157-2.014,1.599-4.34,0.968-6.277
								c-0.581-1.952-1.945-3.387-3.321-4.341c-1.395-0.951-2.765-1.624-4.005-2.062c-1.223-0.494-2.32-0.744-3.191-1.003
								c-1.777-0.385-2.725-0.591-2.725-0.591s0.95,0.195,2.732,0.561c0.874,0.25,1.975,0.488,3.207,0.969
								c1.249,0.426,2.632,1.086,4.05,2.03c1.398,0.947,2.805,2.386,3.425,4.385c0.67,1.984,0.241,4.382-0.921,6.454
								c-1.195,2.046-3.02,4.017-5.551,5.034c-0.319,0.116-0.64,0.235-0.986,0.286c-0.336,0.091-0.69,0.096-1.045,0.102
								c-0.694-0.048-1.468-0.22-2.001-0.763c-0.158-0.105-0.266-0.256-0.375-0.406c-0.106-0.151-0.235-0.29-0.322-0.455
								c-0.135-0.34-0.352-0.688-0.411-1.034c-0.189-0.665-0.321-1.473-0.174-2.216c0.261-1.533,1.327-2.795,2.536-3.733
								c1.232-0.942,2.654-1.639,4.145-2.181c2.992-1.074,6.28-1.56,9.645-1.551c3.363,0.019,6.844,0.549,10.17,1.816
								c3.319,1.247,6.482,3.313,8.833,6.217c2.356,2.896,3.795,6.558,4.277,10.339c0.508,3.79,0.206,7.677-0.55,11.46
								c-0.739,3.777-1.943,7.602-4.231,10.908c-1.167,1.62-2.626,3.104-4.425,4.108c-1.783,1.016-3.871,1.533-5.923,1.458
								c-4.145-0.121-7.948-2.202-10.781-5.019c-2.828-2.832-4.882-6.603-5.117-10.713c-0.116-2.038,0.273-4.124,1.15-5.966
								c0.845-1.865,2.177-3.436,3.65-4.745c2.995-2.618,6.606-4.125,10.15-5.231c7.124-2.042,14.41-2.757,21.258-1.719
								c3.405,0.618,6.657,1.741,9.504,3.413c2.845,1.666,5.277,3.837,7.139,6.255c3.705,4.885,5.503,10.253,6.5,14.967
								c1.011,4.746,1.247,8.958,1.306,12.406c0.018,1.726-0.012,3.267-0.087,4.605c-0.084,1.338-0.3,2.467-0.572,3.367
								C250.312,169.943,249.636,170.827,249.636,170.827z"/>
						</g>
						<g>
							<path style="fill:#352C38;" d="M313.39,234.636c0,0,3.257-0.338,8.979-0.309c2.859,0.02,6.334,0.151,10.299,0.557
								c3.955,0.439,8.432,1.125,13.098,2.706c2.32,0.808,4.693,1.832,6.931,3.284c2.227,1.445,4.324,3.374,5.749,5.865
								c1.442,2.477,2.099,5.456,2.023,8.45c-0.065,0.745-0.13,1.495-0.195,2.248c-0.077,0.752-0.28,1.486-0.415,2.236
								c-0.129,0.755-0.346,1.5-0.557,2.219c-0.242,0.73-0.487,1.479-0.798,2.19c-1.186,2.868-3.074,5.6-5.745,7.489
								c-2.653,1.902-5.994,2.827-9.294,2.765c-3.308-0.044-6.603-0.936-9.539-2.536c-1.464-0.806-2.845-1.8-4.019-3.037
								c-1.163-1.227-2.151-2.753-2.435-4.541c-0.137-0.887-0.057-1.823,0.242-2.676c0.296-0.856,0.793-1.619,1.379-2.268
								c1.205-1.274,2.688-2.164,4.216-2.833c3.07-1.344,6.319-1.98,9.526-2.436c6.379-0.812,12.968-0.955,18.932,0.984
								c2.949,0.977,5.768,2.477,7.838,4.726c2.119,2.186,3.436,5.017,3.828,7.875c0.384,2.859-0.06,5.755-1.307,8.177
								c-0.621,1.206-1.414,2.321-2.437,3.175c-1.015,0.853-2.241,1.446-3.516,1.625c-0.638,0.127-1.269,0.063-1.908,0.006
								c-0.296-0.056-0.587-0.097-0.883-0.164c-0.302-0.1-0.611-0.174-0.899-0.301c-0.565-0.259-1.134-0.648-1.413-1.281
								c-0.273-0.654-0.068-1.331,0.186-1.856c0.568-1.062,1.446-1.802,2.33-2.412c0.896-0.604,1.84-1.063,2.785-1.42
								c1.903-0.671,3.822-0.939,5.559-0.718c1.738,0.197,3.265,0.844,4.417,1.712c2.311,1.78,3.254,3.974,3.777,5.381
								c0.303,0.706,0.4,1.293,0.525,1.668c0.107,0.381,0.162,0.578,0.162,0.578s-0.059-0.195-0.174-0.574
								c-0.133-0.372-0.241-0.955-0.558-1.654c-0.548-1.392-1.54-3.554-3.84-5.249c-1.146-0.827-2.645-1.424-4.339-1.581
								c-1.692-0.181-3.556,0.119-5.39,0.808c-0.91,0.365-1.816,0.83-2.663,1.427c-0.835,0.596-1.651,1.337-2.12,2.267
								c-0.21,0.458-0.34,0.979-0.145,1.414c0.198,0.43,0.632,0.745,1.128,0.964c0.248,0.106,0.519,0.165,0.779,0.253
								c0.282,0.06,0.584,0.101,0.878,0.152c0.548,0.036,1.145,0.097,1.712-0.03c1.148-0.176,2.252-0.722,3.179-1.517
								c0.933-0.796,1.665-1.849,2.236-2.99c1.15-2.292,1.539-5.052,1.145-7.745c-0.404-2.695-1.669-5.333-3.685-7.365
								c-1.973-2.083-4.638-3.518-7.484-4.442c-2.861-0.925-5.933-1.335-9.045-1.443c-3.118-0.108-6.268,0.186-9.448,0.574
								c-3.147,0.458-6.327,1.104-9.229,2.392c-1.445,0.637-2.804,1.479-3.845,2.589c-1.025,1.115-1.575,2.581-1.331,4.043
								c0.22,1.461,1.062,2.832,2.127,3.96c1.069,1.139,2.36,2.084,3.741,2.853c2.769,1.53,5.913,2.398,9.04,2.454
								c3.121,0.061,6.245-0.757,8.761-2.498c2.529-1.732,4.37-4.291,5.558-7.047c0.314-0.688,0.553-1.389,0.8-2.095
								c0.227-0.735,0.443-1.439,0.578-2.168c0.142-0.727,0.352-1.443,0.436-2.171c0.074-0.73,0.147-1.456,0.22-2.179
								c0.112-2.897-0.479-5.764-1.836-8.174c-1.34-2.422-3.353-4.333-5.523-5.784c-2.18-1.458-4.514-2.506-6.806-3.339
								c-4.611-1.634-9.07-2.383-13.012-2.875c-3.953-0.477-7.43-0.585-10.287-0.629C316.649,234.312,313.39,234.636,313.39,234.636
								z"/>
						</g>
						<g>
							<path style="fill:#352C38;" d="M207.909,165.37c0,0,0-0.12-0.001-0.352c-0.008-0.226-0.008-0.557-0.049-1.004
								c-0.045-0.889-0.229-2.191-0.558-3.824c-0.403-1.615-0.925-3.585-1.923-5.682c-1.004-2.078-2.297-4.384-4.228-6.485
								c-0.231-0.27-0.465-0.543-0.702-0.818c-0.245-0.267-0.531-0.5-0.798-0.756c-0.545-0.501-1.1-1.012-1.665-1.531
								c-0.623-0.449-1.257-0.905-1.9-1.369c-0.325-0.227-0.637-0.478-0.979-0.69c-0.353-0.195-0.709-0.391-1.066-0.588
								c-0.716-0.394-1.442-0.793-2.177-1.196c-0.778-0.318-1.566-0.639-2.362-0.964c-0.398-0.163-0.798-0.326-1.2-0.491
								c-0.4-0.169-0.834-0.255-1.253-0.388c-0.845-0.244-1.698-0.491-2.559-0.739c-3.484-0.923-7.163-1.552-10.924-1.866
								c-3.744-0.272-7.641-0.248-11.262,0.817c-1.795,0.525-3.529,1.333-4.818,2.598c-1.287,1.258-1.9,3.065-1.539,4.805
								c0.32,1.748,1.382,3.314,2.625,4.613c0.246,0.255,0.682,0.637,1.009,0.847l0.516,0.283c0.185,0.072,0.387,0.113,0.578,0.175
								c0.787,0.17,1.611,0.005,2.35-0.371c1.468-0.822,2.559-2.255,3.322-3.757c0.774-1.511,1.26-3.133,1.507-4.742
								c0.521-3.229-0.047-6.4-1.29-8.96c-1.304-2.543-3.23-4.449-5.184-5.722c-1.967-1.272-3.901-2.008-5.51-2.511
								c-1.625-0.46-2.927-0.747-3.827-0.866c-0.896-0.146-1.374-0.223-1.374-0.223s0.48,0.064,1.38,0.184
								c0.904,0.093,2.216,0.342,3.863,0.758c1.633,0.459,3.604,1.143,5.645,2.381c2.027,1.235,4.076,3.139,5.473,5.762
								c1.343,2.633,1.997,5.922,1.519,9.296c-0.226,1.682-0.699,3.387-1.487,5.004c-0.78,1.607-1.918,3.171-3.627,4.163
								c-0.867,0.46-1.923,0.697-2.947,0.484c-0.249-0.072-0.504-0.127-0.747-0.221l-0.705-0.382
								c-0.254-0.125-0.379-0.29-0.575-0.434l-0.269-0.223c-0.058-0.052-0.061-0.041-0.163-0.145l-0.124-0.131
								c-1.333-1.369-2.53-3.046-2.932-5.076c-0.201-1.002-0.17-2.08,0.148-3.081c0.313-1.003,0.895-1.907,1.614-2.647
								c1.468-1.469,3.35-2.349,5.25-2.928c3.841-1.135,7.836-1.155,11.668-0.891c3.837,0.309,7.589,0.943,11.124,1.869
								c0.885,0.253,1.762,0.504,2.631,0.753c0.431,0.136,0.875,0.222,1.288,0.398c0.415,0.172,0.827,0.343,1.237,0.513
								c0.82,0.34,1.63,0.677,2.432,1.01c0.76,0.422,1.51,0.84,2.25,1.251c0.369,0.207,0.736,0.413,1.1,0.617
								c0.353,0.223,0.678,0.484,1.014,0.722c0.665,0.486,1.321,0.965,1.965,1.435c0.585,0.544,1.161,1.078,1.725,1.603
								c0.277,0.268,0.572,0.513,0.826,0.792c0.245,0.288,0.487,0.574,0.727,0.856c2.005,2.195,3.317,4.619,4.32,6.79
								c1.001,2.19,1.51,4.233,1.899,5.906c0.315,1.693,0.483,3.036,0.517,3.962c0.034,0.458,0.03,0.824,0.035,1.066
								c-0.003,0.237-0.005,0.36-0.005,0.36L207.909,165.37z"/>
						</g>
						<g>
							<path style="fill:#352C38;" d="M140.683,144.496c1.638,0.162,3.272,0.542,4.762,1.27c0.732,0.38,1.438,0.852,1.968,1.501
								c0.53,0.643,0.869,1.46,0.886,2.303c0.049,1.702-0.788,3.256-1.689,4.618c-0.91,1.372-1.744,2.793-2.352,4.313
								c-0.295,0.76-0.534,1.545-0.626,2.343c-0.096,0.792-0.025,1.623,0.389,2.28c0.387,0.676,1.121,1.072,1.876,1.284
								c0.766,0.211,1.58,0.259,2.389,0.243c1.623-0.064,3.239-0.376,4.826-0.775c1.588-0.404,3.152-0.906,4.702-1.451
								c1.535-0.573,3.11-1.128,4.771-1.456c1.648-0.313,3.333-0.404,5.007-0.326c1.678,0.07,3.335,0.386,4.95,0.816
								c1.615,0.438,3.193,1.016,4.703,1.73c3.028,1.414,5.848,3.24,8.447,5.32c1.301,1.04,2.555,2.138,3.754,3.294
								c1.207,1.159,2.319,2.367,3.54,3.57l0.005,0.007l2.701,3.411l-3.658-2.383l-3.781-2.464
								c-1.318-0.719-2.601-1.511-3.949-2.173c-1.368-0.613-2.691-1.345-4.114-1.824l-2.106-0.795l-2.161-0.618
								c-0.361-0.099-0.719-0.215-1.083-0.301l-1.102-0.213c-0.737-0.128-1.467-0.317-2.211-0.396l-2.235-0.226
								c-0.746-0.072-1.496-0.03-2.244-0.051c-0.75-0.034-1.496,0.033-2.242,0.104c-0.747,0.062-1.496,0.107-2.23,0.267
								c-1.486,0.215-2.935,0.611-4.375,1.037l-2.118,0.772l-2.055,0.933c-1.341,0.682-2.655,1.424-3.906,2.27
								c-1.253,0.839-2.462,1.749-3.609,2.733c-1.156,0.973-2.256,2.016-3.304,3.108c-2.099,2.182-4.009,4.552-5.719,7.059
								c-1.7,2.512-3.26,5.131-4.524,7.896c1.21-2.79,2.72-5.443,4.376-7.995c1.666-2.547,3.537-4.965,5.609-7.204
								c1.034-1.121,2.123-2.194,3.271-3.2c1.14-1.017,2.346-1.962,3.6-2.838c1.252-0.882,2.572-1.663,3.926-2.384l2.077-0.992
								l2.15-0.831c1.465-0.465,2.944-0.899,4.465-1.151c0.752-0.178,1.52-0.24,2.287-0.319c0.766-0.087,1.533-0.17,2.305-0.152
								c0.77,0.006,1.544-0.05,2.312,0.008l2.305,0.188c0.768,0.067,1.521,0.245,2.282,0.362l1.14,0.198
								c0.376,0.082,0.745,0.192,1.118,0.287l2.234,0.593l2.175,0.772c1.473,0.465,2.837,1.183,4.252,1.787
								c1.393,0.651,2.717,1.432,4.08,2.143l3.906,2.438l-0.957,1.028l-0.005-0.005c-0.874-1.345-2.041-2.529-3.187-3.68
								c-1.159-1.15-2.373-2.245-3.634-3.283c-2.518-2.077-5.251-3.902-8.181-5.323c-1.462-0.717-2.986-1.3-4.546-1.748
								c-1.561-0.44-3.16-0.771-4.781-0.861c-1.617-0.098-3.246-0.035-4.846,0.245c-1.583,0.288-3.138,0.803-4.7,1.363
								c-1.57,0.527-3.156,1.011-4.771,1.397c-1.614,0.381-3.26,0.676-4.937,0.718c-0.837,0.004-1.687-0.055-2.509-0.295
								c-0.807-0.237-1.637-0.694-2.074-1.478c-0.462-0.764-0.514-1.676-0.402-2.505c0.11-0.839,0.369-1.641,0.681-2.413
								c0.64-1.538,1.508-2.964,2.439-4.325c0.915-1.338,1.749-2.848,1.726-4.493c-0.005-0.814-0.319-1.604-0.826-2.24
								c-0.507-0.641-1.197-1.118-1.917-1.505C143.945,145.086,142.318,144.682,140.683,144.496z"/>
						</g>
						<g>
							<path style="fill:#352C38;" d="M126.61,244.824c0,0,0.119-0.416,0.391-1.179c0.272-0.763,0.696-1.875,1.34-3.245
								c0.659-1.359,1.511-3.004,2.811-4.674c0.652-0.83,1.417-1.668,2.359-2.398c0.943-0.719,2.081-1.33,3.385-1.567
								c1.303-0.235,2.722-0.012,4.027,0.543c0.667,0.278,1.278,0.613,1.876,1.102c0.57,0.453,1.104,1.203,0.986,2.064
								c-0.111,0.846-0.718,1.493-1.363,1.939c-0.66,0.453-1.411,0.755-2.19,0.955c-1.557,0.403-3.281,0.355-4.871-0.261
								c-0.787-0.326-1.519-0.805-2.146-1.412c-0.597-0.634-1.092-1.371-1.431-2.18c-0.696-1.618-0.82-3.407-0.748-5.14
								c0.209-3.452,1.277-6.963,3.117-9.978c1.783-3.063,4.309-5.691,7.244-7.629c2.945-1.925,6.31-3.13,9.669-3.497
								c3.361-0.426,6.668,0.021,9.631,0.857c2.974,0.848,5.615,2.127,7.916,3.492c1.134,0.71,2.216,1.401,3.184,2.137
								c1.007,0.69,1.878,1.442,2.721,2.123c1.649,1.4,3.022,2.697,4.092,3.816c1.109,1.088,1.884,2.022,2.443,2.636
								c0.551,0.62,0.846,0.95,0.846,0.95l-2.534,2.051c0,0-0.265-0.328-0.763-0.943c-0.504-0.609-1.204-1.543-2.207-2.624
								c-0.968-1.116-2.211-2.406-3.707-3.806c-1.504-1.39-3.283-2.872-5.384-4.246c-2.107-1.353-4.52-2.629-7.236-3.509
								c-2.707-0.869-5.724-1.39-8.823-1.107c-3.097,0.225-6.243,1.22-9.06,2.919c-2.804,1.713-5.289,4.103-7.086,6.959
								c-0.905,1.422-1.646,2.953-2.172,4.551c-0.524,1.569-0.905,3.247-1.023,4.902c-0.108,1.646-0.023,3.323,0.575,4.799
								c0.29,0.74,0.717,1.403,1.233,1.982c0.545,0.551,1.187,0.994,1.891,1.307c1.423,0.591,3.036,0.683,4.501,0.338
								c0.732-0.169,1.44-0.437,2.048-0.834c0.601-0.391,1.115-0.95,1.21-1.6c0.113-0.651-0.286-1.292-0.812-1.731
								c-0.504-0.44-1.143-0.816-1.759-1.085c-1.247-0.564-2.599-0.809-3.861-0.613c-1.26,0.201-2.393,0.76-3.33,1.461
								c-0.936,0.709-1.704,1.531-2.361,2.348c-1.311,1.645-2.18,3.277-2.853,4.626c-0.658,1.361-1.095,2.467-1.375,3.227
								C126.734,244.41,126.61,244.824,126.61,244.824z"/>
						</g>
						<g>
							<path style="fill:#352C38;" d="M158.388,285.682c0,0-0.251-0.847-0.524-2.366c-0.273-1.518-0.559-3.712-0.61-6.363
								c-0.035-1.325,0.014-2.765,0.162-4.28c0.126-1.52,0.434-3.101,0.797-4.729c0.411-1.617,0.947-3.266,1.666-4.876
								c0.742-1.595,1.596-3.189,2.673-4.633c1.011-1.496,2.246-2.824,3.509-4.084c0.665-0.591,1.328-1.18,2.005-1.734
								c0.707-0.511,1.389-1.049,2.098-1.519c0.723-0.449,1.435-0.89,2.131-1.322c0.722-0.389,1.428-0.769,2.116-1.139
								c0.696-0.355,1.398-0.64,2.067-0.948c0.667-0.317,1.329-0.571,1.97-0.797c0.64-0.237,1.253-0.464,1.837-0.68
								c0.592-0.186,1.153-0.363,1.681-0.529c1.057-0.34,1.985-0.616,2.759-0.786c1.544-0.394,2.426-0.619,2.426-0.619l0.584,3.82
								c0,0-0.852,0.09-2.343,0.248c-0.752,0.066-1.648,0.213-2.674,0.404c-0.515,0.092-1.063,0.19-1.641,0.293
								c-0.566,0.144-1.162,0.296-1.784,0.455c-0.626,0.151-1.273,0.325-1.923,0.559c-0.652,0.225-1.345,0.425-2.03,0.691
								c-0.68,0.281-1.379,0.57-2.093,0.865c-0.699,0.327-1.385,0.715-2.102,1.08c-0.699,0.393-1.374,0.851-2.081,1.283
								c-0.675,0.475-1.34,0.983-2.013,1.495c-1.276,1.101-2.549,2.273-3.616,3.632c-1.106,1.328-2.006,2.816-2.808,4.323
								c-0.779,1.522-1.387,3.101-1.874,4.665c-0.45,1.573-0.803,3.126-0.985,4.623c-0.202,1.493-0.305,2.92-0.319,4.238
								c-0.056,2.64,0.227,4.835,0.458,6.356C158.153,284.83,158.388,285.682,158.388,285.682z"/>
						</g>
						<g>
							<path style="fill:#352C38;" d="M165.197,292.491c0.79,1.163,1.795,2.161,2.919,2.938c1.122,0.783,2.405,1.287,3.708,1.476
								c0.653,0.087,1.31,0.137,1.965,0.069c0.327-0.014,0.653-0.059,0.976-0.126c0.325-0.045,0.644-0.128,0.961-0.222
								c0.32-0.077,0.633-0.181,0.941-0.307c0.31-0.116,0.621-0.225,0.919-0.38c0.608-0.266,1.188-0.603,1.765-0.94
								c0.563-0.366,1.128-0.726,1.665-1.137c0.542-0.403,1.081-0.807,1.59-1.261c0.525-0.428,1.022-0.894,1.512-1.369
								c0.503-0.457,0.969-0.962,1.443-1.454c0.485-0.48,0.938-0.998,1.393-1.512c0.463-0.506,0.909-1.028,1.339-1.567
								c0.433-0.536,0.883-1.054,1.293-1.612l0.628-0.823c0.228-0.26,0.55-0.443,1.233-0.354l0.001-0.002l1.029,0.865
								c-1.753,1.882-3.425,3.894-4.995,5.957c-1.563,2.073-3.037,4.22-4.294,6.488c-1.25,2.262-2.328,4.665-2.722,7.221
								l-0.085,0.962c-0.005,0.321,0.011,0.642,0.015,0.964c0.033,0.319,0.092,0.635,0.137,0.954l0.281,0.923
								c0.148,0.285,0.275,0.584,0.44,0.86c0.197,0.255,0.368,0.534,0.587,0.772c0.237,0.22,0.457,0.464,0.71,0.667l0.803,0.561
								l-0.829-0.527c-0.263-0.194-0.495-0.429-0.746-0.643c-0.233-0.232-0.419-0.507-0.631-0.761
								c-0.181-0.275-0.325-0.575-0.49-0.864c-0.115-0.31-0.228-0.623-0.331-0.939c-0.06-0.325-0.136-0.651-0.183-0.979
								c-0.019-0.331-0.05-0.663-0.059-0.995l0.045-0.995c0.292-2.646,1.291-5.144,2.461-7.496c1.179-2.361,2.579-4.599,4.071-6.767
								c1.506-2.164,3.092-4.252,4.819-6.273l1.029,0.865l-0.001,0.002c0.245,0.637,0.127,1.003-0.084,1.291l-0.69,0.822
								c-0.45,0.554-0.948,1.075-1.425,1.609c-0.474,0.537-0.966,1.06-1.477,1.567c-0.502,0.514-1.001,1.03-1.539,1.515
								c-0.53,0.49-1.055,0.982-1.623,1.436c-0.552,0.467-1.112,0.926-1.706,1.35c-0.572,0.445-1.185,0.846-1.799,1.242
								c-0.607,0.403-1.271,0.734-1.918,1.077c-0.668,0.314-1.337,0.623-2.043,0.859c-0.342,0.138-0.705,0.232-1.064,0.33
								c-0.355,0.108-0.718,0.192-1.09,0.248c-0.366,0.073-0.734,0.132-1.111,0.151c-0.372,0.041-0.746,0.058-1.122,0.041
								c-0.749,0.006-1.498-0.117-2.223-0.285c-1.444-0.392-2.767-1.131-3.842-2.097
								C166.669,294.935,165.792,293.771,165.197,292.491z"/>
						</g>
						<g>
							<path style="fill:#352C38;" d="M324.541,313.374c0.371-0.307,0.699-0.661,0.984-1.045c0.28-0.386,0.546-0.786,0.727-1.226
								c0.227-0.42,0.322-0.889,0.462-1.337c0.047-0.468,0.167-0.93,0.128-1.4c-0.031-0.469-0.012-0.937-0.151-1.392
								c-0.105-0.456-0.179-0.917-0.386-1.345c-0.196-0.427-0.302-0.886-0.568-1.282l-0.708-1.216
								c-0.265-0.388-0.568-0.753-0.849-1.13c-0.284-0.375-0.56-0.754-0.904-1.085l-0.977-1.027
								c-0.312-0.353-0.67-0.665-1.031-0.974c-0.73-0.609-1.389-1.285-2.171-1.835l-2.279-1.708l1.006-1.145l0.004,0.004
								c1.015,1.009,2.12,1.992,3.237,2.926c1.125,0.932,2.269,1.841,3.449,2.698c2.362,1.708,4.862,3.232,7.518,4.361
								c2.648,1.107,5.51,1.792,8.296,1.47c1.386-0.165,2.73-0.612,3.934-1.325l0.874-0.57l0.883-0.673
								c0.551-0.45,1.095-0.917,1.591-1.428c0.496-0.507,0.94-1.056,1.264-1.639c0.314-0.578,0.477-1.219,0.25-1.695
								c-0.2-0.49-0.802-0.823-1.44-0.972c-0.649-0.147-1.353-0.148-2.031-0.03c-1.331,0.242-2.697,1.017-3.018,2.309
								c-0.338,1.291,0.317,2.713,1.167,3.833c0.868,1.143,1.99,2.106,3.233,2.853c1.246,0.739,2.623,1.296,4.066,1.491
								c1.434,0.215,2.945,0.035,4.261-0.609c1.331-0.623,2.404-1.714,3.227-2.936c-0.777,1.25-1.816,2.392-3.154,3.08
								c-1.322,0.708-2.88,0.953-4.372,0.784c-1.501-0.152-2.952-0.665-4.263-1.404c-1.311-0.742-2.505-1.708-3.461-2.899
								c-0.476-0.595-0.891-1.254-1.17-1.989c-0.283-0.709-0.408-1.595-0.217-2.374c0.187-0.814,0.711-1.532,1.368-1.998
								c0.653-0.48,1.405-0.781,2.177-0.948c0.775-0.156,1.579-0.182,2.379-0.024c0.771,0.166,1.669,0.543,2.101,1.433
								c0.43,0.897,0.138,1.854-0.214,2.554c-0.376,0.721-0.861,1.341-1.383,1.907c-0.52,0.566-1.087,1.079-1.67,1.581l-0.865,0.696
								c-0.326,0.241-0.643,0.447-0.967,0.671c-1.321,0.833-2.829,1.38-4.374,1.605c-3.118,0.462-6.218-0.306-9.018-1.425
								c-2.811-1.156-5.415-2.707-7.868-4.436c-1.226-0.867-2.416-1.783-3.556-2.756c-1.146-0.974-2.249-1.966-3.327-3.052
								l-0.004-0.005l1.006-1.145l2.224,1.909c0.757,0.612,1.405,1.364,2.11,2.038c0.349,0.342,0.694,0.687,0.998,1.077l0.942,1.131
								c0.329,0.362,0.595,0.78,0.867,1.192c0.268,0.413,0.556,0.812,0.805,1.235l0.659,1.327c0.246,0.427,0.336,0.932,0.509,1.392
								c0.184,0.46,0.236,0.96,0.313,1.448c0.111,0.484,0.063,0.987,0.061,1.479c0.006,0.494-0.15,0.977-0.233,1.457
								c-0.176,0.461-0.308,0.936-0.569,1.353c-0.216,0.438-0.515,0.829-0.824,1.2C325.286,312.758,324.931,313.092,324.541,313.374
								z"/>
						</g>
						<g>
							<path style="fill:#352C38;" d="M383.196,221.131c0,0,0.683-0.724,1.72-2.106c1.033-1.376,2.422-3.446,3.519-6.153
								c0.543-1.35,0.974-2.879,1.09-4.514c0.113-1.629-0.114-3.361-0.818-4.969c-0.331-0.812-0.809-1.576-1.352-2.302l-0.429-0.533
								l-0.107-0.134l-0.099-0.098l-0.256-0.256l-1.021-1.039c-0.332-0.374-0.721-0.597-1.078-0.906
								c-0.375-0.279-0.708-0.601-1.117-0.851c-0.824-0.485-1.594-1.065-2.486-1.441l-1.293-0.638l-1.35-0.509
								c-0.886-0.377-1.829-0.579-2.743-0.842c-0.919-0.248-1.863-0.365-2.777-0.563c-0.93-0.103-1.849-0.222-2.758-0.286
								c-0.911-0.015-1.808-0.078-2.686-0.054c-0.876,0.048-1.743,0.025-2.575,0.129c-0.831,0.108-1.651,0.154-2.427,0.304
								c-0.775,0.154-1.531,0.278-2.247,0.442c-0.709,0.192-1.389,0.376-2.036,0.551c-0.646,0.181-1.238,0.416-1.807,0.603
								c-0.283,0.098-0.558,0.194-0.822,0.286c-0.256,0.114-0.503,0.223-0.739,0.328c-0.475,0.211-0.912,0.405-1.306,0.58
								c-0.771,0.385-1.36,0.727-1.772,0.941c-0.41,0.221-0.628,0.339-0.628,0.339s0.205-0.14,0.588-0.401
								c0.39-0.251,0.935-0.672,1.686-1.113c0.384-0.207,0.808-0.436,1.271-0.686c0.232-0.125,0.473-0.255,0.724-0.39
								c0.26-0.114,0.53-0.232,0.809-0.353c0.561-0.234,1.147-0.52,1.79-0.755c0.651-0.213,1.335-0.437,2.05-0.67
								c0.724-0.202,1.49-0.366,2.279-0.561c0.79-0.191,1.626-0.279,2.477-0.43c0.853-0.147,1.743-0.167,2.648-0.259
								c0.906-0.078,1.837-0.015,2.783-0.028c0.944,0.043,1.903,0.142,2.874,0.228c0.959,0.175,1.946,0.284,2.911,0.54
								c0.961,0.267,1.95,0.474,2.889,0.861l1.428,0.527l1.376,0.666c0.937,0.408,1.762,1.029,2.631,1.555
								c0.431,0.269,0.815,0.635,1.222,0.948c0.383,0.334,0.84,0.632,1.155,0.994l1.011,1.049l0.249,0.262l0.151,0.163l0.115,0.15
								l0.459,0.598c0.581,0.816,1.091,1.68,1.442,2.598c0.762,1.816,0.902,3.772,0.697,5.52c-0.209,1.761-0.743,3.345-1.372,4.72
								c-0.616,1.386-1.36,2.557-2.064,3.552c-0.704,0.995-1.378,1.814-1.953,2.468
								C383.962,220.494,383.196,221.131,383.196,221.131z"/>
						</g>
					</g>
					<g>
						<path style="fill:#352C38;" d="M265.071,179.452c0,0-7.718-58.108-39.95-50.845c-32.232,7.263-23.199,40.556-5.448,47.213
							c3.632,1.362-21.834-41.439-36.318-29.962c-24.061,19.067,18.159,39.042,23.153,33.14c4.994-5.902-59.47-26.784-66.734,14.981
							c-8.634,49.646,56.747,39.496,56.747,39.496s-42.219-6.81-44.943,10.441c-2.724,17.251,34.502,1.816,34.502,1.816
							s-26.784,6.356-23.153,29.054c3.632,22.699,42.219,26.784,51.299-3.632c9.079-30.416-46.532-7.037-28.373,24.741
							c18.159,31.778,39.268-5.675,39.268-5.675l-7.263,0.908c0,0-13.165,24.969,10.441,29.054
							C251.906,324.269,265.071,179.452,265.071,179.452z"/>
						<path style="fill:#352C38;" d="M246.004,196.249c0,0,12.257-48.121,34.956-51.299c22.699-3.178,20.883,21.791,20.883,21.791
							l-8.172-3.178c0,0,6.356-24.061,19.521-22.699c13.165,1.362,2.27,18.159,2.27,18.159s10.895-18.613,34.502-5.902
							c23.607,12.711,1.362,34.502,1.362,34.502s15.435-10.441,19.521-4.994c4.086,5.448-9.533,10.895-9.533,10.895
							s20.883,0,23.607,15.435c2.724,15.435-18.613,14.981-18.613,14.981l-0.908-7.717c0,0,18.159,16.343,10.441,33.14
							c-7.717,16.797-27.692,4.086-27.692,4.086s10.895,4.994,4.54,14.073c-6.356,9.079-15.889-4.54-15.889-4.54
							s23.607,14.527,4.54,32.232c-19.067,17.705-34.956-11.349-34.956-11.349l18.613-3.178c0,0,3.405,29.735-17.932,30.189
							c-21.337,0.454-10.668-16.116-10.668-16.116s1.135,31.778-30.189,29.735c-39.276-2.561-29.281-63.783-29.281-63.783
							L246.004,196.249z"/>
					</g>
				</g>
				<g>
					<g>
						<path style="fill:#965450;" d="M342.789,321.772c-16.343-23.833-54.346,3.446-60.605,6.129
							c-14.3,6.129-7.491-42.219-7.491-42.219l-19.748-23.153c0,0-0.476,2.231-1.18,6.103c-0.704-3.872-1.18-6.103-1.18-6.103
							l-19.748,23.153c0,0,6.809,48.348-7.491,42.219c-6.259-2.682-44.262-29.962-60.605-6.129s31.324,83.758,71.501,68.096
							c8.339-3.251,13.913-10.645,17.522-20.311c3.609,9.666,9.184,17.06,17.522,20.311
							C311.465,405.53,359.132,345.606,342.789,321.772z"/>
						<path style="fill:#76413B;" d="M234.359,312.734c6.849,5.63,14.853,9.445,24.644,9.709c5.148,0.139,10.221-0.434,15.1-1.653
							c-2.622-12.299,0.59-35.108,0.59-35.108l-19.748-23.153c0,0-0.476,2.231-1.18,6.103c-0.704-3.872-1.18-6.103-1.18-6.103
							l-19.748,23.153C232.839,285.682,234.93,300.536,234.359,312.734z"/>
					</g>
					<g>
						<path style="fill:#965450;" d="M290.493,244.733c0,0,4.086-17.634,15.889-12.713c11.803,4.921,0.454,35.503-9.533,35.503
							S290.493,244.733,290.493,244.733z"/>
						<path style="fill:#965450;" d="M253.228,190.342c0,0-46.977-4.512-48.99,49.632s38.253,71.548,51.674,70.903
							c13.422-0.645,40.266-16.759,40.937-61.879C297.52,203.878,277.387,189.698,253.228,190.342z"/>
					</g>
				</g>
				<g>
					<g>
						<path style="fill:#352C38;" d="M261.439,193.071c0,0-14.981,24.061,23.606,34.956c0,0-1.816,20.883,5.902,23.607
							c7.718,2.724,6.81-19.067,6.81-19.067s9.533-4.994,12.257,4.086c2.724,9.079,16.797,19.067,25.422-10.441
							C344.062,196.703,277.782,154.484,261.439,193.071z"/>
						<g>
							<path style="fill:#352C38;" d="M283.684,252.996c-0.375-0.598-0.718-1.221-1.019-1.863c-0.308-0.64-0.564-1.302-0.818-1.967
								c-0.244-0.667-0.448-1.351-0.657-2.033c-0.155-0.695-0.366-1.383-0.474-2.089c-0.091-0.709-0.23-1.415-0.281-2.129
								c-0.034-0.715-0.092-1.433-0.105-2.151l0.091-2.157c0.066-0.716,0.201-1.426,0.299-2.142
								c0.068-0.724,0.317-1.407,0.498-2.106c0.193-0.697,0.369-1.401,0.674-2.058l0.823-2.008c0.339-0.637,0.703-1.261,1.057-1.891
								l0.535-0.943c0.198-0.301,0.421-0.585,0.63-0.878l1.278-1.745c0.421-0.586,0.951-1.078,1.429-1.614l1.473-1.575l0.766,1.08
								c-0.475,0.251-0.984,0.549-1.463,0.859c-0.487,0.305-0.958,0.639-1.426,0.975c-0.469,0.336-0.915,0.704-1.378,1.049
								l-1.32,1.125l-1.259,1.194l-1.184,1.269c-0.393,0.425-0.746,0.883-1.123,1.324c-0.387,0.434-0.704,0.919-1.044,1.388
								c-0.339,0.47-0.684,0.939-0.965,1.447c-0.294,0.5-0.605,0.992-0.887,1.5l-0.761,1.569c-0.274,0.516-0.456,1.07-0.676,1.61
								c-0.199,0.547-0.458,1.078-0.61,1.642l-0.479,1.69c-0.187,0.56-0.262,1.142-0.373,1.72l-0.332,1.739
								c0.123-1.169,0.131-2.368,0.379-3.528l0.35-1.749c0.11-0.586,0.328-1.143,0.488-1.718c0.175-0.57,0.329-1.151,0.588-1.69
								l0.705-1.65c0.265-0.536,0.559-1.057,0.838-1.588c0.266-0.539,0.597-1.038,0.924-1.541c0.328-0.501,0.635-1.021,1.012-1.488
								c0.367-0.474,0.711-0.969,1.098-1.428l1.197-1.348l1.277-1.273l1.343-1.204c0.47-0.375,0.93-0.764,1.418-1.117
								c0.486-0.355,0.976-0.707,1.485-1.033c0.509-0.334,1.015-0.639,1.58-0.943l3.462-1.856l-2.696,2.936l-1.405,1.529
								c-0.451,0.523-0.978,0.986-1.381,1.546l-1.236,1.661c-0.203,0.279-0.42,0.549-0.612,0.835l-0.515,0.895l-1.034,1.788
								l-0.828,1.89c-0.309,0.619-0.49,1.284-0.689,1.942c-0.188,0.661-0.442,1.308-0.543,1.991
								c-0.125,0.677-0.288,1.35-0.385,2.033l-0.187,2.066c-0.02,0.691,0.003,1.385,0.002,2.079
								c0.015,0.694,0.118,1.383,0.173,2.077c0.08,0.691,0.212,1.376,0.316,2.068c0.151,0.68,0.298,1.367,0.487,2.041
								C282.6,250.394,283.073,251.722,283.684,252.996z"/>
						</g>
					</g>
					<g>
						<path style="fill:#352C38;" d="M262.347,190.348c0,0-1.362,20.429-20.429,16.797c-19.067-3.632-18.159,1.816-24.968,14.527
							c-6.81,12.711-24.514,14.981-24.514-9.987C192.436,186.716,246.912,160.839,262.347,190.348z"/>
						<g>
							<g>
								<path style="fill:#352C38;" d="M224.214,215.77c0,0,0.136,0.267,0.425,0.746c0.291,0.478,0.734,1.172,1.377,1.993
									c0.645,0.814,1.485,1.777,2.635,2.636c1.133,0.846,2.66,1.597,4.369,1.462c1.723-0.135,3.328-1.231,4.739-2.673
									c1.396-1.4,2.726-3.184,3.123-5.216c0.18-0.99,0.011-2.068-0.73-2.565c-0.726-0.519-1.856-0.481-2.895-0.196
									c-1.983,0.628-4.76,1.813-3.931,3.717c0.335,0.903,1.129,1.715,2.032,2.311c0.912,0.603,1.956,1.02,3.025,1.274
									c2.15,0.512,4.401,0.28,6.375-0.443c1.973-0.757,3.686-1.968,5.084-3.353c0.719-0.674,1.311-1.442,1.902-2.163
									c0.527-0.776,1.081-1.492,1.497-2.265c0.221-0.377,0.437-0.746,0.648-1.107c0.186-0.376,0.369-0.743,0.546-1.102
									c0.377-0.705,0.68-1.403,0.95-2.067c0.591-1.304,0.951-2.509,1.309-3.475c0.319-0.981,0.524-1.769,0.686-2.299
									c0.155-0.532,0.238-0.816,0.238-0.816l1.286,0.326c0,0-0.079,0.292-0.228,0.839c-0.156,0.546-0.351,1.355-0.661,2.369
									c-0.349,1.003-0.697,2.246-1.285,3.612c-0.267,0.692-0.569,1.423-0.949,2.169c-0.183,0.376-0.371,0.761-0.563,1.155
									c-0.221,0.381-0.448,0.77-0.679,1.168c-0.435,0.811-1.022,1.581-1.581,2.405c-0.63,0.776-1.263,1.597-2.043,2.335
									c-1.511,1.505-3.401,2.87-5.639,3.686c-2.232,0.792-4.788,1.029-7.227,0.421c-1.215-0.303-2.403-0.789-3.472-1.511
									c-1.052-0.727-2.05-1.681-2.541-3.045c-0.208-0.698-0.227-1.496,0.06-2.22c0.192-0.323,0.331-0.679,0.629-0.937l0.413-0.402
									c0.13-0.1,0.25-0.169,0.376-0.255l0.186-0.123l0.093-0.061l0.047-0.031c0.117-0.071,0.062-0.035,0.102-0.058l0.413-0.21
									c0.271-0.145,0.556-0.269,0.84-0.393c0.568-0.248,1.159-0.455,1.771-0.605c0.609-0.157,1.256-0.231,1.916-0.197
									c0.656,0.039,1.354,0.225,1.929,0.658c0.586,0.423,0.951,1.093,1.088,1.741c0.144,0.655,0.105,1.298-0.011,1.898
									c-0.533,2.404-2.051,4.187-3.569,5.62c-1.489,1.418-3.332,2.61-5.26,2.679c-1.93,0.085-3.52-0.834-4.639-1.766
									c-1.142-0.951-1.936-1.971-2.544-2.826c-0.604-0.862-1.011-1.58-1.277-2.074C224.335,216.044,224.214,215.77,224.214,215.77
									z"/>
							</g>
							<g>
								<path style="fill:#352C38;" d="M261.654,196.961c0,0-0.44,1.142-1.073,3.218c-0.628,2.071-1.433,5.071-2.023,8.719
									c-0.284,1.823-0.51,3.814-0.511,5.908c0.023,2.082,0.199,4.306,0.951,6.387c0.35,1.049,0.887,2.034,1.579,2.897
									c0.327,0.452,0.753,0.811,1.157,1.197c0.46,0.317,0.895,0.677,1.418,0.91c0.487,0.295,1.048,0.452,1.585,0.661
									c0.527,0.143,1.209,0.354,1.741,0.43c0.282,0.055,0.565,0.111,0.848,0.123c0.288,0.035,0.565,0.047,0.822,0.022
									c0.533-0.023,0.948-0.199,0.988-0.397c0.113-0.206-0.002-0.743-0.259-1.208c-0.241-0.483-0.616-0.94-0.999-1.372
									c-0.797-0.853-1.747-1.587-2.766-2.153c-1.019-0.56-2.122-0.973-3.227-1.057c-1.1-0.094-2.184,0.154-3.052,0.754
									c-0.878,0.593-1.508,1.499-1.997,2.449c-0.211,0.515-0.436,0.952-0.591,1.498c-0.189,0.529-0.313,1.035-0.43,1.535
									c-0.451,2.014-0.329,4.097,0.712,5.577c1.013,1.491,2.605,2.289,4.006,2.771c1.425,0.484,2.748,0.668,3.83,0.772
									c1.086,0.099,1.947,0.103,2.533,0.091c0.586-0.012,0.898-0.039,0.898-0.039s-0.31,0.043-0.896,0.084
									c-0.585,0.041-1.448,0.08-2.546,0.034c-1.096-0.051-2.439-0.168-3.928-0.592c-1.46-0.423-3.194-1.162-4.379-2.783
									c-0.583-0.797-0.98-1.787-1.125-2.837c-0.151-1.053-0.082-2.144,0.106-3.24c0.109-0.553,0.228-1.108,0.393-1.626
									c0.127-0.524,0.378-1.101,0.581-1.636c0.495-1.068,1.198-2.133,2.252-2.891c1.045-0.766,2.409-1.106,3.712-1.019
									c1.313,0.073,2.561,0.514,3.708,1.107c1.147,0.603,2.206,1.378,3.133,2.324c0.452,0.487,0.894,0.993,1.233,1.62
									c0.093,0.147,0.171,0.312,0.238,0.488c0.071,0.172,0.147,0.338,0.181,0.545c0.042,0.199,0.096,0.387,0.074,0.627
									l-0.018,0.342c-0.026,0.117-0.074,0.239-0.118,0.357c-0.173,0.486-0.616,0.823-1.002,0.997
									c-0.387,0.154-0.786,0.253-1.135,0.258c-0.367,0.037-0.712,0.025-1.047-0.011c-0.342-0.014-0.673-0.073-1.003-0.133
									c-0.701-0.107-1.212-0.268-1.882-0.442c-0.622-0.226-1.26-0.405-1.84-0.74c-0.609-0.269-1.138-0.68-1.682-1.055
									c-0.489-0.445-0.994-0.874-1.389-1.397c-0.829-1.006-1.457-2.146-1.866-3.316c-0.882-2.335-1.046-4.717-1.074-6.915
									c0.001-2.208,0.236-4.271,0.529-6.153c0.599-3.766,1.507-6.803,2.163-8.913c0.672-2.105,1.148-3.293,1.148-3.293
									L261.654,196.961z"/>
							</g>
							<g>
								<path style="fill:#352C38;" d="M194.024,233.475c0,0,0.634,0.153,1.762,0.289c1.126,0.132,2.75,0.258,4.683,0.135
									c1.928-0.11,4.175-0.489,6.4-1.348c1.122-0.406,2.203-1.002,3.252-1.657c1.033-0.685,2.002-1.49,2.868-2.391
									c0.43-0.452,0.828-0.937,1.216-1.42c0.346-0.519,0.75-0.988,1.041-1.535c0.309-0.532,0.637-1.044,0.879-1.6
									c0.262-0.543,0.53-1.073,0.723-1.631c0.452-1.082,0.757-2.184,1.046-3.22c0.24-1.056,0.476-2.048,0.596-2.99
									c0.167-0.93,0.248-1.796,0.314-2.565c0.086-0.765,0.126-1.436,0.135-1.993c0.042-1.108,0.066-1.741,0.066-1.741l2.698,0.121
									c0,0-0.068,0.664-0.188,1.826c-0.048,0.581-0.136,1.285-0.278,2.089c-0.122,0.805-0.267,1.712-0.508,2.692
									c-0.192,0.986-0.51,2.034-0.84,3.139c-0.38,1.093-0.784,2.245-1.345,3.383c-0.247,0.582-0.572,1.141-0.894,1.708
									c-0.3,0.578-0.691,1.116-1.062,1.668c-0.352,0.564-0.825,1.055-1.235,1.587c-0.454,0.497-0.918,0.992-1.414,1.45
									c-0.999,0.913-2.096,1.708-3.244,2.364c-1.162,0.627-2.343,1.176-3.542,1.525c-2.383,0.745-4.707,0.976-6.671,0.961
									c-1.969-0.003-3.592-0.237-4.713-0.444C194.647,233.669,194.024,233.475,194.024,233.475z"/>
							</g>
						</g>
					</g>
				</g>
			</g>
			<g>
				<g>
					<path style="fill:#201923;" d="M235.563,226.665c0,0,0.021,0.571-0.153,1.546c-0.084,0.488-0.209,1.079-0.41,1.74
						c-0.212,0.654-0.442,1.413-0.813,2.184c-0.328,0.798-0.807,1.594-1.314,2.451c-0.255,0.427-0.582,0.818-0.885,1.246
						c-0.306,0.427-0.634,0.851-1.016,1.241c-0.367,0.404-0.756,0.803-1.15,1.207c-0.406,0.39-0.859,0.741-1.307,1.106
						c-0.863,0.777-1.908,1.329-2.903,1.952c-1.025,0.569-2.129,0.983-3.187,1.428c-1.099,0.328-2.196,0.6-3.25,0.844
						c-1.076,0.132-2.115,0.228-3.092,0.303c-0.979,0.048-1.907-0.068-2.751-0.117c-0.42-0.04-0.823-0.078-1.206-0.114
						c-0.381-0.038-0.739-0.156-1.074-0.222c-0.671-0.145-1.247-0.313-1.719-0.443c-0.942-0.266-1.463-0.464-1.463-0.464
						s0.559-0.156,1.505-0.347c0.473-0.092,1.043-0.216,1.687-0.309c0.647-0.074,1.362-0.279,2.133-0.464
						c0.768-0.199,1.605-0.318,2.457-0.565c0.848-0.267,1.732-0.532,2.647-0.773c0.881-0.351,1.782-0.704,2.706-1.028
						c0.859-0.468,1.793-0.811,2.643-1.31c0.84-0.512,1.731-0.949,2.503-1.544c0.391-0.289,0.808-0.54,1.191-0.827
						c0.367-0.307,0.732-0.609,1.105-0.896c0.385-0.275,0.707-0.605,1.046-0.91c0.334-0.309,0.678-0.601,0.989-0.908
						c0.601-0.632,1.221-1.208,1.72-1.806c0.538-0.572,0.994-1.132,1.418-1.63c0.39-0.513,0.769-0.956,1.047-1.34
						c0.277-0.387,0.521-0.683,0.662-0.9C235.481,226.78,235.563,226.665,235.563,226.665z"/>
				</g>
				<g>
					<path style="fill:#201923;" d="M250.998,227.119c0,0,0.095,0.119,0.272,0.342c0.163,0.223,0.455,0.523,0.776,0.917
						c0.356,0.376,0.757,0.84,1.26,1.331c0.48,0.507,1.077,1.022,1.699,1.588c0.299,0.292,0.665,0.548,1.009,0.836
						c0.353,0.28,0.689,0.593,1.094,0.852c0.393,0.27,0.778,0.563,1.177,0.852c0.419,0.262,0.847,0.529,1.283,0.801
						c0.834,0.588,1.828,0.988,2.741,1.532c0.477,0.24,0.991,0.419,1.478,0.654c0.501,0.207,0.968,0.488,1.5,0.633l1.542,0.551
						l0.765,0.284c0.259,0.082,0.525,0.144,0.786,0.217c1.057,0.243,2.057,0.66,3.093,0.829c1.027,0.202,2.018,0.448,2.971,0.657
						c0.963,0.14,1.879,0.293,2.732,0.45c0.428,0.083,0.838,0.163,1.229,0.238c0.395,0.051,0.769,0.099,1.121,0.144
						c0.706,0.08,1.328,0.192,1.843,0.276c1.031,0.173,1.635,0.318,1.635,0.318s-0.565,0.209-1.581,0.493
						c-0.508,0.139-1.128,0.319-1.848,0.476c-0.361,0.084-0.745,0.173-1.15,0.267c-0.408,0.064-0.839,0.1-1.29,0.155
						c-0.903,0.094-1.889,0.18-2.937,0.249c-1.046-0.008-2.157-0.072-3.308-0.147c-0.287-0.023-0.58-0.025-0.87-0.069
						c-0.289-0.053-0.581-0.106-0.874-0.159c-0.588-0.103-1.183-0.218-1.78-0.345c-0.298-0.064-0.601-0.118-0.9-0.192l-0.885-0.287
						l-1.774-0.597c-1.164-0.453-2.288-1.034-3.376-1.61c-0.527-0.328-1.04-0.667-1.544-1.004c-0.25-0.171-0.506-0.329-0.746-0.507
						c-0.23-0.193-0.458-0.384-0.685-0.574c-0.446-0.386-0.901-0.742-1.307-1.136c-0.389-0.415-0.775-0.81-1.133-1.21
						c-0.371-0.386-0.683-0.809-0.982-1.216c-0.288-0.416-0.605-0.779-0.832-1.192c-0.236-0.404-0.469-0.782-0.671-1.152
						c-0.2-0.372-0.354-0.748-0.515-1.085c-0.337-0.665-0.506-1.313-0.679-1.813C251.038,227.731,250.998,227.119,250.998,227.119z"
						/>
				</g>
				<g>
					<path style="fill:#542824;" d="M241.01,235.064c0.502,1.381,0.895,2.799,1.218,4.229c0.345,1.428,0.578,2.877,0.805,4.331
						c0.181,1.458,0.352,2.923,0.427,4.397c0.061,1.474,0.096,2.956,0.039,4.44c-0.123,2.965-0.519,5.956-1.412,8.856
						c-0.203,0.729-0.494,1.436-0.765,2.146c-0.31,0.7-0.612,1.399-0.985,2.073c-0.168,0.344-0.365,0.675-0.581,0.995
						c-0.21,0.323-0.407,0.651-0.65,0.955c-0.445,0.63-0.96,1.21-1.479,1.779l-0.356-1.469c1.278,0.644,2.569,1.258,3.832,1.939
						c1.272,0.66,2.528,1.359,3.768,2.1c-1.409-0.318-2.8-0.678-4.176-1.078c-1.385-0.378-2.743-0.823-4.112-1.238l-1.145-0.347
						l0.789-1.122c0.393-0.559,0.783-1.112,1.108-1.713c0.336-0.592,0.629-1.208,0.904-1.834c0.289-0.618,0.515-1.27,0.749-1.914
						c0.204-0.66,0.401-1.319,0.574-1.991c0.702-2.681,1.078-5.475,1.315-8.293c0.109-1.411,0.208-2.83,0.241-4.255l0.05-2.143
						c0.013-0.716,0.016-1.433,0.005-2.15C241.185,240.88,241.096,237.994,241.01,235.064z"/>
				</g>
				<path style="fill:#201923;" d="M233.747,250.272c0,3.635-1.321,6.583-2.951,6.583s-2.951-2.947-2.951-6.583
					c0-3.635,1.321-6.583,2.951-6.583S233.747,246.636,233.747,250.272z"/>
				<path style="fill:#201923;" d="M269.838,251.634c0,3.635-1.321,6.583-2.951,6.583c-1.63,0-2.951-2.947-2.951-6.583
					c0-3.635,1.321-6.583,2.951-6.583C268.517,245.051,269.838,247.998,269.838,251.634z"/>
				<path style="fill:#FFFFFF;" d="M234.655,286.59c0,0,21.337-23.153,30.87-3.178C265.525,283.412,241.237,285.001,234.655,286.59z
					"/>
				<g>
					<path style="fill:#542824;" d="M263.255,257.308c0,0,0.372,1.183,1,2.873c0.158,0.423,0.349,0.869,0.541,1.34
						c0.208,0.465,0.443,0.942,0.697,1.42c0.256,0.477,0.573,0.925,0.901,1.349c0.17,0.204,0.362,0.38,0.544,0.565
						c0.212,0.119,0.393,0.324,0.618,0.389l0.319,0.143c0.107,0.048,0.225,0.036,0.336,0.062c0.095,0.009,0.265,0.058,0.299,0.042
						l0.449-0.037c0.168-0.002,0.264-0.043,0.362-0.076c0.103-0.031,0.206-0.046,0.314-0.08c0.211-0.116,0.45-0.176,0.638-0.337
						c0.412-0.253,0.747-0.629,1.059-0.99c0.287-0.387,0.546-0.778,0.755-1.165c0.415-0.775,0.695-1.48,0.88-1.978
						c0.185-0.499,0.275-0.796,0.275-0.796s0.024,0.309-0.01,0.852c-0.039,0.541-0.13,1.321-0.426,2.229
						c-0.144,0.455-0.348,0.94-0.633,1.429c-0.307,0.473-0.651,0.996-1.191,1.386c-0.239,0.227-0.561,0.363-0.857,0.539
						c-0.32,0.12-0.758,0.28-1.039,0.295l-0.448,0.048c-0.267,0.033-0.395-0.023-0.601-0.035c-0.185-0.031-0.382-0.032-0.556-0.097
						l-0.522-0.212c-0.355-0.139-0.603-0.403-0.901-0.605c-0.24-0.246-0.486-0.493-0.691-0.753
						c-0.402-0.527-0.695-1.092-0.946-1.637c-0.252-0.546-0.423-1.094-0.579-1.611c-0.147-0.519-0.257-1.014-0.337-1.473
						C263.173,258.551,263.255,257.308,263.255,257.308z"/>
				</g>
				<g>
					<path style="fill:#542824;" d="M234.655,256.401c0,0,0.202,1.316-0.022,3.304c-0.052,0.497-0.139,1.034-0.269,1.598
						c-0.132,0.564-0.305,1.158-0.556,1.755c-0.27,0.589-0.575,1.209-1.054,1.752c-0.248,0.266-0.483,0.546-0.813,0.749
						c-0.157,0.106-0.305,0.229-0.474,0.318l-0.539,0.221c-0.355,0.176-0.754,0.149-1.13,0.208l-0.143,0.014l-0.035,0.003
						l-0.091-0.005l-0.06-0.006l-0.241-0.025l-0.481-0.05c-0.774-0.169-1.487-0.506-1.977-1.009c-0.537-0.47-0.85-1.071-1.094-1.622
						c-0.224-0.563-0.362-1.11-0.428-1.615c-0.084-0.503-0.102-0.967-0.099-1.374c-0.008-0.407,0.026-0.76,0.055-1.048
						c0.063-0.577,0.143-0.898,0.143-0.898s0.025,0.33,0.107,0.894c0.039,0.281,0.095,0.622,0.174,1.005
						c0.076,0.383,0.182,0.811,0.324,1.26c0.136,0.452,0.338,0.914,0.573,1.373c0.261,0.44,0.568,0.88,0.978,1.194
						c0.188,0.182,0.425,0.29,0.657,0.406c0.237,0.112,0.455,0.136,0.704,0.224l0.482,0.039l0.242,0.02l0.061,0.005l0.015,0.001
						l0.008,0.001c-0.117-0.005-0.029-0.002-0.053-0.004l0.025-0.004l0.099-0.016c0.258-0.06,0.543-0.023,0.776-0.161l0.371-0.136
						c0.119-0.058,0.223-0.15,0.337-0.221c0.238-0.128,0.422-0.347,0.618-0.544c0.377-0.415,0.695-0.908,0.963-1.415
						c0.249-0.519,0.479-1.037,0.66-1.55c0.172-0.515,0.336-1.008,0.462-1.473c0.253-0.929,0.434-1.723,0.551-2.283
						C234.59,256.722,234.655,256.401,234.655,256.401z"/>
				</g>
				<g>
					<path style="fill:#542824;" d="M298.892,263.437c0.253-0.372,0.477-0.762,0.694-1.153c0.213-0.393,0.416-0.79,0.597-1.195
						c0.172-0.409,0.334-0.819,0.452-1.241c0.075-0.207,0.104-0.422,0.15-0.633c0.054-0.21,0.075-0.422,0.083-0.633
						c0.02-0.211,0.033-0.42-0.003-0.622c-0.021-0.203-0.018-0.41-0.099-0.592c-0.071-0.182-0.088-0.388-0.218-0.539
						c-0.12-0.152-0.174-0.345-0.334-0.464l-0.432-0.385l-0.531-0.28c-0.162-0.113-0.374-0.155-0.57-0.219l-0.592-0.184l-0.419-0.13
						l0.042-0.419c0.154-1.524,0.355-3.026,0.613-4.529c0.253-1.501,0.54-3,0.913-4.484c0.368-1.484,0.788-2.965,1.354-4.414
						c0.291-0.722,0.615-1.438,1.009-2.136c0.399-0.692,0.869-1.384,1.586-1.952c0.382-0.257,0.818-0.514,1.344-0.555
						c0.257-0.052,0.51-0.004,0.763,0.03l0.094,0.014l0.088,0.027l0.016,0.006l0.033,0.013l0.132,0.051l0.265,0.101
						c0.332,0.085,0.759,0.386,1.139,0.651c0.334,0.296,0.636,0.608,0.875,0.957c0.224,0.358,0.455,0.715,0.584,1.104
						c0.171,0.378,0.283,0.766,0.37,1.158c0.195,0.779,0.266,1.569,0.284,2.35c0.012,1.563-0.209,3.106-0.645,4.58
						c-0.214,0.738-0.477,1.459-0.788,2.157c-0.304,0.702-0.704,1.358-1.134,1.98c0.343-0.678,0.626-1.374,0.863-2.085
						c0.232-0.713,0.414-1.439,0.546-2.173c0.252-1.467,0.374-2.958,0.247-4.416c-0.067-0.725-0.166-1.449-0.378-2.125
						c-0.095-0.344-0.21-0.675-0.372-0.98c-0.123-0.33-0.336-0.591-0.516-0.872c-0.191-0.264-0.442-0.493-0.668-0.689
						c-0.256-0.141-0.419-0.335-0.833-0.439l-0.268-0.093l-0.134-0.046l-0.034-0.012l-0.017-0.006l-0.008-0.003
						c-0.066-0.02,0.08,0.023,0.063,0.019l-0.047-0.002c-0.123-0.003-0.245-0.039-0.362,0.002c-0.238,0.013-0.473,0.172-0.711,0.331
						c-0.471,0.378-0.883,0.954-1.224,1.573c-0.343,0.623-0.638,1.289-0.904,1.972c-0.518,1.374-0.966,2.797-1.333,4.245
						c-0.745,2.892-1.328,5.854-1.809,8.811l-0.377-0.548l0.683,0.25c0.226,0.088,0.457,0.15,0.666,0.301l0.631,0.401
						c0.186,0.175,0.36,0.367,0.535,0.551c0.187,0.175,0.268,0.439,0.4,0.655c0.145,0.218,0.162,0.48,0.231,0.721
						c0.078,0.245,0.062,0.492,0.067,0.737c0.014,0.248-0.024,0.484-0.071,0.719c-0.034,0.237-0.083,0.468-0.164,0.688
						c-0.073,0.222-0.13,0.449-0.23,0.658c-0.17,0.43-0.382,0.837-0.601,1.236C300.034,262.035,299.49,262.764,298.892,263.437z"/>
				</g>
				<path style="fill:#76413B;" d="M234.655,286.59c0,0,15.889,7.263,23.38,4.54c7.491-2.724,7.491-7.717,7.491-7.717
					S248.274,283.866,234.655,286.59z"/>
			</g>
		</g>
		<g>
			<g>
				<path style="fill:#76413B;" d="M197.429,377.611c0,0-14.981,88.525-36.772,85.801c-21.791-2.724,0-93.291,0-93.291
					L197.429,377.611z"/>
				<g>
					<g>
						<path style="fill:#FFA65B;" d="M211.048,318.368c0,0,0.316,51.307,42.718,51.189c42.402-0.117,46.488-51.189,46.488-51.189
							s28.6-17.024,44.262-0.681c15.662,16.343-20.429,143.682-20.429,143.682l-119.849-0.681l1.362-25.195
							c0,0-23.834-12.938-19.748-55.839c0,0-49.096,30.999-41.538,10.214c5.448-14.981,14.344-63.735,20.429-72.862
							C178.362,296.577,211.048,318.368,211.048,318.368z"/>
						<path style="fill:#FFA65B;" d="M331.959,311.431c0,0,22.772,4.893,29.582,33.494c6.81,28.6,9.533,69.458,9.533,69.458H332.94
							L331.959,311.431z"/>
					</g>
					<g>
						<path style="fill:#EF8D43;" d="M178.537,383.725c-5.419-9.024-12.735-17.046-17.511-26.429
							c-1.882-3.697-3.537-7.627-5.433-11.4c-4.108,16.663-8.232,35.595-11.278,43.971c-5.729,15.755,21.09,1.758,34.408-5.94
							C178.66,383.86,178.589,383.813,178.537,383.725z"/>
						<path style="fill:#EF8D43;" d="M325.151,388.09c-0.119-0.114-0.184-0.237-0.249-0.359c-2.701,6.607-6.225,12.724-10.631,17.76
							c-12.032,13.752-33.041,16.806-50.207,18.602c-23.231,2.429-47.275,3.648-69.873-0.439
							c5.449,8.602,11.411,11.839,11.411,11.839l-1.362,25.195l119.849,0.681c0,0,7.806-27.545,14.582-58.655
							C334.216,397.785,329.933,392.663,325.151,388.09z"/>
					</g>
				</g>
			</g>
			<g>
				<g>
					<g>
						<g>
							<path style="fill:#965450;" d="M208.317,280.854c-2.471-4.777-8.241,5.284-9.72,12.046c-1.479,6.762-2.063,7.661-2.063,7.661
								l-1.327-0.555c0,0-0.853-15.847-1.53-25.904c0,0,5.456-5.137,7.167-11.659c0,0,5.904-1.687,4.244-10.388
								c0,0-6.304,2.144-12.165,4.473l-4.937,6.45c0,0-12.81,10.866-13.322,12.835c-0.512,1.969,0.954,17.345,0.954,17.345
								s-1.52,9.344-0.059,18.273c0.73,4.463,0.947,8.477,0.981,11.376l0,0.009c0.022,1.904-0.034,3.321-0.075,4.072
								c-1.381,3.116-14.872,33.384-23.046,45.141c-8.622,12.402,35.214-6.886,35.214-6.886l2.174-12.397
								c0,0,3.886-12.513,9.357-20.619c5.472-8.106,4.782-15.152,3.533-27.319l2.376-9.402
								C206.074,295.405,210.788,285.631,208.317,280.854z"/>
							<path style="fill:#76413B;" d="M195.363,300.071l-0.156-0.065c0,0-0.853-15.847-1.53-25.903c0,0,5.456-5.137,7.167-11.659
								c0,0,5.904-1.687,4.244-10.388c0,0-6.304,2.144-12.165,4.473l-4.937,6.45c0,0-12.81,10.866-13.322,12.835
								c-0.512,1.969,0.953,17.345,0.953,17.345s-0.191,1.176-0.372,3.086c0.821-0.101,1.641-0.212,2.453-0.38
								c0.429-0.088,0.751,0.175,0.883,0.495c5.13,0.312,10.11,1.809,15.022,3.285c0.516,0.155,1.021,0.329,1.534,0.488
								C195.211,300.109,195.281,300.084,195.363,300.071z"/>
							<path style="fill:#76413B;" d="M197.608,297.117c-0.63,2.46-0.956,3.214-1.047,3.394c0.023,0.03,0.04,0.063,0.06,0.094
								c2.519,0.808,5.018,1.65,7.494,2.55l0.229-0.906C202.043,300.615,199.802,298.898,197.608,297.117z"/>
						</g>
						<g>
							<g>
								<path style="fill:#542824;" d="M205.088,252.056c0.412,1.988,0.449,4.092-0.127,6.082c-0.303,0.985-0.776,1.94-1.474,2.728
									c-0.683,0.801-1.583,1.402-2.546,1.821l0.143-0.138c-0.903,2.124-1.923,4.182-3.052,6.197
									c-0.572,1.002-1.173,1.99-1.818,2.955c-0.66,0.954-1.343,1.903-2.139,2.771l-0.001,0.001l0.144-0.395l0.292,6.479
									l0.247,6.482l0.273,6.48l0.18,3.233l0.095,1.617c-0.003,0.543,0.171,1.066-0.099,1.639
									c-0.351-0.506-0.257-1.061-0.341-1.596l-0.147-1.618l-0.283-3.237l-0.477-6.473c-0.323-4.315-0.596-8.632-0.824-12.953
									l-0.011-0.216l0.156-0.18l0.001-0.001c0.358-0.427,0.753-0.822,1.101-1.264c0.367-0.424,0.699-0.881,1.044-1.327
									c0.667-0.911,1.299-1.854,1.904-2.816c1.194-1.931,2.298-3.936,3.275-5.988l0.049-0.102l0.094-0.036
									c0.915-0.354,1.776-0.874,2.45-1.599c0.687-0.711,1.18-1.601,1.515-2.544C205.354,256.151,205.416,254.058,205.088,252.056z
									"/>
							</g>
							<g>
								<path style="fill:#965450;" d="M184.63,286.149l-0.609-6.332l6.968-7.389c0,0,10.367-2.883,9.793-11.403l-11.732,4.25
									c0,0-14.366,7.907-14.387,10.539c-0.021,2.632,1.141,22.584,1.141,22.584"/>
								<path style="fill:#542824;" d="M184.63,286.149c-0.297-2.102-0.566-4.206-0.829-6.311l-0.012-0.094l0.071-0.08l3.376-3.797
									l3.416-3.759l0.078-0.086l0.136-0.043c0.603-0.192,1.23-0.448,1.824-0.725c0.599-0.275,1.187-0.579,1.746-0.922
									c0.568-0.329,1.108-0.704,1.62-1.105c0.248-0.209,0.521-0.393,0.749-0.622l0.701-0.668l0.634-0.722
									c0.222-0.233,0.371-0.517,0.561-0.771c0.195-0.254,0.349-0.529,0.481-0.816c0.127-0.287,0.319-0.549,0.396-0.855
									l0.297-0.893c0.076-0.304,0.107-0.619,0.164-0.926l0.077-0.464l0-0.474l0.005-0.946l0.888,0.579l-5.853,2.161
									c-1.952,0.718-3.898,1.45-5.862,2.136l0.101-0.046c-2.946,1.624-5.869,3.338-8.674,5.187c-1.396,0.93-2.78,1.894-4.013,2.97
									c-0.581,0.524-1.24,1.155-1.441,1.663c0.004,0.048-0.022,0.063-0.023,0.131l0.009,0.318l0.017,0.635l0.035,1.27
									l0.268,10.163c0.077,3.383,0.197,6.768,0.231,10.161c-0.345-3.375-0.606-6.76-0.909-10.145
									c-0.131-1.692-0.224-3.385-0.338-5.077l-0.327-5.077l-0.082-1.269l-0.041-0.635l-0.02-0.317
									c-0.008-0.143,0.03-0.336,0.061-0.497c0.188-0.585,0.496-0.928,0.788-1.293c0.297-0.355,0.622-0.655,0.946-0.953
									c1.308-1.169,2.703-2.162,4.114-3.129c2.833-1.917,5.742-3.671,8.712-5.356l0.041-0.023l0.06-0.023
									c1.947-0.731,3.911-1.415,5.87-2.114l5.879-2.089l0.901-0.32l-0.013,0.899l-0.015,1.085l-0.01,0.542l-0.092,0.537
									c-0.069,0.356-0.113,0.719-0.206,1.069l-0.356,1.03c-0.099,0.352-0.314,0.652-0.467,0.979
									c-0.158,0.327-0.339,0.638-0.56,0.923c-0.216,0.286-0.396,0.604-0.643,0.862l-0.717,0.795l-0.794,0.707
									c-0.261,0.24-0.56,0.429-0.837,0.645c-0.569,0.412-1.161,0.79-1.776,1.117c-0.608,0.342-1.238,0.639-1.879,0.905
									c-0.645,0.27-1.282,0.506-1.978,0.7l0.213-0.129l-3.552,3.63l-3.592,3.592l0.059-0.173
									C184.385,281.912,184.521,284.029,184.63,286.149z"/>
							</g>
							<g>
								<path style="fill:#965450;" d="M187.396,308.485c0,0-1.807-14.064-1.98-16.631l3.549-4.753c0,0,8.758-0.805,9.893-9.479
									l-12.922,2.805l-7.299,6.51c0,0-3.275,8.818-3.47,15.494"/>
								<path style="fill:#542824;" d="M187.396,308.485c-0.472-2.758-0.871-5.523-1.303-8.285
									c-0.426-2.763-0.786-5.531-1.183-8.297l-0.026-0.18l0.124-0.173l3.456-4.821l0.148-0.207l0.294-0.041
									c0.534-0.074,1.135-0.203,1.688-0.377c0.564-0.164,1.111-0.38,1.646-0.616c0.529-0.249,1.043-0.525,1.527-0.845
									c0.255-0.142,0.469-0.339,0.702-0.508c0.237-0.167,0.451-0.359,0.657-0.559c0.206-0.199,0.434-0.379,0.607-0.609
									l0.554-0.656l0.469-0.718c0.173-0.229,0.274-0.502,0.404-0.757c0.112-0.264,0.277-0.504,0.349-0.785l0.269-0.821
									c0.108-0.268,0.134-0.562,0.195-0.845l0.164-0.855l0.871,0.801l-6.465,1.385l-6.471,1.354l0.298-0.151
									c-2.448,2.153-4.927,4.271-7.408,6.387l0.134-0.196c-0.465,1.222-0.906,2.474-1.305,3.732
									c-0.411,1.256-0.761,2.529-1.142,3.797l-0.485,1.923c-0.177,0.639-0.286,1.29-0.414,1.939
									c-0.118,0.65-0.275,1.298-0.337,1.956l-0.249,1.976l0.066-1.994c-0.005-0.671,0.124-1.326,0.192-1.989
									c0.084-0.661,0.15-1.328,0.283-1.981l0.355-1.971c0.283-1.303,0.577-2.607,0.945-3.89c0.35-1.29,0.739-2.562,1.165-3.84
									l0.035-0.104l0.1-0.093c2.385-2.223,4.771-4.446,7.19-6.632l0.125-0.113l0.173-0.039l6.45-1.451l6.457-1.419l1.075-0.236
									l-0.204,1.038l-0.189,0.961c-0.07,0.319-0.107,0.644-0.229,0.952l-0.314,0.934c-0.088,0.317-0.273,0.599-0.406,0.9
									c-0.151,0.293-0.274,0.602-0.473,0.868l-0.55,0.825l-0.643,0.754c-0.205,0.261-0.463,0.468-0.702,0.695
									c-0.238,0.228-0.485,0.445-0.758,0.629c-0.268,0.188-0.52,0.402-0.808,0.558c-0.553,0.349-1.133,0.644-1.726,0.907
									c-0.598,0.25-1.205,0.473-1.829,0.641c-0.628,0.178-1.239,0.303-1.928,0.382l0.441-0.247l-3.64,4.684l0.098-0.353
									c0.264,2.778,0.563,5.553,0.798,8.334C186.947,302.92,187.208,305.699,187.396,308.485z"/>
							</g>
							<g>
								<path style="fill:#965450;" d="M186.112,297.339c0,0,10.221,2.299,16.94,5.514"/>
								<path style="fill:#542824;" d="M186.194,296.985c0,0,1.097,0.227,2.721,0.651c0.813,0.208,1.756,0.471,2.762,0.765
									c1.006,0.296,2.068,0.649,3.136,0.982c1.053,0.383,2.109,0.75,3.089,1.125c0.973,0.395,1.876,0.773,2.646,1.105
									c1.503,0.744,2.505,1.241,2.505,1.241s-1.042-0.396-2.606-0.991c-0.791-0.267-1.714-0.578-2.702-0.911
									c-0.992-0.322-2.061-0.631-3.123-0.957c-1.071-0.3-2.136-0.62-3.145-0.884c-1.009-0.262-1.943-0.534-2.754-0.73
									c-1.615-0.412-2.692-0.687-2.692-0.687L186.194,296.985z"/>
							</g>
						</g>
					</g>
					<path style="fill:#965450;" d="M193.343,342.985c0,0-14.701,107.811-27.303,118.312c-12.127,10.106-65.964-5.723-8.023-98.647
						c2.267-3.636,23.607-44.493,26.225-48.368L193.343,342.985z"/>
				</g>
				<g>
					<g>
						<g>
							<path style="fill:#965450;" d="M354.098,372.028c-8.173-11.757-21.664-42.025-23.046-45.141
								c-0.041-0.751-0.098-2.168-0.075-4.072l0-0.009c0.034-2.899,0.251-6.913,0.981-11.376c1.461-8.929-0.059-18.273-0.059-18.273
								s1.466-15.376,0.953-17.345c-0.512-1.969-13.322-12.835-13.322-12.835l-4.937-6.45c-1.863-0.74-3.768-1.461-5.504-2.101
								c-0.29,0.672-0.718,1.291-1.188,1.93c-0.691,1.868-1.332,3.921-2.415,5.508c0.677,0.426,1.187,0.577,1.187,0.577
								c1.711,6.522,7.167,11.659,7.167,11.659c-0.677,10.056-1.53,25.904-1.53,25.904l-1.327,0.555c0,0-0.584-0.899-2.063-7.661
								c-1.479-6.762-7.249-16.823-9.72-12.046c-2.471,4.777,2.244,14.552,2.244,14.552l2.376,9.402
								c-1.249,12.167-1.939,19.213,3.533,27.319c5.472,8.106,9.358,20.619,9.358,20.619l2.174,12.397
								C318.883,365.143,362.719,384.43,354.098,372.028z"/>
							<path style="fill:#76413B;" d="M332.853,275.813c-0.512-1.969-13.322-12.835-13.322-12.835l-4.937-6.45
								c-1.863-0.74-4.144-1.561-5.88-2.201c-0.29,0.672-0.342,1.391-0.812,2.03c-0.691,1.868-1.848,3.732-2.932,5.32
								c0.677,0.426,1.703,0.766,1.703,0.766c1.711,6.522,7.167,11.659,7.167,11.659c-0.678,10.056-1.53,25.904-1.53,25.904
								l-0.156,0.065c0.082,0.012,0.153,0.038,0.225,0.062c0.513-0.16,1.018-0.333,1.534-0.488
								c4.912-1.477,9.892-2.973,15.022-3.285c0.132-0.32,0.455-0.583,0.884-0.495c0.812,0.167,1.632,0.279,2.453,0.38
								c-0.181-1.91-0.372-3.086-0.372-3.086S333.366,277.782,332.853,275.813z"/>
							<path style="fill:#76413B;" d="M309.909,297.117c0.63,2.46,0.956,3.214,1.047,3.394c-0.023,0.03-0.04,0.063-0.06,0.094
								c-2.519,0.808-5.018,1.65-7.494,2.55l-0.229-0.906C305.474,300.615,307.715,298.898,309.909,297.117z"/>
						</g>
						<g>
							<g>
								<path style="fill:#542824;" d="M305.988,262.417c0,0,0.422,0.451,1.16,1.239c0.185,0.197,0.389,0.415,0.612,0.653
									c0.197,0.261,0.409,0.543,0.637,0.844c0.458,0.603,0.989,1.278,1.436,2.097c0.238,0.402,0.486,0.82,0.743,1.253
									c0.214,0.456,0.435,0.927,0.663,1.412c0.114,0.243,0.229,0.489,0.346,0.738c0.094,0.258,0.189,0.52,0.285,0.784
									c0.187,0.531,0.396,1.069,0.576,1.626c0.299,1.13,0.652,2.294,0.847,3.509c0.265,1.205,0.378,2.449,0.538,3.69
									c0.05,1.247,0.101,2.494,0.065,3.718c0.003,1.226-0.08,2.426-0.131,3.588c-0.089,1.159-0.151,2.281-0.265,3.338
									c-0.111,1.057-0.215,2.056-0.311,2.979c-0.207,1.841-0.379,3.374-0.499,4.448c-0.062,0.536-0.095,0.959-0.144,1.245
									c-0.072,0.284-0.234,0.426-0.234,0.426s-0.136-0.166-0.157-0.458c0.002-0.29,0.042-0.713,0.074-1.253
									c0.075-1.078,0.182-2.617,0.311-4.465c0.132-1.846,0.248-3.999,0.341-6.301c0.016-1.151,0.063-2.34,0.024-3.545
									c0.006-1.207-0.1-2.425-0.157-3.645c-0.09-1.214-0.132-2.439-0.326-3.623c-0.124-1.198-0.406-2.344-0.637-3.467
									c-0.146-0.552-0.321-1.087-0.475-1.616c-0.08-0.264-0.158-0.525-0.236-0.784c-0.101-0.25-0.2-0.496-0.299-0.739
									c-0.197-0.488-0.388-0.962-0.573-1.421c-0.229-0.439-0.45-0.863-0.662-1.27c-0.397-0.835-0.881-1.523-1.3-2.143
									c-0.209-0.311-0.404-0.603-0.585-0.872c-0.209-0.25-0.401-0.479-0.575-0.686
									C306.384,262.891,305.988,262.417,305.988,262.417z"/>
							</g>
							<g>
								<path style="fill:#965450;" d="M322.887,286.149l0.609-6.332l-6.968-7.389c0,0-10.367-2.883-9.793-11.403l11.732,4.25
									c0,0,14.366,7.907,14.387,10.539c0.021,2.632-1.141,22.584-1.141,22.584"/>
								<path style="fill:#542824;" d="M322.887,286.149c0.109-2.12,0.245-4.237,0.388-6.353l0.059,0.173l-3.592-3.592l-3.552-3.63
									l0.213,0.129c-0.695-0.194-1.333-0.43-1.978-0.7c-0.641-0.266-1.271-0.563-1.879-0.905
									c-0.615-0.327-1.207-0.705-1.776-1.117c-0.278-0.216-0.576-0.404-0.837-0.645l-0.794-0.707l-0.717-0.795
									c-0.248-0.257-0.427-0.576-0.643-0.862c-0.221-0.285-0.402-0.596-0.56-0.923c-0.153-0.327-0.368-0.627-0.467-0.979
									l-0.356-1.03c-0.093-0.35-0.137-0.712-0.206-1.069l-0.092-0.537l-0.01-0.542l-0.015-1.085l-0.013-0.899l0.901,0.32
									l5.879,2.089c1.959,0.698,3.923,1.383,5.87,2.114l0.06,0.023l0.041,0.023c2.97,1.686,5.879,3.439,8.712,5.356
									c1.411,0.967,2.806,1.959,4.114,3.129c0.324,0.298,0.649,0.598,0.946,0.953c0.291,0.365,0.599,0.708,0.788,1.293
									c0.031,0.161,0.069,0.354,0.061,0.497l-0.02,0.317l-0.041,0.635l-0.082,1.269l-0.327,5.077
									c-0.114,1.692-0.207,3.385-0.338,5.077c-0.303,3.385-0.563,6.769-0.909,10.145c0.035-3.393,0.154-6.777,0.231-10.161
									l0.268-10.163l0.034-1.27l0.017-0.635l0.009-0.318c0-0.068-0.026-0.083-0.022-0.131c-0.201-0.508-0.859-1.139-1.441-1.663
									c-1.233-1.077-2.617-2.041-4.013-2.97c-2.805-1.849-5.728-3.563-8.674-5.187l0.101,0.046
									c-1.964-0.686-3.91-1.418-5.862-2.136l-5.853-2.161l0.888-0.579l0.005,0.946l0,0.474l0.077,0.464
									c0.058,0.308,0.088,0.623,0.164,0.926l0.297,0.893c0.077,0.307,0.269,0.568,0.396,0.855
									c0.132,0.287,0.286,0.562,0.481,0.816c0.19,0.255,0.339,0.538,0.561,0.771l0.634,0.722l0.701,0.668
									c0.228,0.229,0.501,0.413,0.749,0.622c0.512,0.401,1.052,0.776,1.62,1.105c0.56,0.344,1.147,0.647,1.746,0.922
									c0.594,0.277,1.221,0.533,1.824,0.725l0.136,0.043l0.078,0.086l3.416,3.759l3.375,3.797l0.071,0.08l-0.012,0.094
									C323.453,281.943,323.184,284.047,322.887,286.149z"/>
							</g>
							<g>
								<path style="fill:#965450;" d="M320.121,308.485c0,0,1.807-14.064,1.98-16.631l-3.549-4.753c0,0-8.758-0.805-9.893-9.479
									l12.922,2.805l7.299,6.51c0,0,3.275,8.818,3.47,15.494"/>
								<path style="fill:#542824;" d="M320.121,308.485c0.188-2.786,0.449-5.564,0.677-8.346c0.234-2.781,0.534-5.556,0.798-8.334
									l0.098,0.353l-3.64-4.684l0.441,0.247c-0.689-0.079-1.3-0.204-1.928-0.382c-0.624-0.168-1.232-0.391-1.829-0.641
									c-0.593-0.263-1.173-0.558-1.726-0.907c-0.287-0.156-0.539-0.37-0.808-0.558c-0.272-0.184-0.52-0.4-0.758-0.629
									c-0.239-0.226-0.497-0.434-0.702-0.695l-0.643-0.754l-0.55-0.825c-0.199-0.267-0.322-0.575-0.473-0.868
									c-0.133-0.301-0.318-0.583-0.406-0.9l-0.314-0.934c-0.122-0.308-0.158-0.633-0.229-0.952l-0.189-0.961l-0.204-1.038
									l1.075,0.236l6.457,1.419l6.45,1.451l0.173,0.039l0.125,0.113c2.418,2.186,4.804,4.409,7.19,6.632l0.099,0.093l0.035,0.104
									c0.426,1.279,0.815,2.55,1.165,3.84c0.369,1.283,0.663,2.587,0.945,3.89l0.355,1.971c0.133,0.653,0.199,1.319,0.283,1.981
									c0.069,0.663,0.197,1.318,0.192,1.989l0.067,1.994l-0.249-1.976c-0.062-0.658-0.219-1.306-0.337-1.956
									c-0.128-0.649-0.237-1.3-0.414-1.939l-0.485-1.923c-0.381-1.268-0.731-2.54-1.142-3.797
									c-0.398-1.257-0.84-2.509-1.305-3.732l0.134,0.196c-2.481-2.117-4.96-4.234-7.408-6.387l0.298,0.151l-6.471-1.354
									l-6.464-1.385l0.871-0.801l0.164,0.855c0.061,0.283,0.087,0.577,0.195,0.845l0.269,0.821
									c0.072,0.282,0.236,0.522,0.349,0.785c0.13,0.255,0.23,0.527,0.404,0.757l0.47,0.718l0.554,0.656
									c0.173,0.23,0.4,0.41,0.607,0.609c0.206,0.201,0.42,0.392,0.657,0.559c0.234,0.169,0.448,0.366,0.702,0.508
									c0.484,0.321,0.998,0.596,1.527,0.845c0.535,0.237,1.082,0.452,1.646,0.616c0.553,0.173,1.155,0.303,1.688,0.377
									l0.293,0.041l0.148,0.207l3.457,4.821l0.124,0.173l-0.026,0.18c-0.396,2.765-0.757,5.534-1.183,8.297
									C320.992,302.962,320.593,305.727,320.121,308.485z"/>
							</g>
							<g>
								<path style="fill:#965450;" d="M321.405,297.339c0,0-10.221,2.299-16.94,5.514"/>
								<path style="fill:#542824;" d="M321.486,297.693c0,0-1.077,0.275-2.692,0.687c-0.81,0.196-1.745,0.468-2.754,0.73
									c-1.008,0.264-2.073,0.584-3.145,0.884c-1.062,0.326-2.132,0.635-3.123,0.957c-0.989,0.333-1.911,0.645-2.702,0.911
									c-1.563,0.594-2.606,0.991-2.606,0.991s1.002-0.496,2.505-1.241c0.77-0.331,1.673-0.71,2.646-1.105
									c0.979-0.375,2.036-0.742,3.089-1.125c1.067-0.333,2.13-0.686,3.136-0.982c1.006-0.294,1.949-0.557,2.762-0.765
									c1.624-0.423,2.721-0.651,2.721-0.651L321.486,297.693z"/>
							</g>
						</g>
					</g>
					<path style="fill:#965450;" d="M314.174,342.985c0,0,14.701,107.811,27.303,118.312c12.127,10.106,65.964-5.723,8.023-98.647
						c-2.267-3.636-23.607-44.493-26.225-48.368L314.174,342.985z"/>
				</g>
			</g>
		</g>
	</g>
	<g>
		
			<path style="fill:none;stroke:#FC6A5A;stroke-width:0.9645;stroke-linecap:round;stroke-linejoin:round;stroke-miterlimit:10;" d="
			M81.928,296.53c12.623-16.464,37.868-2.195,21.953,15.916c-4.391,5.488-31.831,23.05-29.636,4.939
			c1.098-10.976,20.306-12.623,26.343-6.586c7.135,6.586,4.939,20.855-4.391,24.697c-14.269,6.586-24.148-13.72-16.464-25.246
			c5.488-8.781,31.282-16.464,38.417-7.135c9.33,13.172-9.33,23.05-18.111,25.794c-6.037,2.195-32.38,4.391-25.245-9.879
			c3.293-8.232,21.953-3.842,25.245,2.744"/>
		
			<path style="fill:none;stroke:#FC6A5A;stroke-width:0.9645;stroke-linecap:round;stroke-linejoin:round;stroke-miterlimit:10;" d="
			M72.85,113.442c-21.959-14.244-10.683,29.675,4.155,10.683c1.781,19.586,27.895,0,11.277-4.154
			c18.992,1.781,10.09-19.586-4.155-8.903C106.086,82.58,52.078,95.044,72.85,113.442"/>
		
			<path style="fill:none;stroke:#FC6A5A;stroke-width:0.9645;stroke-linecap:round;stroke-linejoin:round;stroke-miterlimit:10;" d="
			M421.229,218.94c20.55-11.442-19.066-20.97-10.23-1.197c-16.3-6.828-11.738,22.148-1.447,10.702
			c-9.406,14.33,11.305,16.253,8.817,0.448C431.747,258.316,444.578,210.189,421.229,218.94"/>
		
			<path style="fill:none;stroke:#FC6A5A;stroke-width:0.9645;stroke-linecap:round;stroke-linejoin:round;stroke-miterlimit:10;" d="
			M237.018,42.445c20.55-11.442-19.066-20.97-10.23-1.197c-16.3-6.828-11.738,22.148-1.447,10.702
			c-9.406,14.33,11.305,16.253,8.817,0.448C247.536,81.821,260.367,33.694,237.018,42.445"/>
		<g>
			
				<path style="fill:none;stroke:#FC6A5A;stroke-width:0.9645;stroke-linecap:round;stroke-linejoin:round;stroke-miterlimit:10;" d="
				M437.385,254.764c-12.436-7.877-9.652,18.995,1.368,6.714"/>
			
				<path style="fill:none;stroke:#FC6A5A;stroke-width:0.9645;stroke-linecap:round;stroke-linejoin:round;stroke-miterlimit:10;" d="
				M438.753,261.479c-8.554,13.003,17.604,6.467,6.368-2.429c11.653-0.983,1.342-19.247-7.737-4.285"/>
		</g>
		<g>
			
				<path style="fill:none;stroke:#FC6A5A;stroke-width:0.9645;stroke-linecap:round;stroke-linejoin:round;stroke-miterlimit:10;" d="
				M128.164,282.644c-7.145,12.87,19.521,8.538,6.624-1.754"/>
			
				<path style="fill:none;stroke:#FC6A5A;stroke-width:0.9645;stroke-linecap:round;stroke-linejoin:round;stroke-miterlimit:10;" d="
				M134.788,280.89c13.475,7.789,5.438-17.949-2.793-6.217c-1.655-11.577-19.293-0.227-3.831,7.971"/>
		</g>
		<g>
			
				<path style="fill:none;stroke:#FC6A5A;stroke-width:0.7005;stroke-linecap:round;stroke-linejoin:round;stroke-miterlimit:10;" d="
				M89.217,158.319c10.269-2.886-5.724-14.431-4.319-2.522"/>
			
				<path style="fill:none;stroke:#FC6A5A;stroke-width:0.7005;stroke-linecap:round;stroke-linejoin:round;stroke-miterlimit:10;" d="
				M84.898,155.797c-2.983-10.93-11.982,6.36-1.734,4.616c-5.06,6.766,9.853,10.07,6.053-2.094"/>
		</g>
		<g>
			
				<path style="fill:none;stroke:#FC6A5A;stroke-width:0.9645;stroke-linecap:round;stroke-linejoin:round;stroke-miterlimit:10;" d="
				M328.038,84.636c-11.715,8.914,14.444,15.664,6.771,1.056"/>
			
				<path style="fill:none;stroke:#FC6A5A;stroke-width:0.9645;stroke-linecap:round;stroke-linejoin:round;stroke-miterlimit:10;" d="
				M334.808,85.692c9.209,12.548,12.193-14.25-0.059-6.816c3.137-11.266-17.575-7.962-6.712,5.759"/>
		</g>
		<g>
			
				<path style="fill:none;stroke:#FC6A5A;stroke-width:0.8117;stroke-linecap:round;stroke-linejoin:round;stroke-miterlimit:10;" d="
				M130.764,340.55c1.601-11.681-19.609,4.922-5.032,4.543"/>
			
				<path style="fill:none;stroke:#FC6A5A;stroke-width:0.8117;stroke-linecap:round;stroke-linejoin:round;stroke-miterlimit:10;" d="
				M125.732,345.093c-14.197,2.227,1.624,13.926,4.547,2.381c5.446,6.286,16.517-9.936,0.485-6.924"/>
		</g>
		
			<path style="fill:none;stroke:#FC6A5A;stroke-width:0.9645;stroke-linecap:round;stroke-linejoin:round;stroke-miterlimit:10;" d="
			M409.202,318.045c-22.01-7.058,1.614,21.136,7.584,0.267c5.971-20.87-31.236-20.213-27.899,7.792
			c3.813,29.331,53.323-0.779,33.067-27.938c-23.729-32.649-57.546,38.992-21.561,43.268c21.904,2.603,48.59-37.701,31.674-55.578
			c-12.355-13.527-46.78,1.105-48.162,18.077"/>
		
			<path style="fill:none;stroke:#FC6A5A;stroke-width:0.9645;stroke-linecap:round;stroke-linejoin:round;stroke-miterlimit:10;" d="
			M274.746,56.399c-27.82,15.728-18.438,47.938,11.273,33.248c19.096-9.692-18.536-20.014-15.918-7.752
			c8.225,27.147,49.529,2.092,22.513-13.228c-23.235-13.245-54.239,35.176-14.962,47.878"/>
	</g>
</g>
</svg>
