<svg width="252" height="338" viewBox="0 0 252 338" fill="none" xmlns="http://www.w3.org/2000/svg">
<g filter="url(#filter0_d_746_6316)">
<ellipse cx="124.09" cy="300.915" rx="88.2774" ry="14.0866" fill="white"/>
</g>
<path d="M131.811 0.898438C142.265 0.898456 151.705 2.865 158.513 6.02344C165.362 9.20124 169.371 13.4917 169.371 18.0566C169.371 22.6215 165.362 26.9111 158.513 30.0889C151.705 33.2474 142.265 35.2148 131.811 35.2148C121.356 35.2148 111.916 33.2473 105.108 30.0889C98.259 26.9111 94.2501 22.6215 94.25 18.0566C94.25 13.4917 98.2589 9.20124 105.108 6.02344C111.916 2.86505 121.357 0.898438 131.811 0.898438Z" fill="#212121" stroke="black"/>
<ellipse cx="131.612" cy="40.9245" rx="53.8855" ry="26.487" fill="#F2B04D"/>
<path d="M131.607 26.9844C149.736 26.9844 166.124 31.1691 177.962 37.9092C189.815 44.6575 197.013 53.9038 197.013 64.0078C197.013 74.1117 189.814 83.3581 177.962 90.1064C166.124 96.8465 149.736 101.031 131.607 101.031C113.479 101.031 97.0919 96.8464 85.2539 90.1064C73.4014 83.3581 66.2032 74.1117 66.2031 64.0078C66.2031 53.9038 73.4013 44.6575 85.2539 37.9092C97.0919 31.1692 113.479 26.9844 131.607 26.9844Z" fill="#212121" stroke="black"/>
<path d="M176.537 306.294C178.446 299.609 172.483 293.633 165.635 295.367L162.756 296.097L151.137 295.675L148.245 295.433C146.002 295.245 143.963 296.908 143.721 299.12L143.693 299.37C143.639 299.865 143.966 300.308 144.458 300.406L175.951 306.653C176.207 306.704 176.465 306.545 176.537 306.294Z" fill="#212121"/>
<path d="M144.402 300.367C143.917 300.277 143.434 300.595 143.324 301.075C143.3 301.179 143.297 301.281 143.309 301.379L143.253 301.369L142.971 302.597C142.847 303.135 143.187 303.653 143.73 303.753L150.424 304.989C150.902 305.077 151.378 304.814 151.57 304.383L155.765 304.301C155.834 304.3 155.903 304.305 155.97 304.317L175.158 307.86C175.643 307.949 176.127 307.633 176.237 307.152C176.348 306.671 176.044 306.209 175.559 306.119L144.402 300.367Z" fill="black"/>
<rect width="33.4685" height="0.367901" transform="matrix(0.983348 0.181551 -0.224184 0.974586 143.359 300.891)" fill="#9B9596"/>
<path d="M86.9749 304.164C85.5916 297.35 92.0003 291.857 98.6927 294.121L101.507 295.073L113.124 295.559L116.026 295.543C118.276 295.531 120.18 297.347 120.249 299.572L120.257 299.823C120.273 300.321 119.912 300.737 119.414 300.796L87.5312 304.567C87.2726 304.598 87.0268 304.42 86.9749 304.164Z" fill="#212121"/>
<path d="M119.453 300.751C119.943 300.699 120.4 301.053 120.473 301.541C120.488 301.645 120.484 301.747 120.465 301.844L120.519 301.838L120.705 303.084C120.787 303.63 120.408 304.12 119.858 304.177L113.088 304.887C112.605 304.938 112.152 304.639 111.994 304.195L107.816 303.785C107.747 303.779 107.679 303.779 107.612 303.786L88.2061 305.821C87.7161 305.872 87.2595 305.519 87.1866 305.031C87.1138 304.544 87.4524 304.107 87.9423 304.055L119.453 300.751Z" fill="black"/>
<rect width="33.4692" height="0.367894" transform="matrix(-0.994456 0.10429 0.14774 0.989133 120.461 301.367)" fill="#9B9596"/>
<path d="M107.781 230.359H122.204L120.455 293.829C120.425 294.912 119.539 295.774 118.456 295.774H109.584L107.781 230.359Z" fill="#212121"/>
<path d="M141.438 230.359H155.86L154.111 293.829C154.081 294.912 153.195 295.774 152.112 295.774H144.213C143.672 295.774 143.228 295.343 143.214 294.802L141.438 230.359Z" fill="#212121"/>
<path d="M208.511 153.996C207.904 154.013 207.025 154.025 205.947 154.003C203.791 153.959 200.842 153.779 197.666 153.237C191.28 152.147 184.126 149.617 180.53 143.948C178.335 140.487 176.988 135.764 176.221 130.567C175.454 125.377 175.272 119.756 175.377 114.529C175.588 104.07 176.95 95.24 177.059 94.6891C177.172 94.1151 177.595 93.4506 178.267 92.8691C178.932 92.2935 179.799 91.8373 180.729 91.6511C181.653 91.4659 182.632 91.5487 183.549 92.0369C184.467 92.5253 185.367 93.4431 186.09 95.0027C186.079 94.98 186.087 94.986 186.094 95.048C186.101 95.1038 186.104 95.1835 186.103 95.2903C186.101 95.5047 186.079 95.7937 186.039 96.1581C185.96 96.8863 185.813 97.867 185.63 99.0635C185.265 101.449 184.763 104.656 184.396 108.277C183.665 115.506 183.464 124.456 186.01 131.907C187.648 136.701 192.108 140.019 196.585 141.957C198.833 142.93 201.113 143.567 203.095 143.873C204.751 144.128 206.246 144.156 207.35 143.925L208.903 153.981C208.789 153.985 208.658 153.992 208.511 153.996Z" fill="#212121" stroke="#212121"/>
<path d="M226.444 173.869C225.947 174.522 224.852 174.967 223.334 174.869C221.932 174.778 220.245 174.223 218.553 173.032L218.214 172.784C215.176 170.486 214.466 168.159 215.05 166.258L215.053 166.248C215.158 165.88 215.323 165.519 215.541 165.161L215.542 165.16C216.159 164.148 216.885 163.913 217.45 163.899C217.872 163.888 218.233 164.003 218.432 164.082C219.128 165.85 220.7 167.511 223.308 168.678L223.309 168.678C224.654 169.279 225.876 169.663 226.971 169.853C227.547 170.978 227.536 172.437 226.444 173.869Z" fill="#222222" stroke="#7A808C"/>
<path d="M232.482 167.095C231.509 168.416 230.035 169.18 227.82 168.965L227.366 168.909C226.449 168.771 225.403 168.473 224.227 167.986L223.715 167.766C221.196 166.639 219.833 165.074 219.292 163.542L219.279 163.547C219.278 163.546 219.278 163.544 219.278 163.542L219.286 163.539C218.863 162.348 218.929 161.154 219.365 160.139L219.457 159.938C220.013 158.809 220.922 158.358 221.721 158.183C222.123 158.095 222.493 158.078 222.762 158.084C222.86 158.087 222.944 158.094 223.01 158.1C223.907 159.112 225.168 159.947 226.608 160.593L226.608 160.594C228.227 161.324 230.413 162.014 232.523 161.837C233.593 163.34 233.737 165.389 232.482 167.095Z" fill="#222222" stroke="#7A808C"/>
<path d="M237.225 157.002C236.71 158.312 236.025 159.202 235.259 159.793C234.492 160.383 233.618 160.693 232.696 160.804L232.694 160.804C231.003 161.013 229.172 160.55 227.648 159.938L227.014 159.668C225.587 159.028 224.414 158.22 223.639 157.29L223.522 157.15L223.341 157.118L223.34 157.118L223.339 157.118C223.338 157.118 223.336 157.118 223.335 157.117C223.333 157.117 223.329 157.116 223.325 157.115C223.317 157.114 223.306 157.113 223.293 157.111C223.265 157.108 223.228 157.102 223.18 157.097C223.085 157.087 222.95 157.076 222.786 157.072C222.459 157.064 222.007 157.083 221.509 157.192C220.504 157.412 219.291 158.008 218.566 159.484C218.055 160.524 217.878 161.726 218.104 162.947C217.9 162.91 217.673 162.885 217.429 162.891C216.541 162.913 215.498 163.317 214.698 164.631L214.699 164.631C214.537 164.897 214.398 165.171 214.282 165.455C214.112 165.386 213.893 165.297 213.636 165.187C212.991 164.91 212.108 164.512 211.158 164.024C209.233 163.035 207.132 161.727 206.113 160.375L206.112 160.374C205.31 159.316 204.844 158.095 204.681 156.856L204.468 155.23L203.924 156.33C203.641 156.25 203.227 156.124 202.797 155.959C202.42 155.815 202.045 155.646 201.738 155.461C201.417 155.268 201.229 155.092 201.153 154.956L201.152 154.954C200.598 153.976 200.12 151.265 201.975 147.535C202.857 145.761 203.911 144.34 204.877 143.348C205.359 142.852 205.814 142.469 206.207 142.204C206.61 141.932 206.909 141.811 207.086 141.786L207.088 141.786L207.182 141.779C207.419 141.773 207.776 141.854 208.201 142.085C208.676 142.341 209.194 142.762 209.656 143.359L209.732 143.457L209.845 143.509L209.851 143.511L210.178 143.659L210.421 143.393L210.583 143.224C210.747 143.058 210.923 142.898 211.112 142.74L211.112 142.741C213.061 141.134 215.672 140.656 218.313 142.166C219.722 142.973 221.032 143.668 222.194 143.944C222.783 144.085 223.361 144.124 223.912 144.003C224.471 143.879 224.972 143.595 225.409 143.136C225.882 142.638 226.095 141.984 226.215 141.306C226.334 140.635 226.373 139.847 226.44 139.067C226.575 137.471 226.83 135.718 227.995 134.044C229.116 132.434 230.616 132.08 231.941 132.563C233.216 133.029 234.414 134.304 234.958 136.215L235.058 136.606C235.492 138.49 235.191 140.602 234.456 142.485C233.72 144.373 232.574 145.968 231.392 146.838L230.694 147.351L231.486 147.703C234.033 148.834 235.854 150.202 236.841 151.75C237.811 153.27 238.008 155.01 237.226 157.001L237.225 157.002Z" fill="#222222" stroke="#7A808C"/>
<path d="M207.761 146.93C207.761 146.93 208.424 144.861 209.979 143.186C210.204 142.934 210.449 142.701 210.713 142.477C212.79 140.727 215.617 140.181 218.469 141.773C221.32 143.364 223.496 144.346 224.97 142.761C226.444 141.177 224.963 137.302 227.413 133.703C229.86 130.11 234.32 131.848 235.398 136.356C236.366 140.364 234.189 145.238 231.653 147.146C231.333 147.381 231.01 147.577 230.694 147.713" stroke="#605E5E" stroke-width="1.5" stroke-miterlimit="10" stroke-linecap="round" stroke-linejoin="round"/>
<path d="M232.522 153.247C232.522 153.247 230.892 150.408 228.143 149.699C225.4 148.993 223.248 150.335 222.342 153.301C221.842 154.942 222.287 156.395 223.332 157.613C224.182 158.61 225.435 159.444 226.912 160.088C228.582 160.82 230.804 161.477 232.867 161.201C234.856 160.942 236.7 159.809 237.757 157.033C239.389 152.752 236.859 149.4 231.652 147.154" stroke="#605E5E" stroke-width="1.5" stroke-miterlimit="10" stroke-linecap="round" stroke-linejoin="round"/>
<path d="M218.961 163.735C219.575 165.418 221.071 167.058 223.698 168.2C225.122 168.818 226.386 169.187 227.491 169.339C230.126 169.707 231.915 168.856 233.058 167.27C234.498 165.268 234.225 162.852 232.867 161.188" stroke="#605E5E" stroke-width="1.5" stroke-miterlimit="10" stroke-linecap="round" stroke-linejoin="round"/>
<path d="M223.33 157.607C223.33 157.607 220.359 157.127 219.106 159.745C218.54 160.93 218.443 162.346 218.954 163.739" stroke="#605E5E" stroke-width="1.5" stroke-miterlimit="10" stroke-linecap="round" stroke-linejoin="round"/>
<path d="M218.969 163.739C218.969 163.739 218.969 163.739 218.963 163.736C218.802 163.657 216.671 162.629 215.279 164.97C215.045 165.363 214.864 165.767 214.749 166.188C214.102 168.373 215.004 170.891 218.164 173.229C221.939 176.017 225.837 175.813 227.097 174.123C228.357 172.434 228.301 170.664 227.498 169.343" stroke="#605E5E" stroke-width="1.5" stroke-miterlimit="10" stroke-linecap="round" stroke-linejoin="round"/>
<path d="M204.242 157.121C203.94 155.069 204.404 152.971 205.484 151.454" stroke="#605E5E" stroke-width="1.5" stroke-miterlimit="10" stroke-linecap="round" stroke-linejoin="round"/>
<path d="M214.673 166.165C214.673 166.165 208.045 163.735 205.826 160.852C204.956 159.729 204.444 158.429 204.257 157.111" stroke="#605E5E" stroke-width="1.5" stroke-miterlimit="10" stroke-linecap="round" stroke-linejoin="round"/>
<path d="M210.384 152.486C210.384 152.486 211.419 156.78 217.016 158.07" stroke="#605E5E" stroke-width="1.5" stroke-miterlimit="10" stroke-linecap="round" stroke-linejoin="round"/>
<path d="M204.259 157.11C204.259 157.11 204.259 157.11 204.253 157.107C204.141 157.083 201.349 156.43 200.774 155.429C200.103 154.274 199.633 151.383 201.501 147.527C203.272 143.87 205.78 141.625 206.925 141.45C207.673 141.333 208.957 141.89 209.976 143.178" stroke="#605E5E" stroke-width="1.5" stroke-miterlimit="10" stroke-linecap="round" stroke-linejoin="round"/>
<path d="M48.9754 147.883C49.5464 148.091 50.3765 148.379 51.4061 148.697C53.4666 149.335 56.3227 150.094 59.5079 150.58C65.9122 151.558 73.4974 151.413 78.6909 147.165C81.862 144.571 84.624 140.513 86.985 135.821C89.3423 131.137 91.2808 125.859 92.8228 120.864C95.5227 112.118 96.994 104.279 97.3661 102.084L97.4591 101.502L97.4737 101.276C97.4792 100.73 97.2818 100.062 96.8834 99.3936C96.433 98.6376 95.753 97.931 94.9288 97.4612C94.109 96.994 93.1543 96.7642 92.1305 96.9385C91.1061 97.113 89.9635 97.7 88.7873 98.9525C88.8043 98.9344 88.7957 98.9377 88.7694 98.9942C88.7457 99.0451 88.7165 99.1192 88.684 99.2212C88.6188 99.4254 88.5488 99.7066 88.4721 100.065C88.319 100.782 88.1501 101.759 87.9479 102.953C87.5446 105.332 87.014 108.534 86.2247 112.087C84.649 119.179 82.0295 127.738 77.2724 134.008C74.2114 138.043 68.9351 139.787 64.0768 140.215C61.6372 140.43 59.2731 140.316 57.2959 139.981C55.644 139.702 54.2153 139.258 53.2396 138.691L48.6076 147.746C48.7147 147.786 48.8372 147.833 48.9754 147.883Z" fill="#212121" stroke="#222222"/>
<path d="M25.6961 161.107C25.963 161.883 26.8629 162.651 28.3343 163.036C29.6934 163.392 31.4696 163.396 33.4501 162.798L33.8486 162.671C37.342 161.486 38.7695 159.586 38.8943 157.66L38.9016 157.473L38.9028 157.463C38.9188 157.08 38.8746 156.686 38.7795 156.277C38.5124 155.121 37.8976 154.669 37.3654 154.477C36.9677 154.334 36.5881 154.33 36.3747 154.342C35.2375 155.706 33.4036 156.741 30.8466 157.102L30.3032 157.167C28.8373 157.314 27.5568 157.293 26.4577 157.128C25.5577 158.015 25.1101 159.403 25.6961 161.107Z" fill="#222222" stroke="#605E5E"/>
<path d="M22.1049 152.759C22.6478 154.423 23.9301 155.666 26.3907 156.092L26.391 156.093C27.3046 156.251 28.391 156.297 29.6606 156.206L30.2164 156.158C32.9614 155.882 34.7462 154.827 35.7404 153.544L35.7516 153.553C35.7527 153.551 35.7539 153.55 35.755 153.548L35.7471 153.542C36.5224 152.545 36.8365 151.391 36.7408 150.29L36.7155 150.071C36.5433 148.824 35.8222 148.109 35.1193 147.691C34.7649 147.48 34.4189 147.348 34.1612 147.269C34.066 147.24 33.9832 147.221 33.9183 147.206C32.9026 147.794 31.6699 148.17 30.3345 148.363L29.7223 148.439C27.9561 148.621 25.6645 148.588 23.7173 147.755C22.2789 148.808 21.5017 150.621 22.0453 152.561L22.1049 152.759Z" fill="#222222" stroke="#605E5E"/>
<path d="M20.7709 141.697C20.8479 143.103 21.2191 144.165 21.7613 144.967C22.3036 145.769 23.0356 146.338 23.8758 146.733L23.8775 146.735C25.6373 147.57 27.8459 147.63 29.6258 147.446L29.6266 147.446C31.1819 147.288 32.5483 146.891 33.5763 146.253L33.7327 146.156L33.9128 146.183L33.8372 146.68L33.9141 146.184L33.9154 146.184C33.9163 146.184 33.9175 146.185 33.9188 146.185C33.9214 146.185 33.9248 146.185 33.9288 146.186C33.9369 146.187 33.948 146.189 33.9616 146.191C33.9887 146.196 34.0265 146.204 34.0734 146.214C34.1671 146.234 34.2983 146.267 34.4552 146.315C34.7678 146.41 35.1904 146.57 35.6292 146.831C36.5132 147.357 37.4784 148.304 37.7035 149.933C37.8615 151.081 37.6515 152.279 37.0541 153.366C37.2588 153.395 37.483 153.444 37.7123 153.527C38.5484 153.828 39.41 154.539 39.7566 156.038C39.8272 156.341 39.8726 156.646 39.8937 156.951C40.0768 156.939 40.3131 156.924 40.591 156.901C41.2907 156.842 42.2536 156.742 43.3076 156.578C45.4459 156.246 47.852 155.667 49.2434 154.704L49.2452 154.703C50.3383 153.952 51.1644 152.94 51.7076 151.816L52.4209 150.34L52.5915 151.554C52.8853 151.568 53.3177 151.579 53.7782 151.558C54.1807 151.539 54.5896 151.498 54.9398 151.419C55.3049 151.337 55.5386 151.229 55.6533 151.124L55.6551 151.123C56.4881 150.37 57.7944 147.946 57.2051 143.821C56.9252 141.859 56.3697 140.178 55.765 138.932C55.4625 138.309 55.151 137.802 54.8614 137.427C54.5639 137.042 54.318 136.833 54.1579 136.753L54.1566 136.753C53.948 136.648 53.5497 136.588 53.0055 136.684C52.4746 136.778 51.8511 137.015 51.2251 137.437L51.1217 137.506L50.999 137.518L50.992 137.519L50.6346 137.557L50.4878 137.227L50.3878 137.016C50.2838 136.806 50.166 136.597 50.0358 136.387C48.6896 134.249 46.3621 132.974 43.3827 133.575C41.791 133.897 40.3301 134.144 39.1404 134.04C38.5374 133.988 37.9761 133.844 37.4912 133.554C36.9999 133.261 36.6131 132.833 36.3427 132.259C36.0501 131.637 36.0528 130.95 36.152 130.268C36.2501 129.594 36.4596 128.833 36.6419 128.072C36.9911 126.612 37.2851 124.988 36.8427 123.179L36.7438 122.815C36.185 120.933 34.8725 120.124 33.4633 120.165C32.0162 120.208 30.3634 121.153 29.2342 123.019L29.2337 123.02C28.2298 124.672 27.8524 126.771 27.9581 128.79C28.064 130.814 28.6517 132.689 29.5006 133.888L30.0011 134.595L29.14 134.679C26.3667 134.949 24.2095 135.675 22.7858 136.833C21.3877 137.971 20.6534 139.56 20.7709 141.697Z" fill="#222222" stroke="#605E5E"/>
<path d="M51.8898 141.426C51.8898 141.426 51.9102 139.253 50.9604 137.172C50.826 136.863 50.6663 136.564 50.4866 136.268C49.0645 133.953 46.5526 132.543 43.3461 133.155C40.1395 133.768 37.7657 134.013 36.8642 132.045C35.9626 130.077 38.5854 126.865 37.3904 122.676C36.1963 118.494 31.417 118.739 28.9773 122.678C26.7999 126.177 27.3352 131.49 29.1432 134.101C29.3732 134.425 29.6181 134.712 29.8755 134.941" fill="#222222"/>
<path d="M51.8898 141.426C51.8898 141.426 51.9102 139.253 50.9604 137.172C50.826 136.863 50.6663 136.564 50.4866 136.268C49.0645 133.953 46.5526 132.543 43.3461 133.155C40.1395 133.768 37.7657 134.013 36.8642 132.045C35.9626 130.077 38.5854 126.865 37.3904 122.676C36.1963 118.494 31.417 118.739 28.9773 122.678C26.7999 126.177 27.3352 131.49 29.1432 134.101C29.3732 134.425 29.6181 134.712 29.8755 134.941" stroke="#605E5E" stroke-width="1.5" stroke-miterlimit="10" stroke-linecap="round" stroke-linejoin="round"/>
<path d="M26.3953 139.607C26.3953 139.607 28.8338 137.426 31.6658 137.619C34.4914 137.813 36.1127 139.765 36.041 142.867C36.0006 144.582 35.1218 145.821 33.7471 146.647C32.6272 147.326 31.176 147.723 29.5716 147.869C27.756 148.037 25.4406 147.961 23.5691 147.048C21.7629 146.175 20.3684 144.519 20.2363 141.551C20.0326 136.973 23.4863 134.589 29.1351 134.098" fill="#222222"/>
<path d="M26.3953 139.607C26.3953 139.607 28.8338 137.426 31.6658 137.619C34.4914 137.813 36.1127 139.765 36.041 142.867C36.0006 144.582 35.1218 145.821 33.7471 146.647C32.6272 147.326 31.176 147.723 29.5716 147.869C27.756 148.037 25.4406 147.961 23.5691 147.048C21.7629 146.175 20.3684 144.519 20.2363 141.551C20.0326 136.973 23.4863 134.589 29.1351 134.098" stroke="#605E5E" stroke-width="1.5" stroke-miterlimit="10" stroke-linecap="round" stroke-linejoin="round"/>
<path d="M35.977 153.852C34.866 155.255 32.9311 156.34 30.0782 156.596C28.5325 156.734 27.2167 156.686 26.1205 156.482C23.5042 156.001 22.0734 154.629 21.4863 152.764C20.7477 150.409 21.7658 148.202 23.5781 147.051" fill="#222222"/>
<path d="M35.977 153.852C34.866 155.255 32.9311 156.34 30.0782 156.596C28.5325 156.734 27.2167 156.686 26.1205 156.482C23.5042 156.001 22.0734 154.629 21.4863 152.764C20.7477 150.409 21.7658 148.202 23.5781 147.051" stroke="#605E5E" stroke-width="1.5" stroke-miterlimit="10" stroke-linecap="round" stroke-linejoin="round"/>
<path d="M33.7566 146.642C33.7566 146.642 36.727 147.122 37.0943 150.003C37.2597 151.306 36.9071 152.68 35.9841 153.841" fill="#222222"/>
<path d="M33.7566 146.642C33.7566 146.642 36.727 147.122 37.0943 150.003C37.2597 151.306 36.9071 152.68 35.9841 153.841" stroke="#605E5E" stroke-width="1.5" stroke-miterlimit="10" stroke-linecap="round" stroke-linejoin="round"/>
<path d="M35.9772 153.852C35.9772 153.852 35.9772 153.852 35.9837 153.851C36.1608 153.827 38.5062 153.522 39.092 156.184C39.1911 156.631 39.2361 157.071 39.2133 157.506C39.1405 159.785 37.4939 161.89 33.7597 163.114C29.3012 164.57 25.6654 163.148 24.9999 161.147C24.3342 159.146 24.9434 157.484 26.1209 156.483" fill="#222222"/>
<path d="M35.9772 153.852C35.9772 153.852 35.9772 153.852 35.9837 153.851C36.1608 153.827 38.5062 153.522 39.092 156.184C39.1911 156.631 39.2361 157.071 39.2133 157.506C39.1405 159.785 37.4939 161.89 33.7597 163.114C29.3012 164.57 25.6654 163.148 24.9999 161.147C24.3342 159.146 24.9434 157.484 26.1209 156.483" stroke="#605E5E" stroke-width="1.5" stroke-miterlimit="10" stroke-linecap="round" stroke-linejoin="round"/>
<path d="M52.0214 152.197C52.9528 150.344 53.1712 148.206 52.6219 146.426Z" fill="#222222"/>
<path d="M52.0214 152.197C52.9528 150.344 53.1712 148.206 52.6219 146.426" stroke="#605E5E" stroke-width="1.5" stroke-miterlimit="10" stroke-linecap="round" stroke-linejoin="round"/>
<path d="M39.2968 157.515C39.2968 157.515 46.3514 157.297 49.3634 155.26C50.542 154.468 51.4356 153.395 52.0269 152.203" fill="#222222"/>
<path d="M39.2968 157.515C39.2968 157.515 46.3514 157.297 49.3634 155.26C50.542 154.468 51.4356 153.395 52.0269 152.203" stroke="#605E5E" stroke-width="1.5" stroke-miterlimit="10" stroke-linecap="round" stroke-linejoin="round"/>
<path d="M47.6583 145.875C47.6583 145.875 45.3273 149.625 39.6094 149.086Z" fill="#222222"/>
<path d="M47.6583 145.875C47.6583 145.875 45.3273 149.625 39.6094 149.086" stroke="#605E5E" stroke-width="1.5" stroke-miterlimit="10" stroke-linecap="round" stroke-linejoin="round"/>
<path d="M52.0164 152.192C52.0164 152.192 52.0164 152.192 52.0229 152.191C52.1377 152.203 54.9925 152.463 55.853 151.695C56.8523 150.809 58.2064 148.214 57.6448 143.965C57.1125 139.936 55.4366 137.014 54.405 136.487C53.7313 136.14 52.3375 136.264 50.9663 137.166" fill="#222222"/>
<path d="M52.0164 152.192C52.0164 152.192 52.0164 152.192 52.0229 152.191C52.1377 152.203 54.9925 152.463 55.853 151.695C56.8523 150.809 58.2064 148.214 57.6448 143.965C57.1125 139.936 55.4366 137.014 54.405 136.487C53.7313 136.14 52.3375 136.264 50.9663 137.166" stroke="#605E5E" stroke-width="1.5" stroke-miterlimit="10" stroke-linecap="round" stroke-linejoin="round"/>
<g filter="url(#filter1_i_746_6316)">
<path d="M74.2353 112.361C70.9599 78.3712 97.6793 48.9531 131.826 48.9531C165.973 48.9531 192.692 78.3712 189.417 112.36L181.124 198.415C178.677 223.81 157.339 243.191 131.826 243.191C106.314 243.191 84.9752 223.81 82.528 198.415L74.2353 112.361Z" fill="#F2B04D"/>
</g>
<path d="M139.422 97.6918C139.422 93.6077 142.733 90.2969 146.817 90.2969H147.155C160.143 90.2969 170.671 100.826 170.671 113.814C170.671 121.217 164.67 127.218 157.267 127.218H153.378C145.67 127.218 139.422 120.97 139.422 113.262V97.6918Z" fill="white"/>
<ellipse cx="10.2139" cy="10.2295" rx="10.2139" ry="10.2295" transform="matrix(0.974946 0.222441 -0.221723 0.97511 143.438 95.7422)" fill="url(#paint0_radial_746_6316)"/>
<ellipse cx="4.49817" cy="4.50507" rx="4.49817" ry="4.50507" transform="matrix(0.974946 0.222441 -0.221723 0.97511 147.75 102.555)" fill="black"/>
<rect x="151.07" y="112.508" width="0.118195" height="5.68303" fill="#212121" fill-opacity="0.49"/>
<rect x="151.07" y="97.8203" width="0.118195" height="5.68303" fill="#212121" fill-opacity="0.49"/>
<rect x="146.633" y="107.93" width="0.118396" height="5.67336" transform="rotate(89.9985 146.633 107.93)" fill="#212121" fill-opacity="0.49"/>
<rect x="161.289" y="107.93" width="0.118396" height="5.67336" transform="rotate(89.9985 161.289 107.93)" fill="#212121" fill-opacity="0.49"/>
<rect width="0.118196" height="5.68296" transform="matrix(0.996597 0.0824297 -0.0821515 0.99662 150.719 112.484)" fill="#212121" fill-opacity="0.49"/>
<rect width="0.118196" height="5.68296" transform="matrix(0.996597 0.0824297 -0.0821515 0.99662 151.914 97.8438)" fill="#212121" fill-opacity="0.49"/>
<rect width="0.118395" height="5.67343" transform="matrix(-0.0821246 0.996622 -0.996599 -0.0824028 146.664 107.555)" fill="#212121" fill-opacity="0.49"/>
<rect width="0.118395" height="5.67343" transform="matrix(-0.0821246 0.996622 -0.996599 -0.0824028 161.273 108.758)" fill="#212121" fill-opacity="0.49"/>
<rect width="0.1182" height="5.68277" transform="matrix(0.986411 0.164295 -0.163751 0.986502 150.344 112.422)" fill="#212121" fill-opacity="0.49"/>
<rect width="0.1182" height="5.68277" transform="matrix(0.986411 0.164295 -0.163751 0.986502 152.742 97.9375)" fill="#212121" fill-opacity="0.49"/>
<rect width="0.118391" height="5.67362" transform="matrix(-0.163725 0.986506 -0.986416 -0.164268 146.719 107.195)" fill="#212121" fill-opacity="0.49"/>
<rect width="0.118391" height="5.67362" transform="matrix(-0.163725 0.986506 -0.986416 -0.164268 161.172 109.594)" fill="#212121" fill-opacity="0.49"/>
<rect width="0.118207" height="5.68245" transform="matrix(0.969514 0.245034 -0.244251 0.969712 149.945 112.344)" fill="#212121" fill-opacity="0.49"/>
<rect width="0.118207" height="5.68245" transform="matrix(0.969514 0.245034 -0.244251 0.969712 153.531 98.1016)" fill="#212121" fill-opacity="0.49"/>
<rect width="0.118384" height="5.67394" transform="matrix(-0.244225 0.969719 -0.969521 -0.245008 146.773 106.836)" fill="#212121" fill-opacity="0.49"/>
<rect width="0.118384" height="5.67394" transform="matrix(-0.244225 0.969719 -0.969521 -0.245008 160.992 110.422)" fill="#212121" fill-opacity="0.49"/>
<rect width="0.118216" height="5.68202" transform="matrix(0.946024 0.324096 -0.32311 0.946361 149.609 112.25)" fill="#212121" fill-opacity="0.49"/>
<rect width="0.118216" height="5.68202" transform="matrix(0.946024 0.324096 -0.32311 0.946361 154.359 98.3594)" fill="#212121" fill-opacity="0.49"/>
<rect width="0.118375" height="5.67437" transform="matrix(-0.323084 0.94637 -0.946033 -0.324071 146.906 106.484)" fill="#212121" fill-opacity="0.49"/>
<rect width="0.118375" height="5.67437" transform="matrix(-0.323084 0.94637 -0.946033 -0.324071 160.773 111.227)" fill="#212121" fill-opacity="0.49"/>
<rect width="0.118227" height="5.68148" transform="matrix(0.916104 0.40094 -0.399796 0.916604 149.258 112.078)" fill="#212121" fill-opacity="0.49"/>
<rect width="0.118227" height="5.68148" transform="matrix(0.916104 0.40094 -0.399796 0.916604 155.117 98.6328)" fill="#212121" fill-opacity="0.49"/>
<rect width="0.118364" height="5.67491" transform="matrix(-0.399771 0.916615 -0.916115 -0.400915 147.016 106.141)" fill="#212121" fill-opacity="0.49"/>
<rect width="0.118364" height="5.67491" transform="matrix(-0.399771 0.916615 -0.916115 -0.400915 160.453 112.008)" fill="#212121" fill-opacity="0.49"/>
<rect width="0.11824" height="5.68085" transform="matrix(0.879962 0.475043 -0.473792 0.880637 148.961 111.945)" fill="#212121" fill-opacity="0.49"/>
<rect width="0.11824" height="5.68085" transform="matrix(0.879962 0.475043 -0.473792 0.880637 155.906 99.0156)" fill="#212121" fill-opacity="0.49"/>
<rect width="0.118351" height="5.67554" transform="matrix(-0.473768 0.88065 -0.879975 -0.475019 147.203 105.82)" fill="#212121" fill-opacity="0.49"/>
<rect width="0.118351" height="5.67554" transform="matrix(-0.473768 0.88065 -0.879975 -0.475019 160.109 112.773)" fill="#212121" fill-opacity="0.49"/>
<rect width="0.118255" height="5.68015" transform="matrix(0.83785 0.545901 -0.544596 0.838698 148.625 111.734)" fill="#212121" fill-opacity="0.49"/>
<rect width="0.118255" height="5.68015" transform="matrix(0.83785 0.545901 -0.544596 0.838698 156.609 99.4297)" fill="#212121" fill-opacity="0.49"/>
<rect width="0.118337" height="5.67624" transform="matrix(-0.544574 0.838713 -0.837864 -0.545878 147.367 105.5)" fill="#212121" fill-opacity="0.49"/>
<rect width="0.118337" height="5.67624" transform="matrix(-0.544574 0.838713 -0.837864 -0.545878 159.664 113.492)" fill="#212121" fill-opacity="0.49"/>
<rect width="0.118271" height="5.6794" transform="matrix(0.790057 0.613033 -0.61173 0.791067 148.328 111.523)" fill="#212121" fill-opacity="0.49"/>
<rect width="0.118271" height="5.6794" transform="matrix(0.790057 0.613033 -0.61173 0.791067 157.312 99.9062)" fill="#212121" fill-opacity="0.49"/>
<rect width="0.118321" height="5.67699" transform="matrix(-0.611708 0.791083 -0.790074 -0.613011 147.617 105.195)" fill="#212121" fill-opacity="0.49"/>
<rect width="0.118321" height="5.67699" transform="matrix(-0.611708 0.791083 -0.790074 -0.613011 159.203 114.18)" fill="#212121" fill-opacity="0.49"/>
<rect width="0.118287" height="5.67862" transform="matrix(0.736915 0.675985 -0.674735 0.73806 148.039 111.273)" fill="#212121" fill-opacity="0.49"/>
<rect width="0.118287" height="5.67862" transform="matrix(0.736915 0.675985 -0.674735 0.73806 157.93 100.445)" fill="#212121" fill-opacity="0.49"/>
<rect width="0.118305" height="5.67777" transform="matrix(-0.674715 0.738078 -0.736933 -0.675965 147.844 104.93)" fill="#212121" fill-opacity="0.49"/>
<rect width="0.118305" height="5.67777" transform="matrix(-0.674715 0.738078 -0.736933 -0.675965 158.656 114.836)" fill="#212121" fill-opacity="0.49"/>
<rect width="0.118303" height="5.67782" transform="matrix(0.678788 0.734334 -0.733181 0.680033 147.766 111.016)" fill="#212121" fill-opacity="0.49"/>
<rect width="0.118303" height="5.67782" transform="matrix(0.678788 0.734334 -0.733181 0.680033 158.508 101.039)" fill="#212121" fill-opacity="0.49"/>
<rect width="0.118288" height="5.67857" transform="matrix(-0.733163 0.680053 -0.678808 -0.734316 148.086 104.656)" fill="#212121" fill-opacity="0.49"/>
<rect width="0.118288" height="5.67857" transform="matrix(-0.733163 0.680053 -0.678808 -0.734316 158.047 115.43)" fill="#212121" fill-opacity="0.49"/>
<rect width="0.11832" height="5.67704" transform="matrix(0.616075 0.787687 -0.786668 0.617376 147.57 110.719)" fill="#212121" fill-opacity="0.49"/>
<rect width="0.11832" height="5.67704" transform="matrix(0.616075 0.787687 -0.786668 0.617376 159.094 101.672)" fill="#212121" fill-opacity="0.49"/>
<rect width="0.118272" height="5.67935" transform="matrix(-0.786652 0.617397 -0.616096 -0.787671 148.43 104.422)" fill="#212121" fill-opacity="0.49"/>
<rect width="0.118272" height="5.67935" transform="matrix(-0.786652 0.617397 -0.616096 -0.787671 157.469 115.977)" fill="#212121" fill-opacity="0.49"/>
<rect width="0.118336" height="5.67629" transform="matrix(0.549204 0.835688 -0.834829 0.550509 147.367 110.422)" fill="#212121" fill-opacity="0.49"/>
<rect width="0.118336" height="5.67629" transform="matrix(0.549204 0.835688 -0.834829 0.550509 159.594 102.352)" fill="#212121" fill-opacity="0.49"/>
<rect width="0.118256" height="5.68011" transform="matrix(-0.834814 0.550532 -0.549226 -0.835673 148.711 104.227)" fill="#212121" fill-opacity="0.49"/>
<rect width="0.118256" height="5.68011" transform="matrix(-0.834814 0.550532 -0.549226 -0.835673 156.773 116.477)" fill="#212121" fill-opacity="0.49"/>
<rect width="0.11835" height="5.67558" transform="matrix(0.478629 0.878017 -0.877331 0.479886 147.141 110.086)" fill="#212121" fill-opacity="0.49"/>
<rect width="0.11835" height="5.67558" transform="matrix(0.478629 0.878017 -0.877331 0.479886 160 103.047)" fill="#212121" fill-opacity="0.49"/>
<rect width="0.118241" height="5.68081" transform="matrix(-0.877318 0.47991 -0.478653 -0.878004 149.016 104.023)" fill="#212121" fill-opacity="0.49"/>
<rect width="0.118241" height="5.68081" transform="matrix(-0.877318 0.47991 -0.478653 -0.878004 156.047 116.914)" fill="#212121" fill-opacity="0.49"/>
<rect width="0.118363" height="5.67495" transform="matrix(0.404832 0.914391 -0.91388 0.405985 147 109.781)" fill="#212121" fill-opacity="0.49"/>
<rect width="0.118363" height="5.67495" transform="matrix(0.404832 0.914391 -0.91388 0.405985 160.391 103.82)" fill="#212121" fill-opacity="0.49"/>
<rect width="0.118228" height="5.68144" transform="matrix(-0.913869 0.40601 -0.404856 -0.91438 149.352 103.875)" fill="#212121" fill-opacity="0.49"/>
<rect width="0.118228" height="5.68144" transform="matrix(-0.913869 0.40601 -0.404856 -0.91438 155.297 117.289)" fill="#212121" fill-opacity="0.49"/>
<rect width="0.118375" height="5.67441" transform="matrix(0.328309 0.94457 -0.944222 0.329308 146.867 109.398)" fill="#212121" fill-opacity="0.49"/>
<rect width="0.118375" height="5.67441" transform="matrix(0.328309 0.94457 -0.944222 0.329308 160.703 104.57)" fill="#212121" fill-opacity="0.49"/>
<rect width="0.118217" height="5.68198" transform="matrix(-0.944214 0.329333 -0.328335 -0.944561 149.711 103.719)" fill="#212121" fill-opacity="0.49"/>
<rect width="0.118217" height="5.68198" transform="matrix(-0.944214 0.329333 -0.328335 -0.944561 154.539 117.586)" fill="#212121" fill-opacity="0.49"/>
<rect width="0.118384" height="5.67397" transform="matrix(0.24958 0.968354 -0.968148 0.250377 146.75 109.078)" fill="#212121" fill-opacity="0.49"/>
<rect width="0.118384" height="5.67397" transform="matrix(0.24958 0.968354 -0.968148 0.250377 160.945 105.398)" fill="#212121" fill-opacity="0.49"/>
<rect width="0.118208" height="5.68242" transform="matrix(-0.968141 0.250404 -0.249606 -0.968347 150.062 103.625)" fill="#212121" fill-opacity="0.49"/>
<rect width="0.118208" height="5.68242" transform="matrix(-0.968141 0.250404 -0.249606 -0.968347 153.734 117.852)" fill="#212121" fill-opacity="0.49"/>
<rect width="0.118391" height="5.67364" transform="matrix(0.169173 0.985586 -0.98549 0.169733 146.672 108.711)" fill="#212121" fill-opacity="0.49"/>
<rect width="0.118391" height="5.67364" transform="matrix(0.169173 0.985586 -0.98549 0.169733 161.125 106.219)" fill="#212121" fill-opacity="0.49"/>
<rect width="0.118201" height="5.68275" transform="matrix(-0.985485 0.16976 -0.169199 -0.985582 150.398 103.57)" fill="#212121" fill-opacity="0.49"/>
<rect width="0.118201" height="5.68275" transform="matrix(-0.985485 0.16976 -0.169199 -0.985582 152.898 118.031)" fill="#212121" fill-opacity="0.49"/>
<rect width="0.118395" height="5.67344" transform="matrix(0.0876293 0.996153 -0.996127 0.0879257 146.664 108.336)" fill="#212121" fill-opacity="0.49"/>
<rect width="0.118395" height="5.67344" transform="matrix(0.0876293 0.996153 -0.996127 0.0879257 161.25 107.047)" fill="#212121" fill-opacity="0.49"/>
<rect width="0.118197" height="5.68295" transform="matrix(-0.996124 0.0879527 -0.0876561 -0.99615 150.781 103.523)" fill="#212121" fill-opacity="0.49"/>
<rect width="0.118197" height="5.68295" transform="matrix(-0.996124 0.0879527 -0.0876561 -0.99615 152.086 118.148)" fill="#212121" fill-opacity="0.49"/>
<ellipse cx="148.476" cy="104.705" rx="1.67133" ry="1.67418" fill="white"/>
<ellipse cx="154.192" cy="111.265" rx="1.11422" ry="1.11612" fill="white"/>
<path d="M121.305 97.6918C121.305 93.6077 117.994 90.2969 113.91 90.2969H113.572C100.584 90.2969 90.0551 100.826 90.0551 113.814C90.0551 121.217 96.0565 127.218 103.46 127.218H107.349C115.056 127.218 121.305 120.97 121.305 113.262V97.6918Z" fill="white"/>
<ellipse cx="10.2139" cy="10.2295" rx="10.2139" ry="10.2295" transform="matrix(-0.974946 0.222441 0.221723 0.97511 117.289 95.7422)" fill="url(#paint1_radial_746_6316)"/>
<ellipse cx="4.49817" cy="4.50507" rx="4.49817" ry="4.50507" transform="matrix(-0.974946 0.222441 0.221723 0.97511 112.984 102.555)" fill="black"/>
<rect width="0.118195" height="5.68303" transform="matrix(-1 0 0 1 109.664 112.508)" fill="#212121" fill-opacity="0.49"/>
<rect width="0.118195" height="5.68303" transform="matrix(-1 0 0 1 109.664 97.8203)" fill="#212121" fill-opacity="0.49"/>
<rect width="0.118396" height="5.67336" transform="matrix(-2.6971e-05 1 1 2.70629e-05 114.07 107.93)" fill="#212121" fill-opacity="0.49"/>
<rect width="0.118396" height="5.67336" transform="matrix(-2.6971e-05 1 1 2.70629e-05 99.4375 107.93)" fill="#212121" fill-opacity="0.49"/>
<rect width="0.118196" height="5.68296" transform="matrix(-0.996597 0.0824297 0.0821515 0.99662 110.016 112.484)" fill="#212121" fill-opacity="0.49"/>
<rect width="0.118196" height="5.68296" transform="matrix(-0.996597 0.0824297 0.0821515 0.99662 108.82 97.8516)" fill="#212121" fill-opacity="0.49"/>
<rect width="0.118395" height="5.67343" transform="matrix(0.0821246 0.996622 0.996599 -0.0824028 114.07 107.578)" fill="#212121" fill-opacity="0.49"/>
<rect width="0.118395" height="5.67343" transform="matrix(0.0821246 0.996622 0.996599 -0.0824028 99.4609 108.773)" fill="#212121" fill-opacity="0.49"/>
<rect width="0.1182" height="5.68277" transform="matrix(-0.986411 0.164295 0.163751 0.986502 110.398 112.422)" fill="#212121" fill-opacity="0.49"/>
<rect width="0.1182" height="5.68277" transform="matrix(-0.986411 0.164295 0.163751 0.986502 108 97.9453)" fill="#212121" fill-opacity="0.49"/>
<rect width="0.118391" height="5.67362" transform="matrix(0.163725 0.986506 0.986416 -0.164268 114.008 107.211)" fill="#212121" fill-opacity="0.49"/>
<rect width="0.118391" height="5.67362" transform="matrix(0.163725 0.986506 0.986416 -0.164268 99.5547 109.609)" fill="#212121" fill-opacity="0.49"/>
<rect width="0.118207" height="5.68245" transform="matrix(-0.969514 0.245034 0.244251 0.969712 110.758 112.344)" fill="#212121" fill-opacity="0.49"/>
<rect width="0.118207" height="5.68245" transform="matrix(-0.969514 0.245034 0.244251 0.969712 107.18 98.1094)" fill="#212121" fill-opacity="0.49"/>
<rect width="0.118384" height="5.67394" transform="matrix(0.244225 0.969719 0.969521 -0.245008 113.938 106.859)" fill="#212121" fill-opacity="0.49"/>
<rect width="0.118384" height="5.67394" transform="matrix(0.244225 0.969719 0.969521 -0.245008 99.7188 110.438)" fill="#212121" fill-opacity="0.49"/>
<rect width="0.118216" height="5.68202" transform="matrix(-0.946024 0.324096 0.32311 0.946361 111.125 112.258)" fill="#212121" fill-opacity="0.49"/>
<rect width="0.118216" height="5.68202" transform="matrix(-0.946024 0.324096 0.32311 0.946361 106.391 98.3516)" fill="#212121" fill-opacity="0.49"/>
<rect width="0.118375" height="5.67437" transform="matrix(0.323084 0.94637 0.946033 -0.324071 113.844 106.492)" fill="#212121" fill-opacity="0.49"/>
<rect width="0.118375" height="5.67437" transform="matrix(0.323084 0.94637 0.946033 -0.324071 99.9766 111.234)" fill="#212121" fill-opacity="0.49"/>
<rect width="0.118227" height="5.68148" transform="matrix(-0.916104 0.40094 0.399796 0.916604 111.461 112.102)" fill="#212121" fill-opacity="0.49"/>
<rect width="0.118227" height="5.68148" transform="matrix(-0.916104 0.40094 0.399796 0.916604 105.594 98.6406)" fill="#212121" fill-opacity="0.49"/>
<rect width="0.118364" height="5.67491" transform="matrix(0.399771 0.916615 0.916115 -0.400915 113.695 106.156)" fill="#212121" fill-opacity="0.49"/>
<rect width="0.118364" height="5.67491" transform="matrix(0.399771 0.916615 0.916115 -0.400915 100.258 112.031)" fill="#212121" fill-opacity="0.49"/>
<rect width="0.11824" height="5.68085" transform="matrix(-0.879962 0.475043 0.473792 0.880637 111.758 111.945)" fill="#212121" fill-opacity="0.49"/>
<rect width="0.11824" height="5.68085" transform="matrix(-0.879962 0.475043 0.473792 0.880637 104.812 99.0156)" fill="#212121" fill-opacity="0.49"/>
<rect width="0.118351" height="5.67554" transform="matrix(0.473768 0.88065 0.879975 -0.475019 113.523 105.828)" fill="#212121" fill-opacity="0.49"/>
<rect width="0.118351" height="5.67554" transform="matrix(0.473768 0.88065 0.879975 -0.475019 100.617 112.789)" fill="#212121" fill-opacity="0.49"/>
<rect width="0.118255" height="5.68015" transform="matrix(-0.83785 0.545901 0.544596 0.838698 112.102 111.75)" fill="#212121" fill-opacity="0.49"/>
<rect width="0.118255" height="5.68015" transform="matrix(-0.83785 0.545901 0.544596 0.838698 104.125 99.4297)" fill="#212121" fill-opacity="0.49"/>
<rect width="0.118337" height="5.67624" transform="matrix(0.544574 0.838713 0.837864 -0.545878 113.352 105.484)" fill="#212121" fill-opacity="0.49"/>
<rect width="0.118337" height="5.67624" transform="matrix(0.544574 0.838713 0.837864 -0.545878 101.055 113.492)" fill="#212121" fill-opacity="0.49"/>
<rect width="0.118271" height="5.6794" transform="matrix(-0.790057 0.613033 0.61173 0.791067 112.383 111.523)" fill="#212121" fill-opacity="0.49"/>
<rect width="0.118271" height="5.6794" transform="matrix(-0.790057 0.613033 0.61173 0.791067 103.414 99.9219)" fill="#212121" fill-opacity="0.49"/>
<rect width="0.118321" height="5.67699" transform="matrix(0.611708 0.791083 0.790074 -0.613011 113.102 105.203)" fill="#212121" fill-opacity="0.49"/>
<rect width="0.118321" height="5.67699" transform="matrix(0.611708 0.791083 0.790074 -0.613011 101.516 114.188)" fill="#212121" fill-opacity="0.49"/>
<rect width="0.118287" height="5.67862" transform="matrix(-0.736915 0.675985 0.674735 0.73806 112.68 111.281)" fill="#212121" fill-opacity="0.49"/>
<rect width="0.118287" height="5.67862" transform="matrix(-0.736915 0.675985 0.674735 0.73806 102.789 100.453)" fill="#212121" fill-opacity="0.49"/>
<rect width="0.118305" height="5.67777" transform="matrix(0.674715 0.738078 0.736933 -0.675965 112.883 104.906)" fill="#212121" fill-opacity="0.49"/>
<rect width="0.118305" height="5.67777" transform="matrix(0.674715 0.738078 0.736933 -0.675965 102.07 114.82)" fill="#212121" fill-opacity="0.49"/>
<rect width="0.118303" height="5.67782" transform="matrix(-0.678788 0.734334 0.733181 0.680033 112.961 111)" fill="#212121" fill-opacity="0.49"/>
<rect width="0.118303" height="5.67782" transform="matrix(-0.678788 0.734334 0.733181 0.680033 102.211 101.023)" fill="#212121" fill-opacity="0.49"/>
<rect width="0.118288" height="5.67857" transform="matrix(0.733163 0.680053 0.678808 -0.734316 112.617 104.656)" fill="#212121" fill-opacity="0.49"/>
<rect width="0.118288" height="5.67857" transform="matrix(0.733163 0.680053 0.678808 -0.734316 102.656 115.43)" fill="#212121" fill-opacity="0.49"/>
<rect width="0.11832" height="5.67704" transform="matrix(-0.616075 0.787687 0.786668 0.617376 113.172 110.711)" fill="#212121" fill-opacity="0.49"/>
<rect width="0.11832" height="5.67704" transform="matrix(-0.616075 0.787687 0.786668 0.617376 101.648 101.656)" fill="#212121" fill-opacity="0.49"/>
<rect width="0.118272" height="5.67935" transform="matrix(0.786652 0.617397 0.616096 -0.787671 112.336 104.406)" fill="#212121" fill-opacity="0.49"/>
<rect width="0.118272" height="5.67935" transform="matrix(0.786652 0.617397 0.616096 -0.787671 103.289 115.961)" fill="#212121" fill-opacity="0.49"/>
<rect width="0.118336" height="5.67629" transform="matrix(-0.549204 0.835688 0.834829 0.550509 113.359 110.414)" fill="#212121" fill-opacity="0.49"/>
<rect width="0.118336" height="5.67629" transform="matrix(-0.549204 0.835688 0.834829 0.550509 101.133 102.344)" fill="#212121" fill-opacity="0.49"/>
<rect width="0.118256" height="5.68011" transform="matrix(0.834814 0.550532 0.549226 -0.835673 112.016 104.203)" fill="#212121" fill-opacity="0.49"/>
<rect width="0.118256" height="5.68011" transform="matrix(0.834814 0.550532 0.549226 -0.835673 103.953 116.469)" fill="#212121" fill-opacity="0.49"/>
<rect width="0.11835" height="5.67558" transform="matrix(-0.478629 0.878017 0.877331 0.479886 113.57 110.094)" fill="#212121" fill-opacity="0.49"/>
<rect width="0.11835" height="5.67558" transform="matrix(-0.478629 0.878017 0.877331 0.479886 100.703 103.055)" fill="#212121" fill-opacity="0.49"/>
<rect width="0.118241" height="5.68081" transform="matrix(0.877318 0.47991 0.478653 -0.878004 111.688 104.031)" fill="#212121" fill-opacity="0.49"/>
<rect width="0.118241" height="5.68081" transform="matrix(0.877318 0.47991 0.478653 -0.878004 104.656 116.906)" fill="#212121" fill-opacity="0.49"/>
<rect width="0.118363" height="5.67495" transform="matrix(-0.404832 0.914391 0.91388 0.405985 113.734 109.781)" fill="#212121" fill-opacity="0.49"/>
<rect width="0.118363" height="5.67495" transform="matrix(-0.404832 0.914391 0.91388 0.405985 100.32 103.812)" fill="#212121" fill-opacity="0.49"/>
<rect width="0.118228" height="5.68144" transform="matrix(0.913869 0.40601 0.404856 -0.91438 111.359 103.859)" fill="#212121" fill-opacity="0.49"/>
<rect width="0.118228" height="5.68144" transform="matrix(0.913869 0.40601 0.404856 -0.91438 105.414 117.273)" fill="#212121" fill-opacity="0.49"/>
<rect width="0.118375" height="5.67441" transform="matrix(-0.328309 0.94457 0.944222 0.329308 113.852 109.43)" fill="#212121" fill-opacity="0.49"/>
<rect width="0.118375" height="5.67441" transform="matrix(-0.328309 0.94457 0.944222 0.329308 100.008 104.602)" fill="#212121" fill-opacity="0.49"/>
<rect width="0.118217" height="5.68198" transform="matrix(0.944214 0.329333 0.328335 -0.944561 111 103.734)" fill="#212121" fill-opacity="0.49"/>
<rect width="0.118217" height="5.68198" transform="matrix(0.944214 0.329333 0.328335 -0.944561 106.18 117.602)" fill="#212121" fill-opacity="0.49"/>
<rect width="0.118384" height="5.67397" transform="matrix(-0.24958 0.968354 0.968148 0.250377 113.969 109.07)" fill="#212121" fill-opacity="0.49"/>
<rect width="0.118384" height="5.67397" transform="matrix(-0.24958 0.968354 0.968148 0.250377 99.7891 105.398)" fill="#212121" fill-opacity="0.49"/>
<rect width="0.118208" height="5.68242" transform="matrix(0.968141 0.250404 0.249606 -0.968347 110.688 103.617)" fill="#212121" fill-opacity="0.49"/>
<rect width="0.118208" height="5.68242" transform="matrix(0.968141 0.250404 0.249606 -0.968347 107.008 117.844)" fill="#212121" fill-opacity="0.49"/>
<rect width="0.118391" height="5.67364" transform="matrix(-0.169173 0.985586 0.98549 0.169733 114.047 108.711)" fill="#212121" fill-opacity="0.49"/>
<rect width="0.118391" height="5.67364" transform="matrix(-0.169173 0.985586 0.98549 0.169733 99.6016 106.219)" fill="#212121" fill-opacity="0.49"/>
<rect width="0.118201" height="5.68275" transform="matrix(0.985485 0.16976 0.169199 -0.985582 110.312 103.555)" fill="#212121" fill-opacity="0.49"/>
<rect width="0.118201" height="5.68275" transform="matrix(0.985485 0.16976 0.169199 -0.985582 107.82 118.023)" fill="#212121" fill-opacity="0.49"/>
<rect width="0.118395" height="5.67344" transform="matrix(-0.0876293 0.996153 0.996127 0.0879257 114.078 108.344)" fill="#212121" fill-opacity="0.49"/>
<rect width="0.118395" height="5.67344" transform="matrix(-0.0876293 0.996153 0.996127 0.0879257 99.4844 107.055)" fill="#212121" fill-opacity="0.49"/>
<rect width="0.118197" height="5.68295" transform="matrix(0.996124 0.0879527 0.0876561 -0.99615 109.945 103.531)" fill="#212121" fill-opacity="0.49"/>
<rect width="0.118197" height="5.68295" transform="matrix(0.996124 0.0879527 0.0876561 -0.99615 108.648 118.156)" fill="#212121" fill-opacity="0.49"/>
<ellipse cx="1.67133" cy="1.67418" rx="1.67133" ry="1.67418" transform="matrix(-1 0 0 1 113.914 103.031)" fill="white"/>
<ellipse cx="1.11422" cy="1.11612" rx="1.11422" ry="1.11612" transform="matrix(-1 0 0 1 107.648 110.148)" fill="white"/>
<path d="M151.413 141.422C151.32 141.51 151.221 141.598 151.125 141.692C151.224 141.598 151.32 141.51 151.413 141.422Z" fill="#222222"/>
<path d="M151.496 141.352C150.484 145.162 148.363 152.532 146.786 153.982C146.458 154.281 145.995 154.669 145.406 155.097V155.091L145.922 146.043C145.959 146.014 145.998 145.99 146.035 145.961C146.26 145.796 146.478 145.638 146.693 145.474C147.348 144.975 147.964 144.481 148.542 143.988C148.744 143.818 148.942 143.654 149.134 143.484C149.865 142.849 150.53 142.245 151.129 141.693C151.225 141.598 151.324 141.51 151.416 141.422C151.443 141.398 151.469 141.375 151.496 141.352Z" fill="white"/>
<path d="M145.791 146.14C145.837 146.111 145.884 146.076 145.927 146.047L145.411 155.095V155.1C144.505 155.758 143.304 156.527 141.852 157.25L142.209 148.377C142.688 148.125 143.155 147.855 143.608 147.579C143.777 147.479 143.945 147.379 144.108 147.273C144.164 147.238 144.22 147.203 144.276 147.168C144.564 146.986 144.845 146.798 145.116 146.61C145.186 146.563 145.255 146.516 145.321 146.469C145.48 146.364 145.639 146.252 145.791 146.14Z" fill="white"/>
<path d="M144.281 147.167C144.566 146.985 144.847 146.797 145.121 146.609C144.85 146.797 144.569 146.985 144.281 147.167Z" fill="white"/>
<path d="M143.594 147.571C143.762 147.471 143.928 147.371 144.093 147.266C143.931 147.371 143.762 147.471 143.594 147.571Z" fill="white"/>
<path d="M143.751 173.375C143.651 173.516 143.552 173.645 143.453 173.774C143.552 173.639 143.651 173.51 143.751 173.375Z" fill="#222222"/>
<path d="M142.391 175.078C142.37 175.101 142.351 175.125 142.328 175.154C142.099 175.419 141.864 175.683 141.626 175.941C141.57 176 141.511 176.058 141.455 176.124C140.77 176.846 140.056 177.515 139.314 178.12C139.308 178.125 139.301 178.125 139.295 178.137C138.762 178.566 138.22 178.959 137.661 179.318C137.519 179.411 137.377 179.5 137.231 179.582C137.089 179.67 136.943 179.752 136.798 179.835C136.652 179.917 136.506 179.994 136.361 180.069C135.914 180.304 135.461 180.51 134.998 180.692C134.571 180.856 134.135 181.003 133.695 181.132C133.665 181.138 133.632 181.15 133.602 181.156C133.444 181.197 133.284 181.238 133.126 181.273C132.997 181.302 132.865 181.332 132.736 181.356C132.216 181.467 131.687 181.543 131.148 181.579C130.979 181.597 130.807 181.602 130.639 181.608C130.47 181.614 130.301 181.62 130.129 181.62C129.647 181.62 129.157 181.597 128.658 181.543C128.393 181.514 128.128 181.473 127.867 181.42C127.741 181.397 127.615 181.368 127.49 181.332C127.361 181.303 127.235 181.268 127.106 181.227C126.98 181.191 126.855 181.15 126.729 181.103C126.653 181.08 126.58 181.051 126.505 181.021C126.405 180.985 126.306 180.944 126.207 180.903C125.912 180.78 125.621 180.639 125.33 180.481C125.234 180.434 125.138 180.375 125.046 180.322C124.95 180.269 124.854 180.21 124.761 180.152C124.384 179.917 124.011 179.658 123.647 179.371C123.554 179.301 123.465 179.23 123.376 179.154C122.654 178.561 121.96 177.874 121.288 177.099C121.229 177.029 121.166 176.958 121.106 176.888C120.005 175.59 118.979 174.07 118.023 172.39C119.495 170.529 121.702 168.456 124.15 168.532C128.532 168.667 130.03 173.118 130.03 173.118C130.03 173.118 134.952 162.426 139.6 166.26C141.442 167.78 142.788 170.563 143.741 173.376C143.642 173.511 143.543 173.64 143.443 173.775C143.427 173.793 143.41 173.816 143.397 173.84C143.169 174.128 142.941 174.421 142.709 174.703C142.602 174.825 142.499 174.954 142.391 175.078Z" fill="#111111"/>
<path d="M142.719 174.707C142.95 174.424 143.179 174.131 143.407 173.844C143.181 174.137 142.954 174.424 142.719 174.707Z" fill="#222222"/>
<path d="M141.461 148.757C141.653 148.662 141.841 148.563 142.027 148.469C141.838 148.569 141.652 148.663 141.461 148.757Z" fill="white"/>
<path d="M141.633 175.951C141.871 175.692 142.106 175.429 142.334 175.164C142.106 175.434 141.871 175.698 141.633 175.951Z" fill="#222222"/>
<path d="M140.75 149.085C140.988 148.979 141.22 148.868 141.451 148.75C141.223 148.868 140.988 148.979 140.75 149.085Z" fill="white"/>
<path d="M139.352 149.692C139.557 149.615 139.762 149.533 139.96 149.445C139.759 149.534 139.557 149.616 139.352 149.692Z" fill="white"/>
<path d="M139.328 178.121C140.069 177.516 140.784 176.847 141.468 176.125C140.783 176.852 140.072 177.522 139.328 178.121Z" fill="#222222"/>
<path d="M138.422 150.029C138.737 149.924 139.041 149.812 139.342 149.689C139.547 149.612 139.749 149.53 139.95 149.442C139.997 149.424 140.04 149.407 140.079 149.389C140.311 149.289 140.536 149.189 140.761 149.083C140.999 148.978 141.234 148.866 141.462 148.749C141.654 148.654 141.839 148.561 142.028 148.461C142.087 148.432 142.147 148.402 142.203 148.367L141.846 157.239C140.692 157.815 139.375 158.367 137.93 158.813L138.422 150.035V150.029Z" fill="white"/>
<path d="M137.664 179.329C138.223 178.971 138.765 178.577 139.298 178.148C138.769 178.577 138.223 178.971 137.664 179.329Z" fill="#222222"/>
<path d="M137.998 150.18C137.833 150.239 137.664 150.291 137.492 150.338C137.664 150.292 137.833 150.239 137.998 150.18Z" fill="#222222"/>
<path d="M136.812 179.838C136.958 179.756 137.104 179.674 137.246 179.586C137.103 179.68 136.958 179.762 136.812 179.838Z" fill="#222222"/>
<path d="M136.172 150.696C136.42 150.637 136.661 150.572 136.903 150.508C136.661 150.578 136.417 150.637 136.172 150.696Z" fill="white"/>
<path d="M136.367 180.078C136.513 180.002 136.658 179.926 136.804 179.844C136.658 179.926 136.513 180.008 136.367 180.078Z" fill="#222222"/>
<path d="M134.773 150.981C134.972 150.952 135.17 150.916 135.369 150.875C135.174 150.916 134.972 150.951 134.773 150.981Z" fill="white"/>
<path d="M134.344 151.054C134.443 151.042 134.542 151.025 134.638 151.008C134.539 151.025 134.443 151.043 134.344 151.054Z" fill="#222222"/>
<path d="M133.711 181.143C134.151 181.014 134.588 180.868 135.014 180.703C134.588 180.873 134.154 181.014 133.711 181.143Z" fill="#222222"/>
<path d="M133.622 151.162C133.867 151.139 134.108 151.103 134.346 151.062C134.445 151.05 134.541 151.032 134.641 151.015C134.68 151.01 134.723 151.003 134.763 150.992C134.961 150.963 135.163 150.927 135.358 150.886C135.636 150.834 135.911 150.775 136.178 150.704C136.423 150.645 136.668 150.586 136.909 150.516C137.108 150.463 137.303 150.411 137.495 150.346C137.667 150.299 137.835 150.246 138.001 150.188C138.143 150.147 138.285 150.1 138.421 150.047V150.053L137.928 158.83C136.569 159.253 135.09 159.582 133.516 159.758L133.621 151.167V151.162H133.622Z" fill="white"/>
<path d="M133.615 151.148C133.36 151.184 133.105 151.207 132.844 151.231C133.105 151.207 133.36 151.178 133.615 151.148Z" fill="white"/>
<path d="M133.133 181.274C133.291 181.238 133.451 181.197 133.609 181.156C133.451 181.197 133.295 181.238 133.133 181.274Z" fill="#222222"/>
<path d="M132.742 181.356C132.871 181.332 133.003 181.303 133.132 181.273C133.003 181.308 132.874 181.332 132.742 181.356Z" fill="#222222"/>
<path d="M131.648 151.299C131.804 151.299 131.959 151.293 132.115 151.281C131.959 151.288 131.804 151.299 131.648 151.299Z" fill="#222222"/>
<path d="M130.648 181.607C130.817 181.601 130.989 181.595 131.158 181.578C130.989 181.595 130.82 181.601 130.648 181.607Z" fill="#222222"/>
<path d="M130.133 181.613C130.305 181.613 130.473 181.608 130.642 181.602C130.474 181.608 130.305 181.613 130.133 181.613Z" fill="#222222"/>
<path d="M130.217 151.303C130.703 151.321 131.179 151.321 131.649 151.303C131.804 151.303 131.96 151.292 132.115 151.285C132.366 151.273 132.615 151.256 132.856 151.238C133.117 151.215 133.372 151.192 133.627 151.156V151.162L133.521 159.752C132.013 159.923 130.415 159.952 128.745 159.788L128.477 151.109C128.496 151.109 128.516 151.115 128.536 151.115C128.635 151.138 128.737 151.156 128.84 151.168C128.989 151.191 129.138 151.214 129.29 151.232C129.366 151.238 129.446 151.25 129.525 151.255C129.618 151.267 129.71 151.273 129.803 151.279C129.939 151.292 130.077 151.297 130.217 151.303Z" fill="white"/>
<path d="M128.836 151.172C128.985 151.195 129.137 151.219 129.286 151.236C129.134 151.219 128.985 151.196 128.836 151.172Z" fill="#222222"/>
<path d="M128.478 151.107L128.746 159.786C127.899 159.704 127.036 159.569 126.152 159.375C125.292 159.187 124.489 158.958 123.731 158.694L123.258 149.07C123.34 149.117 123.423 149.164 123.506 149.206C123.793 149.37 124.082 149.523 124.369 149.664C124.482 149.723 124.598 149.781 124.71 149.834C125.494 150.21 126.291 150.527 127.098 150.762C127.224 150.809 127.353 150.844 127.479 150.873C127.734 150.944 127.988 151.008 128.246 151.061C128.322 151.078 128.398 151.09 128.478 151.107Z" fill="white"/>
<path d="M128.533 151.115C128.513 151.115 128.493 151.109 128.474 151.109C128.394 151.092 128.318 151.08 128.242 151.062C128.338 151.08 128.434 151.097 128.533 151.115Z" fill="white"/>
<path d="M127.5 181.336C127.626 181.371 127.751 181.4 127.877 181.424C127.751 181.4 127.622 181.371 127.5 181.336Z" fill="#222222"/>
<path d="M127.094 150.758C127.22 150.799 127.345 150.84 127.474 150.869C127.348 150.84 127.219 150.805 127.094 150.758Z" fill="#222222"/>
<path d="M126.727 181.102C126.852 181.148 126.978 181.189 127.104 181.225C126.978 181.189 126.852 181.148 126.727 181.102Z" fill="#222222"/>
<path d="M126.219 180.906C126.318 180.947 126.417 180.988 126.516 181.024C126.417 180.988 126.318 180.947 126.219 180.906Z" fill="#C91C18"/>
<path d="M125.055 180.32C125.147 180.373 125.243 180.432 125.339 180.479C125.243 180.432 125.15 180.379 125.055 180.32Z" fill="#C91C18"/>
<path d="M124.766 180.148C124.858 180.207 124.954 180.265 125.05 180.319C124.954 180.266 124.862 180.207 124.766 180.148Z" fill="#C91C18"/>
<path d="M123.253 149.069L123.726 158.692C122.046 158.116 120.614 157.365 119.387 156.532L118.781 145.898C118.986 146.069 119.191 146.233 119.397 146.398C119.526 146.503 119.655 146.603 119.787 146.703C119.919 146.809 120.051 146.914 120.184 147.009C120.316 147.114 120.452 147.214 120.584 147.308C120.852 147.507 121.127 147.701 121.401 147.889C121.55 147.995 121.699 148.095 121.848 148.195C122.096 148.359 122.347 148.524 122.602 148.676C122.76 148.776 122.916 148.87 123.075 148.964C123.134 148.998 123.194 149.033 123.253 149.069Z" fill="white"/>
<path d="M123.383 179.156C123.472 179.233 123.561 179.303 123.654 179.373C123.565 179.303 123.472 179.233 123.383 179.156Z" fill="#C91C18"/>
<path d="M123.258 149.07C123.34 149.117 123.423 149.165 123.506 149.211C123.423 149.17 123.34 149.123 123.258 149.076V149.07Z" fill="#222222"/>
<path d="M123.257 149.053V149.059C123.197 149.023 123.138 148.989 123.078 148.953C123.138 148.989 123.198 149.018 123.257 149.053Z" fill="#222222"/>
<path d="M121.844 148.195C122.092 148.36 122.343 148.518 122.598 148.677C122.343 148.524 122.092 148.36 121.844 148.195Z" fill="#222222"/>
<path d="M121.109 176.883C121.169 176.953 121.232 177.024 121.291 177.094C121.232 177.03 121.172 176.959 121.109 176.883Z" fill="#C91C18"/>
<path d="M120.578 147.305C120.849 147.504 121.121 147.698 121.395 147.886C121.121 147.698 120.846 147.504 120.578 147.305Z" fill="#222222"/>
<path d="M119.797 146.703C119.929 146.809 120.061 146.909 120.194 147.009C120.061 146.914 119.929 146.809 119.797 146.703Z" fill="#222222"/>
<path d="M119.391 146.398C119.52 146.498 119.649 146.604 119.781 146.704C119.649 146.604 119.52 146.504 119.391 146.398Z" fill="#222222"/>
<path d="M118.788 145.895L119.393 156.528C118.034 155.6 116.929 154.567 116.036 153.528V153.522L115.562 143C115.712 143.135 115.863 143.282 116.016 143.423C116.039 143.446 116.065 143.476 116.092 143.493C116.32 143.71 116.552 143.927 116.79 144.144C117.028 144.361 117.266 144.579 117.511 144.796C117.927 145.167 118.354 145.531 118.788 145.895Z" fill="white"/>
<path d="M116.781 144.148C117.019 144.365 117.258 144.583 117.502 144.8C117.258 144.583 117.019 144.366 116.781 144.148Z" fill="#222222"/>
<path d="M116.086 143.5C116.314 143.717 116.549 143.935 116.784 144.152C116.546 143.935 116.314 143.718 116.086 143.5Z" fill="#222222"/>
<path d="M116.029 153.533C113.713 150.843 112.797 148.137 112.44 147.239C112.053 146.258 110.849 141.479 109.906 137.633C109.956 137.668 110.009 137.703 110.058 137.744C110.161 137.814 110.267 137.897 110.376 137.991C110.379 137.991 110.383 137.997 110.389 138.003C110.476 138.073 110.565 138.15 110.661 138.232C110.75 138.309 110.843 138.391 110.935 138.473C111.001 138.532 111.064 138.591 111.13 138.655C111.196 138.714 111.266 138.779 111.332 138.843C111.749 139.237 112.202 139.683 112.691 140.17C112.933 140.411 113.181 140.658 113.442 140.916C113.667 141.145 113.899 141.374 114.137 141.609C114.236 141.715 114.339 141.815 114.445 141.915C114.471 141.944 114.501 141.973 114.531 142.003C114.812 142.278 115.103 142.566 115.401 142.854C115.453 142.901 115.506 142.948 115.556 143.001V143.007L116.029 153.529L116.029 153.533Z" fill="white"/>
<path d="M115.562 142.992C115.712 143.133 115.863 143.274 116.016 143.421C115.863 143.28 115.711 143.133 115.562 142.999V142.992Z" fill="#222222"/>
<path d="M115.401 142.852C115.103 142.564 114.812 142.276 114.531 142C114.812 142.277 115.103 142.558 115.401 142.852Z" fill="#222222"/>
<path d="M114.133 141.609C114.235 141.709 114.338 141.809 114.441 141.915C114.335 141.815 114.232 141.715 114.133 141.609Z" fill="#222222"/>
<path d="M112.688 140.164C112.929 140.404 113.18 140.651 113.438 140.91C113.177 140.651 112.929 140.404 112.688 140.164Z" fill="#222222"/>
<path d="M111.327 138.852C111.261 138.787 111.191 138.723 111.125 138.664C111.191 138.723 111.257 138.782 111.327 138.852Z" fill="#222222"/>
<path d="M110.939 138.475C110.846 138.393 110.753 138.311 110.664 138.234C110.753 138.311 110.843 138.393 110.939 138.475Z" fill="white"/>
<path d="M110.398 138C110.488 138.07 110.577 138.147 110.67 138.229C110.574 138.147 110.485 138.07 110.398 138Z" fill="#222222"/>
<path d="M133.513 159.756C135.087 159.58 136.565 159.251 137.925 158.828C139.371 158.382 140.687 157.83 141.841 157.255C143.293 156.533 144.494 155.764 145.401 155.106C145.99 154.677 146.453 154.29 146.78 153.99C148.358 152.541 150.478 145.172 151.49 141.361C153.313 139.675 154.447 138.636 154.871 139.247C155.794 140.58 152.562 161.442 143.744 173.385C142.791 170.572 141.445 167.789 139.602 166.268C134.955 162.434 130.033 173.126 130.033 173.126C130.033 173.126 128.535 168.676 124.152 168.54C121.705 168.464 119.498 170.537 118.026 172.398H118.023C110.739 159.627 107.722 138.02 108.797 137.321C109.035 137.169 109.409 137.298 109.902 137.638C110.845 141.484 112.048 146.263 112.436 147.244C112.793 148.142 113.709 150.849 116.024 153.538C116.917 154.578 118.022 155.611 119.382 156.539C120.609 157.373 122.041 158.124 123.721 158.699C124.479 158.963 125.283 159.192 126.143 159.38C127.026 159.573 127.889 159.709 128.736 159.791C130.407 159.955 132.004 159.926 133.513 159.756Z" fill="#222222"/>
<path d="M117.695 178.586C117.695 178.586 128.575 197.563 142.705 179.896" stroke="white" stroke-width="1.5" stroke-miterlimit="10" stroke-linecap="round" stroke-linejoin="round"/>
<path d="M162.826 87.6498C162.45 91.3862 157.893 87.151 151.807 86.5357C145.721 85.9205 140.411 89.1582 140.787 85.4217C141.164 81.6852 146.402 79.155 152.488 79.7703C158.574 80.3855 163.203 83.9133 162.826 87.6498Z" fill="#212121"/>
<path d="M122.386 85.8664C122.696 89.609 117.444 86.2765 111.348 86.7824C105.252 87.2883 100.62 91.4411 100.31 87.6985C100.001 83.9559 104.692 80.5117 110.788 80.0058C116.884 79.4999 122.076 82.1238 122.386 85.8664Z" fill="#212121"/>
<path d="M149.491 201.372L159.017 192.88C163.34 189.025 167.99 185.554 172.913 182.505L183.155 176.162L182.693 183.2L174.528 188.298C167.404 192.746 160.765 197.932 154.722 203.769L148.969 209.325L149.491 201.372Z" fill="#212121"/>
<path d="M113.162 206.434L97.7693 191.492L80.5476 177.887L81.3687 185.271L96.118 196.836L109.525 210.364L113.162 206.434Z" fill="#212121"/>
<path d="M130.695 256.023V266.458" stroke="#9B9596" stroke-width="3" stroke-dasharray="2 2"/>
<path d="M150.176 207.888H180.288V225.937L180.274 226.982C179.72 248.885 161.791 266.47 139.755 266.47H124.268C101.885 266.47 83.7402 248.328 83.7344 225.947V207.888H109.295V193.227H150.176V207.888Z" fill="#212121"/>
<path d="M99.46 213.492V213.799H100.083V214.413H99.46V214.72C99.46 214.996 99.4511 215.27 99.4336 215.541L100.929 215.637C100.889 216.255 100.809 216.862 100.691 217.456L99.2217 217.166C99.1148 217.706 98.9729 218.234 98.7988 218.747L100.219 219.229C100.021 219.811 99.7851 220.376 99.5156 220.922L98.1719 220.259C97.929 220.75 97.6547 221.224 97.3516 221.677L98.5967 222.51C98.2556 223.019 97.8826 223.505 97.4795 223.965L96.3525 222.977C95.9918 223.388 95.6043 223.775 95.1934 224.136L96.1816 225.262C95.7223 225.665 95.237 226.039 94.7275 226.38L93.8936 225.134C93.441 225.437 92.9679 225.711 92.4766 225.954L93.1396 227.298C92.5939 227.567 92.0284 227.803 91.4453 228.001L90.9648 226.581C90.4519 226.755 89.9234 226.897 89.3828 227.004L89.6729 228.474C89.267 228.554 88.8551 228.618 88.4375 228.662V227.789H87.7959L87.7588 227.216C87.4875 227.233 87.2136 227.242 86.9375 227.242V225.883H88.4375V223.977H86.9375V222.07H88.4375V220.164H86.9375V218.258H88.4375V216.352H86.9375V214.992H87.8135V214.445H88.4375V213.492H89.5664V214.992H91.3193V213.492H93.0723V214.992H94.8252V213.492H96.5781V214.992H98.3311V213.492H99.46Z" fill="#212121" stroke="#9B9596" stroke-width="3" stroke-dasharray="2 2"/>
<path d="M141.126 201.852V203.083H141.608V203.352H142.626V205.547H141.126V208.01H142.626V210.473H141.126V211.705C141.126 211.989 141.115 212.27 141.094 212.548L142.589 212.664C142.539 213.311 142.437 213.943 142.29 214.558L140.832 214.209C140.7 214.759 140.527 215.294 140.313 215.808L141.697 216.381C141.451 216.975 141.159 217.546 140.826 218.089L139.549 217.305C139.254 217.784 138.923 218.24 138.559 218.666L139.696 219.638C139.28 220.125 138.827 220.578 138.34 220.994L137.368 219.856C136.942 220.221 136.487 220.552 136.007 220.847L136.791 222.124C136.248 222.457 135.677 222.749 135.083 222.995L134.51 221.611C133.996 221.824 133.462 221.998 132.912 222.13L133.26 223.588C132.645 223.735 132.013 223.836 131.366 223.887L131.25 222.392C130.972 222.413 130.691 222.424 130.407 222.424C130.123 222.424 129.841 222.413 129.563 222.392L129.447 223.887H129.446C128.8 223.836 128.167 223.735 127.553 223.588L127.902 222.13C127.352 221.998 126.817 221.824 126.304 221.611L125.729 222.995C125.135 222.749 124.564 222.457 124.021 222.124L124.807 220.847C124.327 220.552 123.872 220.221 123.445 219.856L122.473 220.994C121.986 220.578 121.533 220.125 121.117 219.639L122.255 218.666C121.891 218.24 121.559 217.784 121.265 217.305L119.986 218.089C119.653 217.546 119.362 216.975 119.115 216.381L120.5 215.808C120.287 215.294 120.113 214.759 119.981 214.209L118.522 214.558C118.375 213.943 118.274 213.311 118.224 212.664L119.72 212.548C119.709 212.409 119.701 212.269 119.695 212.129L119.688 211.705V210.473H118.188V208.01H119.688V205.547H118.188V203.352H119.206V203.083H119.688V201.852H121.242V203.352H123.279V201.852H125.315V203.352H127.352V201.852H129.389V203.352H131.425V201.852H133.462V203.352H135.498V201.852H137.535V203.352H139.571V201.852H141.126Z" fill="#212121" stroke="#9B9596" stroke-width="3" stroke-dasharray="2 2"/>
<path d="M165.759 213.492V213.799H165.136V214.413H165.759V214.72C165.759 214.996 165.768 215.27 165.785 215.541L164.29 215.637C164.33 216.255 164.41 216.862 164.527 217.456L165.997 217.166C166.104 217.706 166.246 218.234 166.42 218.747L165 219.229C165.198 219.811 165.434 220.376 165.703 220.922L167.047 220.259C167.29 220.75 167.564 221.224 167.867 221.677L166.622 222.51C166.963 223.019 167.336 223.505 167.739 223.965L168.866 222.977C169.227 223.388 169.614 223.775 170.025 224.136L169.037 225.262C169.496 225.665 169.982 226.039 170.491 226.38L171.325 225.134C171.778 225.437 172.251 225.711 172.742 225.954L172.079 227.298C172.625 227.567 173.19 227.803 173.773 228.001L174.254 226.581C174.767 226.755 175.295 226.897 175.836 227.004L175.546 228.474C175.952 228.554 176.364 228.618 176.781 228.662V227.789H177.423L177.46 227.216C177.731 227.233 178.005 227.242 178.281 227.242V225.883H176.781V223.977H178.281V222.07H176.781V220.164H178.281V218.258H176.781V216.352H178.281V214.992H177.405V214.445H176.781V213.492H175.652V214.992H173.899V213.492H172.146V214.992H170.394V213.492H168.641V214.992H166.888V213.492H165.759Z" fill="#212121" stroke="#9B9596" stroke-width="3" stroke-dasharray="2 2"/>
<path d="M80.9375 178.781L97.2832 191.623L111.041 206.35L107.796 208.315L96.5623 196.239L81.5397 184.801" stroke="#9B9596" stroke-dasharray="2 2"/>
<path d="M139.49 218.311C139.503 218.324 139.503 218.337 139.503 218.35C139.49 218.363 139.477 218.363 139.464 218.363C138.697 217.947 137.904 217.622 137.111 217.271C136.318 216.946 135.512 216.608 134.719 216.295C133.107 215.659 131.495 215.06 129.857 214.514C129.675 214.449 129.493 214.384 129.324 214.332C129.077 214.41 128.83 214.475 128.57 214.54C128.557 214.826 128.544 215.112 128.531 215.398C128.531 215.411 128.518 215.424 128.492 215.424C128.479 215.424 128.479 215.411 128.466 215.398C128.427 215.138 128.401 214.865 128.375 214.592C128.011 214.67 127.647 214.748 127.27 214.787C127.049 214.813 126.828 214.826 126.594 214.813C126.36 214.813 126.126 214.774 125.918 214.709C125.697 214.657 125.463 214.58 125.255 214.449C125.151 214.384 125.047 214.293 124.969 214.176C124.878 214.046 124.839 213.864 124.891 213.722C124.969 213.409 125.229 213.24 125.476 213.162C125.541 213.149 125.606 213.136 125.671 213.136L125.762 213.123H125.853C125.97 213.136 126.074 213.149 126.191 213.162C126.633 213.214 127.062 213.331 127.478 213.435C127.764 213.527 128.05 213.604 128.336 213.695C128.323 213.318 128.336 212.928 128.362 212.551C128.388 212.07 128.401 211.576 128.544 211.121C128.674 210.653 128.856 210.198 129.168 209.808C129.181 209.795 129.194 209.795 129.207 209.808C129.22 209.808 129.22 209.821 129.22 209.821V209.834C129.22 210.315 129.155 210.783 129.103 211.238C129.038 211.706 128.895 212.148 128.817 212.603C128.739 212.993 128.687 213.396 128.648 213.799C128.791 213.838 128.934 213.89 129.077 213.942C129.285 213.877 129.48 213.812 129.675 213.734C130.481 213.435 131.261 213.097 132.015 212.694C132.769 212.304 133.497 211.862 134.16 211.342C134.485 211.082 134.797 210.796 135.057 210.497C135.304 210.198 135.512 209.834 135.499 209.535C135.499 209.236 135.278 209.002 134.914 208.873C134.563 208.742 134.147 208.703 133.731 208.677C132.899 208.651 132.054 208.729 131.209 208.846C130.351 208.963 129.519 209.119 128.674 209.288C127.829 209.457 126.984 209.652 126.152 209.847C125.307 210.055 124.475 210.276 123.643 210.497C123.617 210.497 123.604 210.484 123.604 210.471C123.604 210.458 123.604 210.445 123.617 210.432C125.242 209.834 126.893 209.327 128.583 208.898C129.415 208.677 130.273 208.508 131.131 208.352C131.989 208.209 132.86 208.105 133.757 208.105C134.199 208.131 134.654 208.157 135.122 208.326C135.343 208.417 135.59 208.534 135.785 208.742C135.824 208.794 135.876 208.846 135.915 208.911C135.928 208.938 135.941 208.963 135.967 209.002C135.98 209.041 135.993 209.067 136.006 209.106C136.058 209.236 136.097 209.379 136.097 209.522C136.11 209.808 136.019 210.068 135.902 210.289C135.785 210.497 135.655 210.692 135.499 210.874C135.2 211.225 134.849 211.511 134.498 211.784C133.796 212.317 133.029 212.759 132.249 213.149C131.469 213.539 130.65 213.877 129.831 214.163C129.818 214.176 129.805 214.176 129.779 214.176C129.844 214.202 129.896 214.215 129.948 214.241C131.586 214.826 133.185 215.464 134.784 216.14C135.577 216.478 136.37 216.816 137.163 217.167C137.943 217.531 138.736 217.882 139.49 218.311ZM127.218 214.371C127.595 214.332 127.972 214.241 128.349 214.15C128.349 214.111 128.336 214.072 128.336 214.02C128.024 213.929 127.712 213.838 127.387 213.76C126.971 213.656 126.555 213.552 126.152 213.5C126.048 213.487 125.944 213.487 125.84 213.487H125.775H125.697C125.658 213.487 125.619 213.5 125.58 213.513C125.411 213.565 125.268 213.682 125.242 213.799C125.216 213.903 125.307 214.033 125.463 214.124C125.619 214.228 125.814 214.28 126.009 214.332C126.399 214.436 126.802 214.423 127.218 214.371Z" fill="#9B9596"/>
<path d="M183.088 176.773L165.585 187.83L147.031 204.063L148.233 208.478L165.26 193.227L182.488 182.593" stroke="#9B9596" stroke-dasharray="2 2"/>
<path d="M145.844 195.031V209.88H180.298" stroke="#9B9596" stroke-dasharray="2 2"/>
<path d="M110.188 194.938H149.05" stroke="#9B9596" stroke-width="3" stroke-dasharray="2 2"/>
<path d="M111.385 194.641V209.891H85.3438" stroke="#9B9596" stroke-dasharray="2 2"/>
<ellipse cx="110.388" cy="205.674" rx="3.00477" ry="3.00989" fill="url(#paint2_radial_746_6316)"/>
<ellipse cx="148.442" cy="206.072" rx="3.00477" ry="3.00989" fill="url(#paint3_radial_746_6316)"/>
<path d="M109.801 204.943C109.778 204.902 109.739 204.873 109.694 204.861C109.649 204.849 109.601 204.855 109.561 204.879C109.521 204.902 109.491 204.94 109.479 204.985C109.467 205.03 109.473 205.078 109.497 205.119L109.848 205.728L109.24 206.08C109.199 206.103 109.17 206.142 109.158 206.187C109.146 206.232 109.152 206.28 109.175 206.32C109.199 206.361 109.237 206.39 109.282 206.402C109.327 206.414 109.375 206.408 109.415 206.385L110.024 206.033L110.375 206.642C110.398 206.683 110.436 206.712 110.481 206.724C110.526 206.736 110.574 206.73 110.615 206.707C110.655 206.683 110.684 206.645 110.696 206.6C110.709 206.555 110.702 206.507 110.679 206.466L110.328 205.857L110.936 205.505C110.976 205.482 111.006 205.443 111.018 205.398C111.03 205.353 111.024 205.305 111 205.265C110.977 205.224 110.939 205.195 110.894 205.183C110.849 205.171 110.801 205.177 110.76 205.2L110.152 205.552L109.801 204.943Z" fill="#9B9596"/>
<path d="M148.277 205.334C148.254 205.293 148.216 205.264 148.171 205.252C148.126 205.239 148.078 205.246 148.038 205.269C147.997 205.292 147.968 205.331 147.956 205.376C147.944 205.421 147.95 205.469 147.973 205.509L148.324 206.119L147.716 206.471C147.676 206.494 147.646 206.532 147.634 206.577C147.622 206.623 147.629 206.671 147.652 206.711C147.675 206.751 147.713 206.781 147.758 206.793C147.803 206.805 147.851 206.799 147.892 206.775L148.5 206.424L148.851 207.033C148.875 207.073 148.913 207.103 148.958 207.115C149.003 207.127 149.051 207.121 149.091 207.097C149.132 207.074 149.161 207.036 149.173 206.99C149.185 206.945 149.179 206.897 149.156 206.857L148.804 206.248L149.413 205.896C149.453 205.872 149.482 205.834 149.494 205.789C149.507 205.744 149.5 205.696 149.477 205.655C149.454 205.615 149.415 205.586 149.37 205.574C149.325 205.561 149.277 205.568 149.237 205.591L148.629 205.943L148.277 205.334Z" fill="#9B9596"/>
<defs>
<filter id="filter0_d_746_6316" x="17.5125" y="272.528" width="213.155" height="64.7719" filterUnits="userSpaceOnUse" color-interpolation-filters="sRGB">
<feFlood flood-opacity="0" result="BackgroundImageFix"/>
<feColorMatrix in="SourceAlpha" type="matrix" values="0 0 0 0 0 0 0 0 0 0 0 0 0 0 0 0 0 0 127 0" result="hardAlpha"/>
<feMorphology radius="9" operator="dilate" in="SourceAlpha" result="effect1_dropShadow_746_6316"/>
<feOffset dy="4"/>
<feGaussianBlur stdDeviation="4.65"/>
<feComposite in2="hardAlpha" operator="out"/>
<feColorMatrix type="matrix" values="0 0 0 0 0.94902 0 0 0 0 0.690196 0 0 0 0 0.301961 0 0 0 1 0"/>
<feBlend mode="normal" in2="BackgroundImageFix" result="effect1_dropShadow_746_6316"/>
<feBlend mode="normal" in="SourceGraphic" in2="effect1_dropShadow_746_6316" result="shape"/>
</filter>
<filter id="filter1_i_746_6316" x="73.9609" y="48.9531" width="123.927" height="202.434" filterUnits="userSpaceOnUse" color-interpolation-filters="sRGB">
<feFlood flood-opacity="0" result="BackgroundImageFix"/>
<feBlend mode="normal" in="SourceGraphic" in2="BackgroundImageFix" result="shape"/>
<feColorMatrix in="SourceAlpha" type="matrix" values="0 0 0 0 0 0 0 0 0 0 0 0 0 0 0 0 0 0 127 0" result="hardAlpha"/>
<feOffset dx="16" dy="20"/>
<feGaussianBlur stdDeviation="4.1"/>
<feComposite in2="hardAlpha" operator="arithmetic" k2="-1" k3="1"/>
<feColorMatrix type="matrix" values="0 0 0 0 0.129412 0 0 0 0 0.129412 0 0 0 0 0.129412 0 0 0 0.25 0"/>
<feBlend mode="normal" in2="shape" result="effect1_innerShadow_746_6316"/>
</filter>
<radialGradient id="paint0_radial_746_6316" cx="0" cy="0" r="1" gradientTransform="matrix(-0.636549 14.2959 -14.274 -0.637527 10.2139 10.2295)" gradientUnits="userSpaceOnUse">
<stop stop-color="#00F2FF"/>
<stop offset="1" stop-color="#08293A"/>
</radialGradient>
<radialGradient id="paint1_radial_746_6316" cx="0" cy="0" r="1" gradientTransform="matrix(-0.636549 14.2959 -14.274 -0.637527 10.2139 10.2295)" gradientUnits="userSpaceOnUse">
<stop stop-color="#00F2FF"/>
<stop offset="1" stop-color="#08293A"/>
</radialGradient>
<radialGradient id="paint2_radial_746_6316" cx="0" cy="0" r="1" gradientUnits="userSpaceOnUse" gradientTransform="translate(110.388 205.674) rotate(90) scale(3.00989 3.00477)">
<stop offset="0.730769" stop-color="#212121"/>
<stop offset="0.730869" stop-color="#7A808C"/>
</radialGradient>
<radialGradient id="paint3_radial_746_6316" cx="0" cy="0" r="1" gradientUnits="userSpaceOnUse" gradientTransform="translate(148.442 206.072) rotate(90) scale(3.00989 3.00477)">
<stop offset="0.730769" stop-color="#212121"/>
<stop offset="0.730869" stop-color="#7A808C"/>
</radialGradient>
</defs>
</svg>
